{"glyphs":{"0":{"ha":997,"x_min":-107,"x_max":1024,"o":"m 1024 631 l 1024 617 l 872 617 q 873 614 872 615 q 874 610 874 613 l 971 610 l 971 603 l 935 603 q 936 590 936 597 q 936 575 936 582 l 932 575 l 932 554 l 869 554 l 869 533 l 926 533 l 926 513 l 942 513 l 942 492 l 938 492 l 938 471 l 889 471 l 889 443 l 963 443 l 963 415 l 892 415 l 890 401 l 919 401 q 919 391 919 396 q 918 381 919 386 l 936 381 q 935 374 935 378 q 935 367 935 369 l 963 367 l 963 346 l 999 346 l 999 342 q 997 331 997 336 q 996 318 997 325 l 992 318 l 990 304 l 911 304 q 909 290 910 297 q 906 276 908 283 l 956 276 l 951 256 l 918 256 l 910 228 l 888 228 l 879 207 l 851 207 q 845 193 849 200 q 838 179 842 186 l 800 179 q 792 165 796 172 q 783 151 788 158 l 854 151 q 844 138 849 144 q 833 124 839 131 l 847 124 l 840 117 l 868 117 l 856 103 l 807 103 l 793 89 l 771 89 q 735 61 753 74 l 642 61 l 607 40 l 728 40 q 681 19 704 28 l 722 19 q 686 8 704 14 q 649 -1 668 3 l 651 -1 q 631 -5 642 -3 q 610 -8 621 -7 l 751 -8 q 710 -12 732 -11 q 665 -14 689 -14 q 622 -12 643 -14 q 581 -8 600 -11 l 438 -8 q 417 -5 428 -7 q 396 -1 407 -3 l 394 -1 q 321 19 353 7 l 279 19 q 233 40 254 28 l 113 40 q 94 51 103 46 q 76 61 85 56 l 169 61 q 133 89 151 74 l 156 89 l 142 103 l 189 103 l 176 117 l 149 117 q 143 124 144 121 l 129 124 q 108 151 118 135 l 36 151 q 28 165 32 158 q 19 179 24 172 l 57 179 q 50 193 54 186 q 43 207 46 200 l 72 207 q 64 228 67 218 l 85 228 l 76 256 l 108 256 q 106 266 107 261 q 103 276 104 271 l 117 276 q 115 290 115 283 q 111 304 114 297 l 57 304 l 56 318 l 36 318 l 33 342 l 33 346 l 117 346 q 115 356 115 351 q 115 367 115 361 l 57 367 l 56 381 l 61 381 q 60 391 60 386 q 60 401 60 396 l 44 401 l 43 415 l 42 415 q 41 429 42 422 q 40 443 40 436 l 35 443 q 34 457 35 450 q 33 471 33 464 l 42 471 l 42 492 l 65 492 l 65 513 l 50 513 l 50 533 l 46 533 l 46 554 l -11 554 q -10 565 -10 560 q -10 575 -10 569 l 72 575 l 72 603 l 83 603 q 85 610 85 606 l 189 610 l 189 617 l 104 617 l 106 631 l 74 631 l 75 636 q 76 651 75 646 l 60 651 q 61 662 61 657 q 63 672 61 667 l 67 672 q 68 679 68 675 q 69 686 68 683 l 88 686 q 90 697 89 692 q 93 707 92 701 l 8 707 q 13 717 11 713 q 15 728 14 722 l 36 728 l 44 749 l -107 749 l -94 776 l -19 776 l -17 783 l 49 783 q 64 811 54 797 l 26 811 l 31 818 l 82 818 q 92 833 88 825 q 103 846 97 840 l 144 846 q 151 853 147 849 q 157 860 154 857 l 161 860 q 169 867 165 863 q 175 874 172 871 l 169 874 l 194 894 l 197 894 l 226 915 l 228 915 l 253 929 q 259 933 256 932 q 267 936 263 935 l 239 936 q 246 940 242 939 q 253 943 250 942 l 267 943 q 284 951 275 947 q 301 957 293 954 l 313 957 q 323 961 318 960 q 333 964 328 963 l 331 964 q 344 968 338 967 q 357 971 350 969 l 360 971 q 426 982 392 978 q 497 986 460 986 q 633 971 568 986 l 631 971 q 644 968 638 969 q 657 964 651 967 l 661 964 q 672 961 667 963 q 682 957 676 960 l 672 957 q 691 951 682 954 q 708 943 700 947 l 694 943 l 710 936 l 738 936 q 744 933 740 935 q 751 929 747 932 l 750 929 l 775 915 l 772 915 q 788 905 781 910 q 803 894 796 900 l 800 894 q 813 884 807 889 q 824 874 818 879 l 829 874 q 837 867 833 871 q 843 860 840 863 l 839 860 l 851 846 l 811 846 q 822 833 817 840 q 832 818 826 825 l 781 818 l 785 811 l 824 811 q 832 798 828 806 q 840 783 836 790 l 775 783 l 779 776 l 704 776 l 717 749 l 867 749 l 875 728 l 853 728 q 856 717 854 722 q 858 707 857 713 l 847 707 l 851 686 l 917 686 q 919 672 919 678 l 929 672 q 931 662 931 667 q 932 651 932 657 l 942 651 q 943 636 943 646 q 944 631 943 632 l 1024 631 m 433 718 q 393 707 411 718 l 474 707 q 433 718 458 718 m 663 617 q 661 628 663 624 l 661 631 l 582 631 q 581 641 582 636 q 579 651 581 646 l 569 651 q 567 662 568 657 q 564 672 567 667 l 554 672 q 547 686 553 678 l 482 686 q 476 694 479 690 q 469 701 474 699 q 458 686 463 694 l 439 686 q 436 680 438 683 q 432 672 435 676 l 428 672 q 425 662 426 667 q 422 651 424 657 l 439 651 q 437 641 438 646 q 436 631 436 636 l 467 631 l 467 617 l 663 617 m 610 603 q 608 610 610 607 l 446 610 l 446 603 l 435 603 q 434 590 435 597 q 433 575 433 582 l 351 575 l 351 554 l 408 554 q 408 544 408 549 q 407 533 407 539 l 413 533 l 413 513 l 428 513 l 428 492 l 404 492 l 404 471 l 396 471 l 396 443 l 403 443 l 403 415 l 406 415 l 406 401 l 422 401 l 422 381 l 418 381 l 418 367 l 476 367 q 478 358 478 363 q 478 349 478 353 l 478 346 l 394 346 l 399 318 l 418 318 l 422 304 l 476 304 q 494 276 483 286 l 481 276 q 529 258 499 258 q 579 276 561 258 l 529 276 q 546 304 539 286 l 625 304 l 629 318 l 633 318 l 638 346 l 600 346 l 600 349 q 601 358 601 353 q 601 367 601 363 l 574 367 l 574 381 l 557 381 l 557 401 l 529 401 l 529 415 l 600 415 l 600 443 l 526 443 l 526 471 l 575 471 l 575 492 l 579 492 l 579 513 l 565 513 l 565 533 l 507 533 l 507 554 l 569 554 l 569 575 l 574 575 l 574 603 l 610 603 z "},"1":{"ha":774,"x_min":-33,"x_max":938,"o":"m 938 665 l 793 665 l 793 651 l 806 651 l 806 638 l 753 638 l 753 610 l 682 610 l 682 596 l 718 596 l 718 582 l 721 582 l 721 568 l 690 568 l 690 540 l 689 540 l 689 519 l 711 519 l 711 492 l 657 492 l 657 471 l 694 471 l 694 450 l 715 450 l 715 422 l 607 422 l 607 408 l 556 408 l 556 381 l 735 381 l 735 374 l 610 374 l 610 346 l 751 346 l 751 332 l 589 332 l 589 311 l 701 311 l 701 283 l 700 283 l 700 256 l 713 256 l 713 242 l 733 242 l 733 221 l 753 221 l 753 200 l 736 200 l 736 179 l 697 179 l 697 158 l 696 158 l 696 131 l 694 131 l 694 124 l 683 124 l 683 96 l 689 96 l 689 89 l 700 89 l 700 82 l 718 82 l 718 54 l 739 54 l 739 38 q 738 26 739 31 l 740 26 q 725 6 738 14 l 688 6 q 668 0 681 0 l 396 0 q 376 6 383 0 l 413 6 q 397 26 403 13 l 393 26 q 392 32 393 29 q 392 38 392 35 l 392 54 l 371 54 l 371 82 l 353 82 l 353 89 l 342 89 l 342 96 l 336 96 l 336 124 l 347 124 l 347 131 l 349 131 l 349 158 l 350 158 l 350 179 l 389 179 l 389 200 l 406 200 l 406 221 l 386 221 l 386 242 l 365 242 l 365 256 l 353 256 l 353 283 l 354 283 l 354 311 l 242 311 l 242 332 l 404 332 l 404 346 l 263 346 l 263 374 l 388 374 l 388 381 l 208 381 l 208 408 l 260 408 l 260 422 l 368 422 l 368 450 l 347 450 l 347 471 l 310 471 l 310 492 l 364 492 l 364 519 l 342 519 l 342 540 l 343 540 l 343 568 l 374 568 l 374 582 l 371 582 l 371 586 l 365 582 l 351 582 l 333 568 l 306 568 l 269 540 l 272 540 l 246 519 l 233 519 l 197 492 l 228 492 l 211 479 q 183 473 197 469 q 158 490 169 476 l 157 492 l 128 492 l 106 519 l 118 519 l 101 540 l 99 540 l 76 568 l 104 568 l 93 582 l 107 582 l 96 596 l 44 596 l 33 610 l 106 610 l 85 638 l 136 638 l 128 649 q 127 650 128 650 q 126 651 126 650 l 114 651 q 111 665 111 660 l 256 665 q 258 686 254 675 l 239 686 q 250 700 243 694 l -33 700 l -29 703 l 3 728 l 64 728 l 90 749 l 108 763 l 163 763 l 190 783 l 158 783 l 167 790 l 139 790 l 167 811 l 171 811 l 197 832 l 201 832 l 219 846 l 221 846 l 229 853 l 235 853 l 269 881 l 178 881 l 213 908 l 350 908 l 358 915 l 1 915 l 11 922 l 357 922 l 375 936 l 408 963 l 410 964 l 514 964 q 542 972 526 972 l 804 972 q 828 964 819 972 l 725 964 q 739 935 739 953 l 739 922 l 393 922 l 393 915 l 750 915 l 750 908 l 614 908 l 614 881 l 706 881 l 706 853 l 701 853 l 701 846 l 700 846 l 700 832 l 696 832 l 696 811 l 692 811 l 692 790 l 719 790 l 719 783 l 751 783 l 751 763 l 696 763 l 696 749 l 697 749 l 697 728 l 636 728 l 636 700 l 918 700 l 918 686 l 938 686 l 938 665 z "},"2":{"ha":978,"x_min":-75,"x_max":1060,"o":"m 908 40 l 908 33 l 1053 33 q 1049 19 1053 26 l 897 19 q 883 6 893 10 l 947 6 q 928 0 940 0 l 128 0 q 108 6 115 0 l 44 6 q 37 12 40 8 q 31 19 33 15 l 183 19 q 178 33 181 25 l 33 33 l 33 40 l 185 40 l 185 61 l 67 61 l 67 68 l -12 68 l -12 89 l 151 89 l 151 110 l 0 110 l 0 138 l 51 138 l 51 151 l 93 151 l 93 179 l 72 179 l 72 182 q 73 192 72 185 q 75 207 74 199 l 143 207 q 147 217 144 213 q 150 228 149 222 l 58 228 q 63 235 61 231 q 68 242 65 239 l 74 242 q 89 257 81 250 l 104 268 q 106 269 106 268 q 107 269 106 269 l 106 269 q 115 276 111 272 q 125 283 119 281 l 132 283 q 138 288 135 286 q 142 290 140 289 l 143 290 q 158 301 150 296 q 171 311 165 306 l 158 311 q 168 318 164 314 q 178 325 172 322 l 182 325 l 211 346 l 225 346 q 244 360 235 353 q 263 374 253 368 l 208 374 q 227 388 218 381 q 246 401 236 396 l 301 401 q 307 406 304 404 q 311 408 310 407 l 318 408 q 328 415 324 411 q 338 422 332 419 l 271 422 q 291 437 282 429 q 308 450 300 444 l 301 450 l 310 457 l 361 457 q 367 461 364 460 q 371 464 369 463 l 257 464 l 293 492 l 426 492 l 435 499 l 332 499 l 357 519 l 418 519 l 435 533 l 358 533 q 374 548 367 540 q 388 561 382 556 l 526 561 q 531 565 529 564 q 533 568 532 567 l 494 568 q 502 575 499 571 q 508 582 506 579 l 360 582 q 376 603 371 593 l 469 603 l 485 631 l 532 631 q 539 658 539 647 l 583 658 l 583 665 l 618 665 q 618 676 618 671 q 617 686 618 681 l 568 686 l 565 693 l 483 693 l 479 686 l 511 686 q 506 676 508 681 q 501 665 504 671 l 447 665 l 444 658 l 417 658 q 415 653 415 656 q 414 647 415 650 q 410 638 413 642 q 404 631 407 633 l 297 631 q 277 618 289 621 q 251 615 265 615 l -10 615 q -36 631 -28 615 l 71 631 q 67 646 67 638 l 67 658 l 94 658 l 94 665 l 149 665 q 149 676 149 671 q 150 686 150 681 l 118 686 q 119 693 118 690 l 69 693 q 70 697 69 696 q 71 700 71 699 l -35 700 q -33 707 -33 703 q -32 714 -33 711 l 78 714 l 85 742 l 65 742 q 68 749 65 743 l -75 749 q -72 759 -74 754 q -68 769 -69 764 l 146 769 q 151 780 149 775 q 156 790 154 785 l 1 790 q 10 805 6 797 q 18 818 14 813 l 47 818 q 53 825 50 821 q 57 832 56 829 l 144 832 q 150 839 149 836 l 69 839 q 75 846 72 842 q 81 853 78 850 l 151 853 l 158 860 l 149 860 q 176 888 161 875 l 208 888 l 217 894 l 150 894 l 158 901 l 206 901 q 216 908 211 904 q 225 915 221 913 l 308 915 l 331 929 l 386 929 q 415 944 400 938 q 444 957 429 951 l 308 957 q 317 961 313 960 q 326 964 322 963 l 275 964 q 287 968 282 967 q 297 971 292 969 l 544 971 q 699 992 615 992 q 869 971 794 992 l 622 971 q 635 968 629 969 q 646 964 640 967 l 697 964 q 708 961 703 963 q 717 957 713 960 l 853 957 q 884 944 869 951 q 913 929 899 938 l 857 929 q 868 922 863 926 q 879 915 874 918 l 796 915 l 814 901 l 765 901 l 774 894 l 842 894 l 850 888 l 817 888 q 831 874 824 882 q 843 860 838 867 l 853 860 q 856 857 854 858 q 858 853 857 856 l 788 853 q 792 846 790 850 q 797 839 794 842 l 878 839 l 882 832 l 794 832 q 801 818 799 825 l 772 818 l 785 790 l 939 790 q 943 780 942 785 q 946 769 944 775 l 732 769 q 735 759 735 764 q 738 749 736 754 l 881 749 q 881 746 881 747 q 882 742 882 744 l 901 742 q 906 714 906 728 l 975 714 l 976 700 l 849 700 q 850 693 850 697 l 933 693 l 933 686 l 982 686 l 982 665 l 947 665 q 946 658 947 661 l 901 658 q 901 644 901 651 q 899 631 900 638 l 851 631 q 849 617 850 624 q 844 603 847 610 l 753 603 q 750 592 751 597 q 746 582 749 588 l 893 582 l 888 568 l 926 568 l 922 561 l 783 561 q 776 547 781 554 q 769 533 772 540 l 844 533 q 841 526 843 531 q 836 519 839 522 l 775 519 l 761 499 l 863 499 l 858 492 l 725 492 l 701 464 l 814 464 q 811 461 813 463 q 808 457 810 460 l 757 457 l 750 450 l 758 450 l 729 422 l 794 422 q 788 415 792 419 q 779 408 783 411 l 772 408 l 765 401 l 710 401 l 676 374 l 731 374 q 713 360 722 367 q 694 346 704 353 l 682 346 l 653 325 l 649 325 q 638 318 643 322 q 629 311 633 314 l 642 311 q 629 302 636 307 q 615 293 622 297 l 613 290 l 611 290 l 606 286 l 899 286 q 913 283 904 286 l 906 283 q 922 269 914 279 l 924 269 q 929 249 929 263 l 929 242 l 924 242 l 924 228 l 1015 228 l 1015 207 l 947 207 l 947 179 l 968 179 l 968 151 l 926 151 l 926 138 l 875 138 l 875 110 l 1026 110 l 1026 89 l 863 89 l 863 68 l 942 68 l 942 61 l 1060 61 l 1060 40 l 908 40 m 479 700 l 606 700 q 589 714 600 710 l 519 714 q 493 718 511 718 q 468 714 479 718 l 358 714 q 346 708 351 713 q 335 700 340 704 l 440 700 q 438 697 439 699 q 435 693 436 696 l 482 693 q 479 700 482 694 z "},"3":{"ha":985,"x_min":-217,"x_max":1301,"o":"m 1086 269 l 1301 269 q 1300 263 1300 267 q 1299 256 1300 258 q 1297 249 1299 251 l 1169 249 l 1165 235 l 926 235 l 922 221 l 1093 221 q 1091 214 1092 218 q 1088 207 1090 210 l 936 207 l 933 200 l 1014 200 q 1010 190 1013 194 q 1004 179 1007 185 l 907 179 l 903 172 l 931 172 l 926 165 l 676 165 q 667 151 671 158 q 657 138 663 144 l 740 138 q 729 124 735 129 l 553 124 l 532 103 l 922 103 q 906 89 914 96 q 888 75 897 82 l 760 75 q 744 65 753 69 q 728 54 736 60 l 514 54 q 501 47 508 50 q 486 40 493 43 l 575 40 q 558 33 567 36 q 542 26 550 29 l 714 26 q 647 6 683 14 l 529 6 q 492 -2 511 1 q 453 -8 472 -6 l 410 -8 q 364 -12 388 -11 q 317 -14 340 -14 q 266 -12 290 -14 q 219 -8 242 -11 l 261 -8 q 222 -2 240 -6 q 185 6 203 1 l 303 6 q 236 26 268 14 l 65 26 q 49 33 57 29 q 33 40 40 36 l -54 40 q -67 47 -61 43 q -81 54 -74 51 l 133 54 q 116 65 124 60 q 100 75 108 69 l 228 75 q 194 103 211 86 l -196 103 q -217 124 -208 114 l -40 124 l -53 138 l -136 138 q -147 151 -142 144 q -156 165 -151 158 l 96 165 l 92 172 l 64 172 l 60 179 l 157 179 q 151 190 154 185 q 146 200 149 194 l 67 200 q 64 207 64 206 l 215 207 l 210 221 l 40 221 l 36 235 l 275 235 q 272 249 272 243 l 401 249 q 400 256 400 251 l 850 256 q 910 269 886 256 l 696 269 q 701 274 699 272 q 706 276 703 275 l 611 276 q 617 274 614 275 q 621 269 619 272 l 281 269 q 311 260 293 264 q 358 256 329 256 l -93 256 q -93 263 -93 258 q -94 269 -93 267 l 246 269 l 246 276 l 3 276 q 24 304 3 296 l 181 304 q 190 306 183 306 l 469 306 q 483 304 479 306 l 701 304 l 704 311 l 599 311 q 600 320 600 315 q 600 329 600 325 l 600 339 l 576 339 q 564 367 574 357 l 563 367 l 556 374 l 464 374 q 393 390 442 390 l 219 390 q 193 401 201 390 l 303 401 l 299 408 l 282 408 q 276 428 276 415 l 276 436 l 274 436 l 274 464 l 290 464 l 290 485 l 246 485 l 246 506 l 321 506 l 321 526 l 335 526 l 335 554 l 250 554 l 254 568 l 304 568 l 307 575 l 354 575 l 358 582 l 315 582 q 323 590 319 586 q 331 596 326 594 l 343 603 l 324 603 l 374 631 l 365 631 l 390 644 l 388 644 l 413 658 l 407 658 l 458 686 l 471 693 l 464 693 l 479 701 l 114 701 q 94 707 101 701 l 142 707 q 128 721 132 711 l 75 721 q 69 735 72 726 l 94 735 l 94 742 l 101 742 l 101 749 l 74 749 l 74 769 l 92 769 l 92 797 l 99 797 l 99 811 l 93 811 l 93 832 l 82 832 l 82 839 l 101 839 l 101 860 l 50 860 l 50 888 l 106 888 l 106 894 l 46 894 l 46 922 l 53 922 l 53 935 q 56 950 53 946 l 104 950 q 139 972 117 972 l 850 972 q 885 950 875 972 l 835 950 q 839 935 839 944 l 839 922 l 832 922 l 832 894 l 892 894 l 892 888 l 836 888 l 836 860 l 888 860 l 888 839 l 868 839 l 868 832 l 879 832 l 879 811 l 885 811 l 885 797 l 878 797 l 878 769 l 860 769 l 860 749 l 886 749 l 886 742 l 878 742 q 877 739 878 740 q 876 735 876 738 l 851 735 q 844 721 850 729 l 899 721 q 894 713 897 717 q 888 707 890 710 l 840 707 q 835 703 838 706 l 819 693 l 826 693 l 817 686 l 775 658 l 781 658 l 760 644 l 763 644 l 742 631 l 751 631 l 710 603 l 729 603 l 717 594 l 717 590 l 747 582 l 790 582 q 801 579 796 581 q 811 575 806 578 l 765 575 q 774 572 769 574 q 783 568 779 571 l 733 568 q 765 554 750 563 l 850 554 q 894 526 872 543 l 882 526 l 907 506 l 832 506 q 841 495 836 500 q 851 485 846 490 l 896 485 l 911 464 l 894 464 q 910 436 904 450 l 913 436 q 924 408 919 421 l 940 408 l 943 401 l 832 401 q 836 388 835 396 q 839 374 838 381 l 929 374 q 931 367 931 371 l 933 367 q 935 353 935 361 q 936 339 936 346 l 960 339 q 961 326 961 333 q 961 311 961 318 l 1067 311 l 1067 304 l 801 304 q 801 290 801 297 q 800 276 800 283 l 1088 276 q 1086 269 1086 274 m 368 276 l 418 276 q 436 304 431 289 l 328 304 q 346 297 339 303 q 360 283 353 290 l 368 276 z "},"4":{"ha":1021,"x_min":-58,"x_max":1328,"o":"m 982 207 l 1328 207 l 1328 193 q 1325 179 1328 188 l 1097 179 q 1094 172 1097 178 l 954 172 q 949 165 953 169 l 867 165 q 842 156 854 156 l 719 156 l 719 144 l 975 144 l 975 138 l 860 138 l 860 131 l 840 131 l 840 117 l 822 117 l 822 89 l 796 89 l 796 82 l 769 82 l 769 61 l 622 61 l 622 54 l 571 54 l 571 38 q 569 33 571 35 l 649 33 l 644 19 l 735 19 q 729 13 733 17 l 606 13 q 597 6 600 7 l 683 6 q 663 0 676 0 l 404 0 q 385 6 392 0 l 300 6 q 292 13 294 7 l 415 13 l 411 19 l 319 19 l 315 33 l 238 33 l 238 54 l 289 54 l 289 61 l 436 61 l 436 82 l 463 82 l 463 89 l 489 89 l 489 117 l 507 117 l 507 131 l 526 131 l 526 138 l 642 138 l 642 144 l 386 144 l 386 156 l -29 156 q -54 165 -44 156 l 26 165 q 21 172 22 169 l 161 172 l 157 179 l 385 179 q 382 193 382 188 l 382 207 l 36 207 l 36 235 l 208 235 l 208 256 l 267 256 l 267 263 l -4 263 l -4 269 l 208 269 l 208 276 l 72 276 l 72 304 l 83 304 l 83 311 l 117 311 l 117 332 l 33 332 l 33 360 l 60 360 l 60 388 l 65 388 l 65 392 q 68 408 65 400 l 31 408 q 33 416 32 413 q 36 422 35 419 q 44 435 40 431 l 51 443 l 35 443 l 57 471 l 142 471 l 163 499 l -58 499 l -36 526 l 32 526 l 47 547 l -47 547 l -26 575 l 43 575 l 65 603 l 247 603 l 253 610 l 76 610 l 82 617 l 161 617 l 182 644 l 43 644 l 49 651 l 140 651 l 151 665 l 228 665 l 233 672 l 243 672 l 253 686 l 281 686 l 296 707 l 231 707 l 251 735 l 439 735 l 449 749 l 182 749 l 197 769 l 500 769 l 522 797 l 382 797 l 399 818 l 331 818 l 336 825 l 483 825 l 489 832 l 297 832 l 314 853 l 358 853 l 375 874 l 468 874 l 479 888 l 460 888 l 475 908 l 482 908 l 488 915 l 456 915 l 471 936 l 435 936 l 440 943 l 433 943 l 439 949 q 457 964 446 958 l 440 964 q 474 972 456 972 l 763 972 q 786 964 776 972 l 803 964 q 810 955 807 960 q 815 943 814 950 l 821 943 q 822 940 821 942 q 822 936 822 939 l 858 936 l 858 915 l 892 915 l 892 908 l 883 908 l 883 888 l 904 888 l 904 874 l 810 874 l 810 853 l 764 853 l 764 832 l 956 832 l 956 825 l 808 825 l 808 818 l 875 818 l 875 797 l 1015 797 l 1015 769 l 713 769 l 713 749 l 979 749 l 979 735 l 793 735 l 793 707 l 858 707 l 858 686 l 832 686 l 832 672 l 822 672 l 822 665 l 746 665 l 746 651 l 653 651 l 653 644 l 793 644 l 793 617 l 650 617 l 650 610 l 772 610 l 772 603 l 771 603 l 771 575 l 649 575 l 649 547 l 733 547 l 733 526 l 888 526 l 888 499 l 733 499 l 733 471 l 825 471 l 825 443 l 822 443 l 822 438 l 943 438 q 975 422 964 438 l 968 422 q 974 408 974 414 l 1011 408 l 1011 388 l 1006 388 l 1006 360 l 979 360 l 979 332 l 1063 332 l 1063 311 l 1029 311 l 1029 304 l 1018 304 l 1018 276 l 1154 276 l 1154 269 l 942 269 l 942 263 l 1213 263 l 1213 256 l 1154 256 l 1154 235 l 982 235 l 982 207 m 447 603 l 369 603 l 349 575 l 447 575 l 447 603 m 279 575 l 260 547 l 325 547 l 325 575 l 279 575 m 271 526 l 250 499 l 564 499 l 564 526 l 410 526 l 410 547 l 354 547 l 339 526 l 271 526 m 365 471 l 346 443 l 361 443 l 346 422 l 499 422 l 499 443 l 501 443 l 501 471 l 365 471 z "},"5":{"ha":958,"x_min":11,"x_max":994,"o":"m 993 256 l 968 256 q 967 253 968 254 q 967 249 967 251 l 969 249 l 965 235 l 908 235 q 903 221 907 228 q 897 207 900 214 l 890 207 q 888 200 888 201 l 882 200 l 878 193 l 893 193 l 889 186 l 843 186 l 839 179 l 900 179 l 896 172 l 879 172 l 875 165 l 876 165 l 868 151 q 858 138 863 144 q 847 124 853 131 l 850 124 q 838 110 844 117 q 824 96 831 103 l 819 96 q 808 85 814 90 q 794 75 801 81 l 807 75 q 798 68 803 72 q 788 61 793 64 l 796 61 l 785 54 l 693 54 q 667 40 681 47 q 639 26 654 33 l 732 26 q 715 19 724 22 q 696 13 706 15 l 610 13 q 460 -15 540 -11 l 463 -15 q 440 -17 453 -17 q 417 -17 428 -17 q 392 -17 404 -17 q 368 -15 379 -17 l 364 -15 q 207 13 278 -11 l 293 13 q 274 19 283 15 q 256 26 264 22 l 163 26 q 133 40 147 33 q 107 54 119 47 l 199 54 q 194 58 197 57 q 188 61 190 60 l 181 61 l 160 75 l 147 75 q 135 85 142 81 q 124 96 129 90 l 128 96 q 100 124 113 108 l 97 124 q 76 151 86 135 q 68 165 71 157 l 67 165 l 63 172 l 79 172 l 75 179 l 14 179 q 11 186 14 181 l 58 186 l 54 193 l 40 193 l 38 200 l 43 200 l 40 207 l 49 207 q 40 235 42 222 l 97 235 l 93 249 l 92 249 q 90 256 90 251 l 164 256 l 164 263 l 79 263 l 76 290 l 86 290 l 86 297 l 31 297 q 35 311 31 306 l 38 311 q 63 325 47 325 l 343 325 q 369 321 358 325 q 385 311 379 317 l 383 311 q 390 303 389 306 q 394 300 393 301 q 396 297 394 299 l 451 297 q 454 294 453 296 q 457 290 456 293 l 449 290 q 463 274 456 281 q 481 263 471 267 l 564 263 q 572 260 568 261 q 581 257 576 258 q 589 260 585 258 q 597 263 593 261 l 585 263 q 617 290 604 271 l 546 290 l 550 297 l 554 297 q 560 311 557 303 l 571 311 q 575 332 575 322 l 563 332 l 563 353 l 556 353 q 554 363 556 358 q 550 374 553 368 l 549 374 q 542 388 546 381 l 536 388 q 517 408 529 399 l 528 408 q 517 415 524 414 l 521 415 q 501 422 511 419 q 479 425 490 425 q 453 422 464 425 q 433 415 442 419 l 440 415 l 428 408 l 426 408 q 410 397 417 403 q 394 392 404 392 l 118 392 q 92 408 101 392 l 93 408 l 90 415 l 85 415 q 83 422 83 418 l 85 429 l 90 429 l 92 436 l 83 436 l 85 450 l 104 450 l 106 464 l 94 464 l 94 471 l 90 471 l 92 485 l 85 485 l 86 499 l 94 499 l 97 519 l 110 519 l 111 526 l 100 526 l 101 533 l 96 533 l 97 547 l 104 547 l 107 575 l 29 575 l 35 631 l 161 631 l 163 644 l 150 644 l 150 651 l 31 651 l 31 658 l 113 658 l 114 672 l 103 672 l 106 693 l 86 693 l 88 700 l 46 700 l 47 721 l 100 721 l 101 735 l 107 735 l 110 756 l 106 756 l 107 769 l 122 769 l 122 776 l 139 776 l 140 783 l 150 783 l 154 811 l 115 811 l 118 839 l 131 839 l 133 860 l 132 860 l 138 915 l 135 915 l 135 922 l 139 922 l 139 925 q 142 936 139 931 l 154 936 q 158 944 157 940 q 161 950 160 947 l 142 950 q 188 972 158 972 l 808 972 q 843 950 833 972 l 861 950 q 865 936 865 944 l 851 936 l 851 922 l 847 922 l 847 915 l 851 915 l 851 860 l 853 860 l 853 839 l 840 839 l 840 811 l 879 811 l 879 783 l 868 783 l 868 776 l 851 776 l 851 769 l 836 769 l 836 756 l 842 756 l 842 739 q 840 735 842 736 l 835 735 q 831 721 835 728 l 778 721 q 744 701 768 701 l 339 701 l 339 700 l 382 700 l 381 693 l 400 693 l 397 672 l 408 672 l 407 658 l 325 658 l 324 651 l 444 651 l 444 644 l 531 644 q 615 650 563 650 q 646 649 631 650 q 675 644 661 647 l 590 644 q 617 639 604 643 q 642 631 629 635 l 625 631 q 686 603 656 621 q 726 575 706 590 l 806 575 q 821 562 813 569 q 836 547 829 554 l 831 547 l 843 533 l 849 533 q 851 531 850 532 q 854 526 853 529 l 865 526 q 868 524 867 525 q 871 519 869 522 l 857 519 q 865 509 861 514 q 872 499 869 504 l 864 499 q 869 492 867 496 q 874 485 871 488 l 881 485 l 889 471 l 893 471 l 897 464 l 908 464 l 914 450 l 894 450 q 899 443 897 447 q 901 436 900 439 l 910 436 q 913 429 910 435 l 906 429 l 910 415 l 907 415 q 908 408 907 411 l 897 408 l 901 388 l 908 388 l 910 374 l 913 374 q 913 363 913 368 q 914 353 914 358 l 921 353 l 921 332 l 933 332 l 933 311 l 922 311 q 921 304 921 308 q 921 297 921 300 l 915 297 l 915 290 l 986 290 q 984 276 985 283 q 981 263 983 269 l 994 263 q 994 260 994 261 q 993 256 993 258 m 376 631 l 329 631 l 326 603 q 351 618 339 611 q 376 631 364 625 m 550 256 l 513 256 q 523 254 518 254 q 533 254 528 254 q 542 254 538 254 q 550 256 546 254 z "},"6":{"ha":961,"x_min":-60,"x_max":993,"o":"m 993 311 l 783 311 q 782 304 782 308 q 781 297 782 300 l 889 297 q 887 283 888 290 q 883 269 886 276 l 922 269 l 918 256 l 922 256 q 922 253 922 254 q 921 249 921 251 l 910 249 q 900 221 906 233 l 885 221 l 879 207 l 931 207 q 915 179 925 193 l 938 179 l 933 172 l 883 172 l 874 158 l 857 158 l 840 138 l 854 138 q 849 131 850 133 l 829 131 l 808 110 l 840 110 q 829 99 835 104 q 817 89 824 94 l 742 89 l 714 68 l 706 68 q 658 40 685 54 l 713 40 q 682 26 700 33 q 673 24 678 25 q 664 19 668 22 l 669 19 q 615 3 643 10 q 557 -8 588 -4 l 571 -8 q 531 -12 551 -11 q 488 -14 510 -14 q 442 -12 464 -14 q 397 -8 419 -11 l 383 -8 q 321 3 351 -4 q 263 19 290 10 l 257 19 q 248 24 253 22 q 239 26 243 25 q 208 40 221 33 l 154 40 q 106 68 131 51 l 113 68 q 99 78 106 74 q 85 89 92 83 l 160 89 l 136 110 l 106 110 l 85 131 l 104 131 q 101 135 103 133 q 99 138 100 136 l 86 138 l 69 158 l 88 158 q 83 165 85 161 q 78 172 81 169 l 128 172 l 124 179 l 101 179 q 94 193 97 186 q 88 207 90 200 l 36 207 q 33 214 35 210 q 31 221 32 218 l 44 221 q 40 235 43 228 q 35 249 38 242 l 46 249 l 43 256 l 39 256 q 38 263 38 258 q 36 269 38 267 l -37 269 q -40 283 -39 276 q -43 297 -42 290 l -17 297 q -18 304 -18 300 q -18 311 -18 308 l 51 311 l 51 318 l 33 318 l 33 339 l -60 339 l -60 360 l -3 360 q -1 367 -1 363 l 29 367 l 29 374 l 31 374 q 31 384 31 379 q 33 394 32 389 l 43 394 q 44 401 43 399 l 53 401 q 56 412 54 407 q 58 422 57 417 l 33 422 l 38 436 l 74 436 q 76 443 76 442 l 49 443 q 51 450 50 446 q 54 457 53 454 l 40 457 q 46 471 43 464 q 51 485 49 478 l -28 485 q -23 495 -25 490 q -18 506 -21 500 l 0 506 q 7 519 3 513 l 89 519 l 93 526 l 88 526 l 100 547 l 121 547 l 133 568 l 117 568 q 126 583 122 575 q 135 596 131 590 l 128 596 q 133 603 129 599 l 129 603 l 139 617 l 135 617 q 143 628 139 624 q 150 638 147 633 l 153 638 q 161 649 158 646 l 168 658 l 140 658 l 151 672 l 208 672 l 218 686 l 228 686 l 244 707 l 213 707 l 233 735 l 236 735 l 240 742 l 236 742 l 240 749 l 243 749 l 253 763 l 236 763 l 253 783 l 235 783 l 240 790 l 265 790 l 286 818 l 407 818 l 418 832 l 389 832 l 400 846 l 390 846 l 401 860 l 368 860 l 390 888 l 378 888 l 399 915 l 365 915 l 376 929 l 378 929 l 389 943 l 388 943 l 389 944 q 397 954 392 949 q 410 964 403 960 l 408 964 q 424 969 415 967 q 442 972 432 972 l 721 972 q 742 964 733 972 l 743 964 q 753 943 753 954 l 753 942 q 751 929 753 932 l 749 929 q 746 924 749 926 l 740 915 l 772 915 l 751 888 l 765 888 l 743 860 l 776 860 l 765 846 l 775 846 l 765 832 l 793 832 l 782 818 l 663 818 l 640 790 l 615 790 l 611 783 l 628 783 l 613 763 l 629 763 l 619 749 l 617 749 l 613 742 l 617 742 l 613 735 l 610 735 l 589 707 l 621 707 l 610 692 l 619 692 q 638 690 628 690 q 657 686 647 689 l 646 686 q 672 681 658 685 q 699 672 685 676 l 642 672 q 659 666 650 669 q 678 658 668 663 l 706 658 q 747 638 726 650 l 746 638 l 779 617 l 783 617 q 793 610 789 614 q 803 603 797 606 l 806 603 q 810 600 808 601 q 815 596 813 599 l 822 596 q 838 583 829 590 q 853 568 846 575 l 869 568 l 888 547 l 867 547 q 875 537 871 542 q 882 526 879 532 l 888 526 l 892 519 l 810 519 l 818 506 l 800 506 q 806 495 803 500 q 811 485 810 490 l 890 485 l 903 457 l 917 457 l 921 443 l 949 443 q 951 436 951 438 l 949 436 l 953 422 l 954 422 q 958 401 958 413 l 894 401 l 894 394 l 929 394 q 931 384 931 389 q 932 374 931 379 l 931 374 l 931 367 l 926 367 l 926 360 l 942 360 l 942 339 l 969 339 q 969 328 969 333 q 968 318 968 324 l 993 318 l 993 311 m 526 297 l 418 297 q 422 303 421 300 q 425 311 424 307 l 635 311 q 635 315 635 314 q 636 318 636 317 l 611 318 q 615 339 615 329 l 588 339 l 588 360 l 571 360 l 571 367 l 575 367 q 574 374 575 371 l 575 374 q 572 384 574 379 q 567 394 569 389 l 532 394 l 528 401 l 592 401 q 571 422 583 414 l 568 422 q 550 431 560 428 q 529 436 540 435 l 532 436 q 523 438 528 438 q 513 438 518 438 q 503 438 508 438 q 494 436 499 438 l 457 436 q 437 431 447 435 q 418 422 426 428 l 443 422 q 421 401 432 415 l 413 401 l 408 394 l 399 394 q 390 374 393 385 l 389 374 q 388 367 389 369 l 357 367 l 357 360 l 299 360 l 299 339 l 392 339 q 392 328 392 333 q 394 318 393 324 l 413 318 q 415 311 413 317 l 344 311 q 349 303 347 307 q 351 297 350 300 l 326 297 q 356 269 338 279 l 431 269 q 482 257 451 257 q 535 269 513 257 l 496 269 q 526 297 513 279 z "},"7":{"ha":868,"x_min":19,"x_max":978,"o":"m 976 735 l 832 735 q 831 732 832 733 q 831 728 831 731 l 957 728 q 954 717 956 722 q 951 707 953 713 l 858 707 l 850 686 l 817 686 q 815 683 815 685 q 814 681 815 682 l 814 679 l 785 679 l 778 665 l 735 665 l 731 658 l 810 658 l 807 651 l 819 651 l 817 644 l 696 644 l 686 624 l 718 624 l 713 610 l 772 610 l 763 589 l 765 589 l 753 561 l 757 561 l 744 533 l 746 533 l 739 519 l 742 519 l 732 499 l 718 499 l 708 478 l 719 478 l 706 450 l 765 450 l 758 436 l 744 436 l 742 429 l 729 429 l 722 415 l 646 415 l 633 388 l 708 388 l 699 367 l 681 367 l 667 339 l 654 339 l 644 318 l 639 318 l 629 297 l 636 297 l 629 283 l 628 283 l 625 276 l 578 276 l 575 269 l 597 269 l 588 249 l 596 249 l 592 242 l 607 242 l 604 235 l 610 235 l 600 214 l 606 214 l 592 186 l 583 186 l 574 165 l 546 165 l 543 158 l 569 158 l 560 138 l 563 138 l 549 110 l 543 96 l 528 96 l 518 75 l 540 75 l 535 61 l 553 61 l 549 54 l 490 54 l 483 40 l 522 40 l 518 33 l 511 33 l 511 32 q 501 19 508 26 q 482 6 494 11 q 469 2 476 4 q 454 0 463 0 l 186 0 q 168 6 175 0 q 156 31 156 15 l 156 33 l 163 33 q 164 40 163 39 l 125 40 q 126 42 125 42 q 126 43 126 42 l 132 54 l 192 54 l 194 61 l 176 61 l 183 75 l 160 75 l 169 96 l 185 96 l 192 110 l 204 138 l 201 138 l 211 158 l 185 158 l 188 165 l 215 165 l 225 186 l 233 186 l 247 214 l 242 214 l 251 235 l 246 235 l 249 242 l 235 242 l 238 249 l 229 249 l 239 269 l 217 269 l 219 276 l 267 276 l 269 283 l 271 283 l 278 297 l 271 297 l 281 318 l 286 318 l 296 339 l 308 339 l 322 367 l 340 367 l 350 388 l 274 388 l 288 415 l 364 415 l 371 429 l 383 429 l 386 436 l 400 436 l 406 450 l 347 450 l 361 478 l 350 478 l 360 499 l 374 499 l 383 519 l 381 519 l 386 533 l 385 533 l 399 561 l 394 561 l 407 589 l 404 589 l 414 610 l 353 610 l 360 624 l 328 624 l 338 644 l 457 644 l 461 651 l 447 651 l 451 658 l 372 658 l 375 665 l 419 665 l 426 679 l 454 679 l 458 686 l 492 686 l 492 688 l 110 688 q 76 707 89 688 l 169 707 q 165 725 165 715 l 165 728 l 40 728 l 40 735 l 185 735 l 185 742 l 119 742 l 119 769 l 64 769 l 64 776 l 39 776 l 39 783 l 19 783 l 19 790 l 21 790 l 21 797 l 39 797 l 39 811 l 58 811 l 58 832 l 43 832 l 43 846 l 39 846 l 39 860 l 44 860 l 44 881 l 36 881 l 36 888 l 31 888 l 31 915 l 47 915 l 47 929 l 38 929 l 38 935 q 44 957 38 947 l 46 957 q 76 972 57 972 l 794 972 q 825 957 814 972 l 824 957 q 831 935 831 947 l 831 929 l 840 929 l 840 915 l 824 915 l 824 888 l 829 888 l 829 881 l 838 881 l 838 860 l 832 860 l 832 846 l 836 846 l 836 832 l 851 832 l 851 811 l 832 811 l 832 797 l 814 797 l 814 790 l 813 790 l 813 783 l 832 783 l 832 776 l 857 776 l 857 769 l 913 769 l 913 742 l 978 742 q 976 735 978 738 z "},"8":{"ha":989,"x_min":-162,"x_max":1074,"o":"m 932 221 l 1074 221 q 1064 193 1069 206 l 931 193 q 926 183 928 188 q 921 172 924 178 l 908 172 q 901 158 906 165 q 892 144 897 151 l 871 144 q 864 134 868 139 q 856 124 860 129 l 872 124 q 860 110 867 117 q 846 96 853 103 l 875 96 l 867 89 l 856 89 q 838 75 846 82 q 818 61 829 68 l 806 61 q 794 54 800 58 q 782 47 789 50 l 804 47 q 774 33 790 40 q 740 19 758 26 l 807 19 q 749 3 781 10 q 682 -8 718 -4 l 715 -8 q 668 -12 693 -11 q 615 -14 643 -14 q 564 -12 589 -14 q 515 -8 539 -11 l 482 -8 q 416 3 447 -4 q 357 19 385 10 l 290 19 q 257 33 272 26 q 226 47 242 39 l 204 47 l 182 61 l 194 61 q 175 75 185 68 q 157 89 165 82 l 169 89 q 166 93 168 92 q 163 96 164 94 l 133 96 q 120 110 126 103 q 107 124 114 117 l 90 124 q 82 134 86 129 q 75 144 78 139 l 96 144 q 88 158 92 151 q 81 172 83 165 l 92 172 q 88 183 90 178 q 82 193 85 188 l 217 193 q 207 221 211 206 l 68 221 l 61 249 l 63 249 q 61 256 63 253 l 54 256 q 52 266 53 261 q 51 276 51 271 l 10 276 q 10 287 10 282 q 8 297 10 292 l 21 297 l 21 304 l 86 304 l 86 318 l 69 318 l 69 332 l 10 332 l 14 353 l -64 353 q -63 357 -64 356 q -62 360 -62 358 l 57 360 l 65 388 l 121 388 q 133 415 125 403 l 31 415 l 35 422 l 138 422 q 157 450 146 436 l 63 450 q 68 457 67 454 l 168 457 q 181 472 174 464 q 193 485 188 479 l 67 485 q 75 492 71 489 q 83 499 79 496 l 213 499 q 223 506 218 503 q 233 513 228 510 l 236 513 q 238 513 238 513 q 239 514 238 514 q 215 533 226 522 l 133 533 l 121 547 l 150 547 q 140 561 144 554 q 131 575 135 568 l 149 575 q 141 589 144 582 q 135 603 138 596 l 129 603 q 126 610 129 604 l 103 610 l 100 617 l 115 617 q 113 627 114 622 q 110 638 111 632 l 111 638 q 110 644 110 640 l 94 644 q 90 672 90 657 l 97 672 q 97 683 97 678 q 96 694 96 689 l 97 700 l 74 700 l 74 714 l 42 714 l 42 721 l -106 721 q -104 728 -104 724 q -104 735 -104 732 l -162 735 l -158 756 l 211 756 q 215 766 214 761 q 217 776 215 771 l 78 776 q 82 787 81 782 q 85 797 83 792 l 168 797 q 172 804 171 800 q 175 811 174 808 l 158 811 q 174 839 164 825 l 101 839 l 106 846 l -92 846 q -81 860 -86 853 q -69 874 -75 868 l -82 874 q -74 881 -78 876 q -68 888 -71 885 l 206 888 l 222 901 l 181 901 l 189 908 l 163 908 l 183 922 l 213 922 q 239 937 225 929 q 268 950 253 944 l 396 950 q 503 978 444 969 l 525 978 q 643 986 578 986 q 760 978 708 986 l 739 978 q 796 967 769 974 q 844 950 822 960 l 717 950 q 774 922 746 938 l 744 922 l 765 908 l 792 908 l 800 901 l 843 901 q 851 894 847 899 q 858 888 856 890 l 585 888 q 592 881 589 885 q 599 874 596 876 l 611 874 q 623 860 618 868 q 633 846 628 853 l 831 846 l 835 839 l 907 839 q 922 811 917 825 l 939 811 q 942 804 940 808 q 944 797 943 800 l 861 797 q 865 787 864 792 q 868 776 867 782 l 1007 776 q 1010 766 1008 771 q 1013 756 1011 761 l 642 756 l 646 735 l 735 735 q 736 728 736 732 q 736 721 736 724 l 722 721 l 722 714 l 785 714 l 785 700 l 900 700 l 900 697 q 900 685 900 692 q 899 672 900 679 l 896 672 q 895 658 896 665 q 893 644 894 651 l 894 644 q 893 638 894 640 l 938 638 q 935 627 936 632 q 932 617 935 622 l 899 617 l 896 610 l 878 610 l 875 603 l 914 603 q 901 575 910 588 l 883 575 q 875 561 879 568 q 864 547 871 554 l 836 547 l 824 533 l 904 533 q 894 523 900 528 q 883 514 889 518 q 884 513 883 514 q 886 513 885 513 l 883 513 q 894 506 889 510 q 906 499 900 503 l 776 499 q 794 485 788 493 l 921 485 q 947 457 938 471 l 849 457 q 854 450 853 453 l 947 450 q 957 437 953 444 q 965 422 961 429 l 861 422 l 865 415 l 967 415 q 979 388 975 403 l 924 388 q 928 374 926 382 q 932 360 931 367 l 869 360 q 871 353 869 356 l 868 353 q 869 342 869 347 q 871 332 869 338 l 913 332 q 913 325 913 329 q 914 318 913 321 l 931 318 l 931 304 l 946 304 l 946 297 l 940 297 q 940 287 940 292 q 939 276 939 282 l 885 276 q 883 266 883 271 q 882 256 883 261 l 932 256 q 931 249 931 253 l 938 249 q 935 235 936 242 q 932 221 935 228 m 229 721 l 376 721 l 372 714 l 397 714 l 393 721 l 407 721 q 400 728 404 725 q 392 735 396 732 l 303 735 q 244 751 281 751 q 186 735 207 751 l 244 735 q 236 728 240 732 q 229 721 232 725 m 478 610 q 490 606 483 608 q 503 603 496 604 l 506 603 q 519 606 513 604 q 531 610 525 608 l 549 610 q 563 617 554 611 l 596 617 q 617 638 608 625 l 574 638 q 576 644 576 643 l 575 644 q 582 672 582 658 l 585 672 l 585 676 q 581 700 585 690 l 465 700 q 458 714 464 706 l 404 714 q 401 708 403 711 q 397 700 400 704 l 421 700 q 417 676 417 690 q 417 674 417 675 q 418 672 418 674 l 410 672 q 413 658 411 665 q 417 644 414 651 l 432 644 l 436 638 q 456 617 442 626 l 440 617 q 454 610 449 611 l 478 610 m 526 601 q 544 603 539 601 l 507 603 q 516 601 511 601 q 526 601 521 601 m 422 249 q 481 221 443 225 l 517 221 q 574 249 554 225 l 567 249 q 569 253 568 251 q 572 256 571 254 l 522 256 q 533 276 529 265 l 588 276 l 592 297 l 597 297 l 597 304 l 582 304 q 582 311 582 307 q 581 318 582 315 l 564 318 l 560 332 l 518 332 q 506 353 514 344 l 508 353 q 506 357 507 356 q 501 360 504 358 l 565 360 q 493 383 538 383 q 421 360 449 383 l 301 360 q 299 357 300 358 q 294 353 297 356 l 372 353 q 360 332 364 344 l 419 332 l 415 318 l 433 318 l 432 304 l 367 304 l 367 297 l 356 297 q 356 287 356 292 q 358 276 357 282 l 400 276 q 410 256 401 267 l 418 256 q 424 249 419 253 l 422 249 m 658 221 l 619 221 q 628 219 624 219 q 639 219 633 219 q 649 219 644 219 q 658 221 654 219 z "},"9":{"ha":949,"x_min":-71,"x_max":1039,"o":"m 1021 589 l 1039 589 q 1037 575 1038 582 q 1033 561 1036 568 l 939 561 q 936 551 938 556 q 932 540 935 546 l 901 540 l 896 526 l 889 526 q 887 519 888 524 q 883 513 886 515 l 896 513 q 893 506 896 511 l 901 506 q 899 499 901 504 l 885 499 q 881 488 883 493 q 875 478 878 483 l 871 478 l 863 464 l 876 464 q 869 450 872 457 l 882 450 l 869 429 l 865 429 q 859 419 863 424 q 851 408 856 414 l 835 408 l 819 388 l 828 388 q 823 381 825 385 q 818 374 821 376 l 831 374 l 810 346 l 767 346 q 761 339 764 343 q 756 332 758 335 l 790 332 q 785 325 788 329 q 779 318 782 321 l 774 318 l 753 290 l 776 290 q 772 283 775 288 q 767 276 769 279 l 657 276 q 654 272 657 275 l 636 249 l 675 249 l 665 235 l 664 235 l 643 207 l 568 207 l 551 186 l 639 186 l 618 158 l 626 158 l 621 151 l 565 151 l 550 131 l 661 131 l 640 103 l 551 103 l 536 82 l 567 82 l 551 61 l 569 61 l 560 47 l 544 28 l 544 26 l 539 26 l 532 19 l 546 19 q 526 6 540 13 l 529 6 q 517 2 524 4 q 503 0 511 0 l 224 0 q 206 6 213 0 l 201 6 q 192 19 194 11 l 178 19 q 176 26 176 22 l 182 26 q 181 28 182 28 q 181 31 181 29 q 186 47 181 39 l 186 49 l 196 61 l 178 61 l 193 82 l 163 82 l 178 103 l 267 103 l 288 131 l 175 131 l 192 151 l 246 151 l 251 158 l 243 158 l 264 186 l 178 186 l 193 207 l 269 207 l 290 235 l 301 249 l 263 249 l 283 276 l 393 276 l 403 290 l 379 290 l 381 292 q 369 293 374 292 q 320 302 346 296 q 267 318 294 308 l 272 318 q 256 324 265 321 q 240 332 247 328 l 206 332 q 193 338 200 335 q 179 346 186 342 l 222 346 q 179 374 199 360 l 167 374 q 157 381 161 376 q 149 388 153 385 l 140 388 l 118 408 l 136 408 q 126 419 131 414 q 117 429 121 424 l 121 429 l 104 450 l 90 450 l 82 464 l 68 464 l 60 478 l 64 478 l 53 499 l 67 499 q 64 506 67 500 l 56 506 l 53 513 l 40 513 l 35 526 l 42 526 l 38 540 l 31 540 q 28 551 29 546 q 25 561 26 556 l -18 561 l -22 589 l 44 589 q 44 603 44 596 q 43 617 43 610 l -33 617 l -33 631 l 38 631 l 38 644 l 49 644 l 49 651 l 15 651 q 17 662 17 657 q 18 672 17 667 l -4 672 q -1 686 -3 679 q 1 700 0 693 l 90 700 q 93 710 92 706 q 96 721 94 715 l -60 721 q -57 728 -58 724 q -54 735 -56 732 l 118 735 q 122 742 121 738 q 124 749 122 746 l 79 749 q 83 756 82 751 q 85 763 83 760 l -71 763 q -66 773 -68 768 q -61 783 -64 778 l 179 783 l 188 797 l 219 797 q 228 812 224 804 q 238 825 232 819 l 201 825 q 207 832 204 828 q 213 839 210 836 l 135 839 q 148 853 142 846 q 160 867 154 861 l 103 867 q 135 894 118 882 l 231 894 q 236 899 233 897 q 240 901 239 900 l 94 901 l 115 915 l 100 915 q 126 930 113 922 q 153 943 139 938 l 297 943 q 306 947 301 946 q 314 950 310 949 l 236 950 l 256 957 l 281 957 q 368 978 321 971 q 468 986 415 986 q 672 957 585 986 l 647 957 q 658 954 653 956 q 668 950 663 953 l 744 950 q 754 947 750 949 q 763 943 758 946 l 618 943 q 647 930 633 938 q 672 915 660 922 l 688 915 q 699 908 694 913 q 710 901 704 904 l 854 901 q 860 899 857 900 q 864 894 863 897 l 768 894 q 800 867 785 882 l 857 867 q 882 839 871 856 l 960 839 q 965 832 963 836 q 971 825 968 828 l 1006 825 q 1015 812 1011 819 q 1024 797 1019 804 l 992 797 q 996 790 994 794 q 999 783 997 786 l 758 783 l 767 763 l 924 763 l 929 749 l 974 749 l 978 735 l 804 735 l 808 721 l 963 721 l 967 700 l 947 700 l 951 672 l 933 672 q 935 662 935 667 q 935 651 935 657 l 919 651 l 919 644 l 958 644 l 958 617 l 1025 617 l 1021 589 m 569 561 l 664 561 q 679 589 676 575 l 661 589 q 665 603 664 596 q 667 617 667 610 l 600 617 l 600 631 l 599 644 l 560 644 q 559 649 560 647 q 558 651 558 650 l 574 651 q 571 662 572 657 q 567 672 569 667 l 585 672 q 574 688 579 681 q 560 700 568 694 l 579 700 q 525 715 556 715 q 469 700 493 715 l 382 700 q 368 688 374 694 q 357 672 363 681 l 379 672 q 376 662 378 667 q 372 651 374 657 l 404 651 q 403 644 404 647 l 393 644 q 392 638 392 642 q 392 631 392 633 l 321 631 l 321 617 l 397 617 q 400 603 399 610 q 403 589 401 596 l 336 589 q 351 561 339 575 l 394 561 q 426 540 407 547 l 435 540 q 469 535 447 535 q 506 540 490 535 l 538 540 q 569 561 557 547 z "},"A":{"ha":1049,"x_min":-1,"x_max":1092,"o":"m 1065 75 l 1075 47 l 1051 47 l 1054 40 q 1055 37 1054 39 q 1056 33 1056 35 l 1047 33 l 1047 31 q 1035 6 1047 14 l 1036 6 q 1018 0 1029 0 l 761 0 q 745 2 751 0 q 732 6 739 4 q 715 19 721 11 q 707 33 710 26 l 714 33 l 714 35 l 711 40 l 708 47 l 732 47 l 722 75 l 696 75 l 692 89 l 749 89 l 739 117 l 722 117 l 718 126 l 419 126 l 417 117 l 400 117 l 390 89 l 375 89 l 369 75 l 361 75 l 351 47 l 353 47 l 350 40 l 349 35 l 347 33 l 340 33 q 332 19 338 26 q 315 6 326 11 l 357 6 q 344 2 351 4 q 328 0 338 0 l 71 0 q 54 6 60 0 l 13 6 q -1 31 -1 15 l -1 33 l 7 33 q 8 40 7 38 l 10 47 l 8 47 l 18 75 l 26 75 l 32 89 l 47 89 l 57 117 l 72 117 l 82 144 l 28 144 l 33 158 l 29 158 l 36 179 l 50 179 l 53 186 l 22 186 l 32 214 l 79 214 l 83 228 l 40 228 l 43 235 l 50 235 l 60 263 l 56 263 l 63 283 l 68 283 l 78 311 l 96 311 l 103 332 l 106 339 l 175 339 l 178 346 l 174 346 l 181 367 l 103 367 l 113 394 l 138 394 l 140 401 l 125 401 l 128 408 l 172 408 l 182 436 l 128 436 l 133 450 l 154 450 l 164 478 l 151 478 l 158 499 l 174 499 l 183 526 l 179 526 l 182 533 l 150 533 l 156 547 l 186 547 l 193 568 l 179 568 l 181 575 l 206 575 l 215 603 l 185 603 l 192 624 l 176 624 l 181 638 l 85 638 l 89 651 l 71 651 l 81 679 l 63 679 l 71 700 l 125 700 l 135 728 l 274 728 l 281 749 l 214 749 l 219 763 l 271 763 l 281 790 l 235 790 l 242 811 l 271 811 l 281 839 l 276 839 l 286 867 l 247 867 l 249 874 l 382 874 l 392 901 l 388 901 l 390 908 l 342 908 l 347 926 l 351 936 l 365 936 l 374 950 l 369 950 q 389 966 376 960 q 419 972 401 972 l 721 972 q 751 966 739 972 q 771 950 764 960 l 776 950 l 785 936 l 771 936 q 774 926 774 931 l 781 908 l 829 908 l 831 901 l 835 901 l 844 874 l 713 874 l 715 867 l 754 867 l 764 839 l 768 839 l 778 811 l 749 811 l 756 790 l 801 790 l 811 763 l 760 763 l 765 749 l 832 749 l 839 728 l 700 728 l 710 700 l 656 700 l 663 679 l 679 679 l 689 651 l 635 651 l 640 638 l 861 638 l 865 624 l 854 624 l 861 603 l 833 603 l 843 575 l 810 575 l 811 568 l 861 568 l 868 547 l 869 547 l 875 533 l 829 533 l 832 526 l 876 526 l 886 499 l 901 499 l 908 478 l 904 478 l 914 450 l 936 450 l 942 436 l 901 436 l 911 408 l 939 408 l 940 401 l 933 401 l 936 394 l 911 394 l 919 367 l 999 367 l 1006 346 l 1010 346 l 1013 339 l 942 339 l 944 332 l 946 332 l 953 311 l 935 311 l 944 283 l 938 283 l 946 263 l 950 263 l 960 235 l 953 235 l 956 228 l 999 228 l 1004 214 l 956 214 l 965 186 l 996 186 l 999 179 l 985 179 l 993 158 l 996 158 l 1001 144 l 1056 144 l 1065 117 l 1082 117 l 1092 89 l 1035 89 l 1039 75 l 1065 75 m 485 624 l 501 624 l 494 603 l 551 603 l 544 624 l 556 624 l 551 638 l 489 638 l 485 624 m 531 575 l 524 599 l 517 575 l 531 575 m 447 408 l 444 401 l 460 401 l 458 397 l 615 397 l 614 401 l 621 401 l 619 408 l 592 408 l 583 436 l 624 436 l 619 450 l 596 450 l 588 478 l 592 478 l 586 499 l 571 499 l 563 526 l 518 526 l 515 533 l 561 533 l 557 547 l 556 547 l 549 568 l 504 568 l 499 547 l 468 547 l 464 533 l 494 533 l 493 526 l 497 526 l 489 499 l 474 499 l 467 478 l 479 478 l 471 450 l 450 450 l 446 436 l 500 436 l 492 408 l 447 408 z "},"Á":{"ha":1049,"x_min":-1,"x_max":1092,"o":"m 1065 75 l 1075 47 l 1051 47 l 1054 40 q 1055 37 1054 39 q 1056 33 1056 35 l 1047 33 l 1047 31 q 1035 6 1047 14 l 1036 6 q 1018 0 1029 0 l 761 0 q 745 2 751 0 q 732 6 739 4 q 715 19 721 11 q 707 33 710 26 l 714 33 l 714 35 l 711 40 l 708 47 l 732 47 l 722 75 l 696 75 l 692 89 l 749 89 l 739 117 l 722 117 l 718 126 l 419 126 l 417 117 l 400 117 l 390 89 l 375 89 l 369 75 l 361 75 l 351 47 l 353 47 l 350 40 l 349 35 l 347 33 l 340 33 q 332 19 338 26 q 315 6 326 11 l 357 6 q 344 2 351 4 q 328 0 338 0 l 71 0 q 54 6 60 0 l 13 6 q -1 31 -1 15 l -1 33 l 7 33 q 8 40 7 38 l 10 47 l 8 47 l 18 75 l 26 75 l 32 89 l 47 89 l 57 117 l 72 117 l 82 144 l 28 144 l 33 158 l 29 158 l 36 179 l 50 179 l 53 186 l 22 186 l 32 214 l 79 214 l 83 228 l 40 228 l 43 235 l 50 235 l 60 263 l 56 263 l 63 283 l 68 283 l 78 311 l 96 311 l 103 332 l 106 339 l 175 339 l 178 346 l 174 346 l 181 367 l 103 367 l 113 394 l 138 394 l 140 401 l 125 401 l 128 408 l 172 408 l 182 436 l 128 436 l 133 450 l 154 450 l 164 478 l 151 478 l 158 499 l 174 499 l 183 526 l 179 526 l 182 533 l 150 533 l 156 547 l 186 547 l 193 568 l 179 568 l 181 575 l 206 575 l 215 603 l 185 603 l 192 624 l 176 624 l 181 638 l 85 638 l 89 651 l 71 651 l 81 679 l 63 679 l 71 700 l 125 700 l 135 728 l 274 728 l 281 749 l 214 749 l 219 763 l 271 763 l 281 790 l 235 790 l 242 811 l 271 811 l 281 839 l 276 839 l 286 867 l 247 867 l 249 874 l 382 874 l 392 901 l 388 901 l 390 908 l 342 908 l 347 926 l 351 936 l 365 936 l 374 950 l 369 950 q 389 966 376 960 q 419 972 401 972 l 721 972 q 751 966 739 972 q 771 950 764 960 l 776 950 l 785 936 l 771 936 q 774 926 774 931 l 781 908 l 829 908 l 831 901 l 835 901 l 844 874 l 713 874 l 715 867 l 754 867 l 764 839 l 768 839 l 778 811 l 749 811 l 756 790 l 801 790 l 811 763 l 760 763 l 765 749 l 832 749 l 839 728 l 700 728 l 710 700 l 656 700 l 663 679 l 679 679 l 689 651 l 635 651 l 640 638 l 861 638 l 865 624 l 854 624 l 861 603 l 833 603 l 843 575 l 810 575 l 811 568 l 861 568 l 868 547 l 869 547 l 875 533 l 829 533 l 832 526 l 876 526 l 886 499 l 901 499 l 908 478 l 904 478 l 914 450 l 936 450 l 942 436 l 901 436 l 911 408 l 939 408 l 940 401 l 933 401 l 936 394 l 911 394 l 919 367 l 999 367 l 1006 346 l 1010 346 l 1013 339 l 942 339 l 944 332 l 946 332 l 953 311 l 935 311 l 944 283 l 938 283 l 946 263 l 950 263 l 960 235 l 953 235 l 956 228 l 999 228 l 1004 214 l 956 214 l 965 186 l 996 186 l 999 179 l 985 179 l 993 158 l 996 158 l 1001 144 l 1056 144 l 1065 117 l 1082 117 l 1092 89 l 1035 89 l 1039 75 l 1065 75 m 485 624 l 501 624 l 494 603 l 551 603 l 544 624 l 556 624 l 551 638 l 489 638 l 485 624 m 531 575 l 524 599 l 517 575 l 531 575 m 447 408 l 444 401 l 460 401 l 458 397 l 615 397 l 614 401 l 621 401 l 619 408 l 592 408 l 583 436 l 624 436 l 619 450 l 596 450 l 588 478 l 592 478 l 586 499 l 571 499 l 563 526 l 518 526 l 515 533 l 561 533 l 557 547 l 556 547 l 549 568 l 504 568 l 499 547 l 468 547 l 464 533 l 494 533 l 493 526 l 497 526 l 489 499 l 474 499 l 467 478 l 479 478 l 471 450 l 450 450 l 446 436 l 500 436 l 492 408 l 447 408 m 786 1242 q 781 1233 783 1236 l 757 1214 l 842 1214 l 825 1200 l 807 1200 l 799 1193 l 814 1193 l 806 1186 l 779 1165 l 771 1158 l 774 1158 l 740 1131 l 747 1131 l 714 1103 l 704 1103 l 688 1089 l 683 1089 l 658 1068 l 650 1068 l 646 1065 q 633 1055 640 1060 q 619 1047 626 1050 l 603 1047 q 590 1044 597 1046 q 572 1042 582 1042 l 368 1042 q 353 1047 357 1042 l 368 1047 q 361 1064 361 1054 q 362 1066 361 1065 q 363 1068 363 1067 l 369 1068 q 376 1082 372 1078 l 382 1089 l 386 1089 l 397 1103 l 408 1103 l 431 1131 l 424 1131 l 446 1158 l 443 1158 l 465 1186 l 467 1186 l 472 1193 l 457 1193 l 463 1200 l 481 1200 l 492 1214 l 407 1214 l 429 1242 l 513 1242 l 521 1251 q 539 1269 531 1264 l 531 1269 q 563 1278 542 1278 l 835 1278 q 856 1269 850 1278 l 864 1269 q 871 1250 871 1263 q 870 1247 871 1249 q 869 1242 869 1244 l 786 1242 z "},"Ă":{"ha":1049,"x_min":-1,"x_max":1092,"o":"m 1065 75 l 1075 47 l 1051 47 l 1054 40 q 1055 37 1054 39 q 1056 33 1056 35 l 1047 33 l 1047 31 q 1035 6 1047 14 l 1036 6 q 1018 0 1029 0 l 761 0 q 745 2 751 0 q 732 6 739 4 q 715 19 721 11 q 707 33 710 26 l 714 33 l 714 35 l 711 40 l 708 47 l 732 47 l 722 75 l 696 75 l 692 89 l 749 89 l 739 117 l 722 117 l 718 126 l 419 126 l 417 117 l 400 117 l 390 89 l 375 89 l 369 75 l 361 75 l 351 47 l 353 47 l 350 40 l 349 35 l 347 33 l 340 33 q 332 19 338 26 q 315 6 326 11 l 357 6 q 344 2 351 4 q 328 0 338 0 l 71 0 q 54 6 60 0 l 13 6 q -1 31 -1 15 l -1 33 l 7 33 q 8 40 7 38 l 10 47 l 8 47 l 18 75 l 26 75 l 32 89 l 47 89 l 57 117 l 72 117 l 82 144 l 28 144 l 33 158 l 29 158 l 36 179 l 50 179 l 53 186 l 22 186 l 32 214 l 79 214 l 83 228 l 40 228 l 43 235 l 50 235 l 60 263 l 56 263 l 63 283 l 68 283 l 78 311 l 96 311 l 103 332 l 106 339 l 175 339 l 178 346 l 174 346 l 181 367 l 103 367 l 113 394 l 138 394 l 140 401 l 125 401 l 128 408 l 172 408 l 182 436 l 128 436 l 133 450 l 154 450 l 164 478 l 151 478 l 158 499 l 174 499 l 183 526 l 179 526 l 182 533 l 150 533 l 156 547 l 186 547 l 193 568 l 179 568 l 181 575 l 206 575 l 215 603 l 185 603 l 192 624 l 176 624 l 181 638 l 85 638 l 89 651 l 71 651 l 81 679 l 63 679 l 71 700 l 125 700 l 135 728 l 274 728 l 281 749 l 214 749 l 219 763 l 271 763 l 281 790 l 235 790 l 242 811 l 271 811 l 281 839 l 276 839 l 286 867 l 247 867 l 249 874 l 382 874 l 392 901 l 388 901 l 390 908 l 342 908 l 347 926 l 351 936 l 365 936 l 374 950 l 369 950 q 389 966 376 960 q 419 972 401 972 l 721 972 q 751 966 739 972 q 771 950 764 960 l 776 950 l 785 936 l 771 936 q 774 926 774 931 l 781 908 l 829 908 l 831 901 l 835 901 l 844 874 l 713 874 l 715 867 l 754 867 l 764 839 l 768 839 l 778 811 l 749 811 l 756 790 l 801 790 l 811 763 l 760 763 l 765 749 l 832 749 l 839 728 l 700 728 l 710 700 l 656 700 l 663 679 l 679 679 l 689 651 l 635 651 l 640 638 l 861 638 l 865 624 l 854 624 l 861 603 l 833 603 l 843 575 l 810 575 l 811 568 l 861 568 l 868 547 l 869 547 l 875 533 l 829 533 l 832 526 l 876 526 l 886 499 l 901 499 l 908 478 l 904 478 l 914 450 l 936 450 l 942 436 l 901 436 l 911 408 l 939 408 l 940 401 l 933 401 l 936 394 l 911 394 l 919 367 l 999 367 l 1006 346 l 1010 346 l 1013 339 l 942 339 l 944 332 l 946 332 l 953 311 l 935 311 l 944 283 l 938 283 l 946 263 l 950 263 l 960 235 l 953 235 l 956 228 l 999 228 l 1004 214 l 956 214 l 965 186 l 996 186 l 999 179 l 985 179 l 993 158 l 996 158 l 1001 144 l 1056 144 l 1065 117 l 1082 117 l 1092 89 l 1035 89 l 1039 75 l 1065 75 m 485 624 l 501 624 l 494 603 l 551 603 l 544 624 l 556 624 l 551 638 l 489 638 l 485 624 m 531 575 l 524 599 l 517 575 l 531 575 m 447 408 l 444 401 l 460 401 l 458 397 l 615 397 l 614 401 l 621 401 l 619 408 l 592 408 l 583 436 l 624 436 l 619 450 l 596 450 l 588 478 l 592 478 l 586 499 l 571 499 l 563 526 l 518 526 l 515 533 l 561 533 l 557 547 l 556 547 l 549 568 l 504 568 l 499 547 l 468 547 l 464 533 l 494 533 l 493 526 l 497 526 l 489 499 l 474 499 l 467 478 l 479 478 l 471 450 l 450 450 l 446 436 l 500 436 l 492 408 l 447 408 m 765 1200 l 781 1200 q 778 1190 779 1194 q 775 1179 778 1185 l 758 1179 l 750 1158 l 722 1158 q 718 1148 721 1153 q 713 1138 715 1143 l 725 1138 q 717 1124 721 1131 q 706 1110 713 1117 l 726 1110 q 720 1103 724 1107 q 713 1096 717 1099 l 675 1096 q 636 1068 661 1082 l 678 1068 q 672 1065 675 1067 q 664 1061 668 1064 l 674 1061 q 667 1058 671 1060 q 658 1054 663 1057 l 646 1054 q 622 1047 635 1050 q 596 1040 610 1043 q 564 1036 581 1038 q 529 1035 547 1035 q 494 1036 511 1035 q 463 1040 478 1038 q 435 1047 449 1043 q 411 1054 422 1050 l 422 1054 l 407 1061 l 397 1061 q 390 1065 393 1064 q 383 1068 386 1067 l 343 1068 q 304 1096 318 1082 l 343 1096 l 329 1110 l 310 1110 q 299 1124 304 1117 q 290 1138 294 1131 l 276 1138 q 272 1148 274 1143 q 267 1158 269 1153 l 293 1158 q 290 1169 292 1164 q 286 1179 289 1174 l 267 1179 l 263 1200 l 292 1200 q 289 1214 289 1208 l 288 1214 q 285 1228 286 1221 q 285 1242 285 1235 l 279 1242 l 279 1256 l 278 1256 q 303 1278 281 1278 l 440 1278 q 467 1256 464 1278 l 469 1256 l 469 1242 l 475 1242 q 479 1214 475 1226 l 481 1214 q 483 1206 482 1210 q 486 1200 485 1203 l 457 1200 q 479 1179 465 1185 l 499 1179 q 522 1175 510 1175 q 546 1179 536 1175 l 563 1179 q 585 1200 578 1185 l 569 1200 q 575 1214 572 1206 q 579 1242 579 1226 l 578 1242 l 578 1251 q 579 1256 578 1254 q 606 1278 582 1278 l 743 1278 q 769 1256 764 1278 l 768 1256 l 768 1242 l 769 1242 q 769 1228 769 1235 q 768 1214 769 1221 l 767 1214 l 765 1200 z "},"Â":{"ha":1049,"x_min":-1,"x_max":1092,"o":"m 1065 75 l 1075 47 l 1051 47 l 1054 40 q 1055 37 1054 39 q 1056 33 1056 35 l 1047 33 l 1047 31 q 1035 6 1047 14 l 1036 6 q 1018 0 1029 0 l 761 0 q 745 2 751 0 q 732 6 739 4 q 715 19 721 11 q 707 33 710 26 l 714 33 l 714 35 l 711 40 l 708 47 l 732 47 l 722 75 l 696 75 l 692 89 l 749 89 l 739 117 l 722 117 l 718 126 l 419 126 l 417 117 l 400 117 l 390 89 l 375 89 l 369 75 l 361 75 l 351 47 l 353 47 l 350 40 l 349 35 l 347 33 l 340 33 q 332 19 338 26 q 315 6 326 11 l 357 6 q 344 2 351 4 q 328 0 338 0 l 71 0 q 54 6 60 0 l 13 6 q -1 31 -1 15 l -1 33 l 7 33 q 8 40 7 38 l 10 47 l 8 47 l 18 75 l 26 75 l 32 89 l 47 89 l 57 117 l 72 117 l 82 144 l 28 144 l 33 158 l 29 158 l 36 179 l 50 179 l 53 186 l 22 186 l 32 214 l 79 214 l 83 228 l 40 228 l 43 235 l 50 235 l 60 263 l 56 263 l 63 283 l 68 283 l 78 311 l 96 311 l 103 332 l 106 339 l 175 339 l 178 346 l 174 346 l 181 367 l 103 367 l 113 394 l 138 394 l 140 401 l 125 401 l 128 408 l 172 408 l 182 436 l 128 436 l 133 450 l 154 450 l 164 478 l 151 478 l 158 499 l 174 499 l 183 526 l 179 526 l 182 533 l 150 533 l 156 547 l 186 547 l 193 568 l 179 568 l 181 575 l 206 575 l 215 603 l 185 603 l 192 624 l 176 624 l 181 638 l 85 638 l 89 651 l 71 651 l 81 679 l 63 679 l 71 700 l 125 700 l 135 728 l 274 728 l 281 749 l 214 749 l 219 763 l 271 763 l 281 790 l 235 790 l 242 811 l 271 811 l 281 839 l 276 839 l 286 867 l 247 867 l 249 874 l 382 874 l 392 901 l 388 901 l 390 908 l 342 908 l 347 926 l 351 936 l 365 936 l 374 950 l 369 950 q 389 966 376 960 q 419 972 401 972 l 721 972 q 751 966 739 972 q 771 950 764 960 l 776 950 l 785 936 l 771 936 q 774 926 774 931 l 781 908 l 829 908 l 831 901 l 835 901 l 844 874 l 713 874 l 715 867 l 754 867 l 764 839 l 768 839 l 778 811 l 749 811 l 756 790 l 801 790 l 811 763 l 760 763 l 765 749 l 832 749 l 839 728 l 700 728 l 710 700 l 656 700 l 663 679 l 679 679 l 689 651 l 635 651 l 640 638 l 861 638 l 865 624 l 854 624 l 861 603 l 833 603 l 843 575 l 810 575 l 811 568 l 861 568 l 868 547 l 869 547 l 875 533 l 829 533 l 832 526 l 876 526 l 886 499 l 901 499 l 908 478 l 904 478 l 914 450 l 936 450 l 942 436 l 901 436 l 911 408 l 939 408 l 940 401 l 933 401 l 936 394 l 911 394 l 919 367 l 999 367 l 1006 346 l 1010 346 l 1013 339 l 942 339 l 944 332 l 946 332 l 953 311 l 935 311 l 944 283 l 938 283 l 946 263 l 950 263 l 960 235 l 953 235 l 956 228 l 999 228 l 1004 214 l 956 214 l 965 186 l 996 186 l 999 179 l 985 179 l 993 158 l 996 158 l 1001 144 l 1056 144 l 1065 117 l 1082 117 l 1092 89 l 1035 89 l 1039 75 l 1065 75 m 485 624 l 501 624 l 494 603 l 551 603 l 544 624 l 556 624 l 551 638 l 489 638 l 485 624 m 531 575 l 524 599 l 517 575 l 531 575 m 447 408 l 444 401 l 460 401 l 458 397 l 615 397 l 614 401 l 621 401 l 619 408 l 592 408 l 583 436 l 624 436 l 619 450 l 596 450 l 588 478 l 592 478 l 586 499 l 571 499 l 563 526 l 518 526 l 515 533 l 561 533 l 557 547 l 556 547 l 549 568 l 504 568 l 499 547 l 468 547 l 464 533 l 494 533 l 493 526 l 497 526 l 489 499 l 474 499 l 467 478 l 479 478 l 471 450 l 450 450 l 446 436 l 500 436 l 492 408 l 447 408 m 817 1103 l 836 1082 q 843 1064 843 1075 l 843 1061 l 833 1061 q 832 1054 833 1057 l 843 1054 q 839 1047 840 1049 l 842 1047 q 825 1042 836 1042 l 726 1042 q 704 1042 715 1042 q 681 1047 693 1043 l 679 1047 l 668 1051 l 663 1054 l 651 1054 l 636 1061 l 644 1061 l 600 1082 l 554 1103 l 524 1103 l 432 1061 l 418 1061 l 403 1054 l 407 1054 l 401 1051 l 392 1047 l 329 1047 q 306 1042 317 1043 q 283 1042 294 1042 l 185 1042 q 168 1047 174 1042 l 231 1047 q 226 1054 229 1049 l 222 1054 q 222 1058 222 1057 q 221 1061 221 1060 l 235 1061 l 235 1064 q 242 1082 235 1075 l 261 1103 l 317 1103 l 342 1131 l 279 1131 l 304 1158 l 354 1158 l 361 1165 l 308 1165 l 328 1186 l 346 1186 l 358 1200 l 322 1200 l 342 1221 l 396 1221 l 403 1228 l 358 1228 l 379 1251 l 383 1256 l 404 1256 l 411 1263 l 458 1263 q 499 1278 475 1278 l 679 1278 q 719 1263 700 1278 l 672 1263 q 679 1256 676 1260 l 658 1256 l 663 1251 l 685 1228 l 729 1228 l 736 1221 l 681 1221 l 700 1200 l 736 1200 l 749 1186 l 732 1186 l 750 1165 l 803 1165 l 808 1158 l 758 1158 l 783 1131 l 847 1131 l 872 1103 l 817 1103 m 579 1103 l 610 1103 l 594 1110 l 579 1103 z "},"Ä":{"ha":1049,"x_min":-1,"x_max":1092,"o":"m 1065 75 l 1075 47 l 1051 47 l 1054 40 q 1055 37 1054 39 q 1056 33 1056 35 l 1047 33 l 1047 31 q 1035 6 1047 14 l 1036 6 q 1018 0 1029 0 l 761 0 q 745 2 751 0 q 732 6 739 4 q 715 19 721 11 q 707 33 710 26 l 714 33 l 714 35 l 711 40 l 708 47 l 732 47 l 722 75 l 696 75 l 692 89 l 749 89 l 739 117 l 722 117 l 718 126 l 419 126 l 417 117 l 400 117 l 390 89 l 375 89 l 369 75 l 361 75 l 351 47 l 353 47 l 350 40 l 349 35 l 347 33 l 340 33 q 332 19 338 26 q 315 6 326 11 l 357 6 q 344 2 351 4 q 328 0 338 0 l 71 0 q 54 6 60 0 l 13 6 q -1 31 -1 15 l -1 33 l 7 33 q 8 40 7 38 l 10 47 l 8 47 l 18 75 l 26 75 l 32 89 l 47 89 l 57 117 l 72 117 l 82 144 l 28 144 l 33 158 l 29 158 l 36 179 l 50 179 l 53 186 l 22 186 l 32 214 l 79 214 l 83 228 l 40 228 l 43 235 l 50 235 l 60 263 l 56 263 l 63 283 l 68 283 l 78 311 l 96 311 l 103 332 l 106 339 l 175 339 l 178 346 l 174 346 l 181 367 l 103 367 l 113 394 l 138 394 l 140 401 l 125 401 l 128 408 l 172 408 l 182 436 l 128 436 l 133 450 l 154 450 l 164 478 l 151 478 l 158 499 l 174 499 l 183 526 l 179 526 l 182 533 l 150 533 l 156 547 l 186 547 l 193 568 l 179 568 l 181 575 l 206 575 l 215 603 l 185 603 l 192 624 l 176 624 l 181 638 l 85 638 l 89 651 l 71 651 l 81 679 l 63 679 l 71 700 l 125 700 l 135 728 l 274 728 l 281 749 l 214 749 l 219 763 l 271 763 l 281 790 l 235 790 l 242 811 l 271 811 l 281 839 l 276 839 l 286 867 l 247 867 l 249 874 l 382 874 l 392 901 l 388 901 l 390 908 l 342 908 l 347 926 l 351 936 l 365 936 l 374 950 l 369 950 q 389 966 376 960 q 419 972 401 972 l 721 972 q 751 966 739 972 q 771 950 764 960 l 776 950 l 785 936 l 771 936 q 774 926 774 931 l 781 908 l 829 908 l 831 901 l 835 901 l 844 874 l 713 874 l 715 867 l 754 867 l 764 839 l 768 839 l 778 811 l 749 811 l 756 790 l 801 790 l 811 763 l 760 763 l 765 749 l 832 749 l 839 728 l 700 728 l 710 700 l 656 700 l 663 679 l 679 679 l 689 651 l 635 651 l 640 638 l 861 638 l 865 624 l 854 624 l 861 603 l 833 603 l 843 575 l 810 575 l 811 568 l 861 568 l 868 547 l 869 547 l 875 533 l 829 533 l 832 526 l 876 526 l 886 499 l 901 499 l 908 478 l 904 478 l 914 450 l 936 450 l 942 436 l 901 436 l 911 408 l 939 408 l 940 401 l 933 401 l 936 394 l 911 394 l 919 367 l 999 367 l 1006 346 l 1010 346 l 1013 339 l 942 339 l 944 332 l 946 332 l 953 311 l 935 311 l 944 283 l 938 283 l 946 263 l 950 263 l 960 235 l 953 235 l 956 228 l 999 228 l 1004 214 l 956 214 l 965 186 l 996 186 l 999 179 l 985 179 l 993 158 l 996 158 l 1001 144 l 1056 144 l 1065 117 l 1082 117 l 1092 89 l 1035 89 l 1039 75 l 1065 75 m 485 624 l 501 624 l 494 603 l 551 603 l 544 624 l 556 624 l 551 638 l 489 638 l 485 624 m 531 575 l 524 599 l 517 575 l 531 575 m 447 408 l 444 401 l 460 401 l 458 397 l 615 397 l 614 401 l 621 401 l 619 408 l 592 408 l 583 436 l 624 436 l 619 450 l 596 450 l 588 478 l 592 478 l 586 499 l 571 499 l 563 526 l 518 526 l 515 533 l 561 533 l 557 547 l 556 547 l 549 568 l 504 568 l 499 547 l 468 547 l 464 533 l 494 533 l 493 526 l 497 526 l 489 499 l 474 499 l 467 478 l 479 478 l 471 450 l 450 450 l 446 436 l 500 436 l 492 408 l 447 408 m 453 1074 q 447 1054 453 1061 l 468 1054 q 461 1047 465 1050 l 413 1047 q 393 1042 406 1042 l 221 1042 q 203 1047 210 1042 l 253 1047 q 246 1054 249 1050 l 224 1054 q 217 1074 217 1064 l 217 1075 l 211 1075 l 211 1089 l 218 1089 l 218 1110 l 190 1110 l 190 1131 l 229 1131 l 229 1144 l 225 1144 l 225 1158 l 224 1158 l 224 1207 l 215 1207 l 215 1214 l 219 1214 l 219 1242 l 217 1242 l 217 1246 q 221 1263 217 1257 l 225 1263 q 251 1278 233 1278 l 424 1278 q 451 1263 443 1278 l 449 1263 q 453 1246 453 1257 l 453 1242 l 456 1242 l 456 1214 l 451 1214 l 451 1207 l 460 1207 l 460 1158 l 461 1158 l 461 1144 l 465 1144 l 465 1131 l 426 1131 l 426 1110 l 454 1110 l 454 1089 l 447 1089 l 447 1075 l 453 1075 l 453 1074 m 829 1131 l 846 1131 l 846 1110 l 831 1110 l 831 1089 l 829 1089 l 829 1075 l 826 1075 l 826 1074 q 819 1054 826 1064 l 814 1054 q 807 1047 811 1050 l 811 1047 q 793 1042 804 1042 l 621 1042 q 601 1047 608 1042 l 597 1047 q 594 1051 596 1049 q 590 1054 593 1053 l 596 1054 q 590 1074 590 1061 l 590 1075 l 593 1075 l 593 1089 l 594 1089 l 594 1110 l 610 1110 l 610 1131 l 593 1131 l 593 1144 l 592 1144 l 592 1158 l 579 1158 l 579 1179 l 600 1179 l 600 1207 l 586 1207 l 586 1214 l 597 1214 l 597 1242 l 593 1242 l 593 1246 q 599 1263 593 1257 l 597 1263 q 625 1278 606 1278 l 797 1278 q 825 1263 817 1278 q 829 1246 829 1257 l 829 1242 l 833 1242 l 833 1214 l 822 1214 l 822 1207 l 836 1207 l 836 1179 l 815 1179 l 815 1158 l 828 1158 l 828 1144 l 829 1144 l 829 1131 z "},"À":{"ha":1049,"x_min":-1,"x_max":1092,"o":"m 1065 75 l 1075 47 l 1051 47 l 1054 40 q 1055 37 1054 39 q 1056 33 1056 35 l 1047 33 l 1047 31 q 1035 6 1047 14 l 1036 6 q 1018 0 1029 0 l 761 0 q 745 2 751 0 q 732 6 739 4 q 715 19 721 11 q 707 33 710 26 l 714 33 l 714 35 l 711 40 l 708 47 l 732 47 l 722 75 l 696 75 l 692 89 l 749 89 l 739 117 l 722 117 l 718 126 l 419 126 l 417 117 l 400 117 l 390 89 l 375 89 l 369 75 l 361 75 l 351 47 l 353 47 l 350 40 l 349 35 l 347 33 l 340 33 q 332 19 338 26 q 315 6 326 11 l 357 6 q 344 2 351 4 q 328 0 338 0 l 71 0 q 54 6 60 0 l 13 6 q -1 31 -1 15 l -1 33 l 7 33 q 8 40 7 38 l 10 47 l 8 47 l 18 75 l 26 75 l 32 89 l 47 89 l 57 117 l 72 117 l 82 144 l 28 144 l 33 158 l 29 158 l 36 179 l 50 179 l 53 186 l 22 186 l 32 214 l 79 214 l 83 228 l 40 228 l 43 235 l 50 235 l 60 263 l 56 263 l 63 283 l 68 283 l 78 311 l 96 311 l 103 332 l 106 339 l 175 339 l 178 346 l 174 346 l 181 367 l 103 367 l 113 394 l 138 394 l 140 401 l 125 401 l 128 408 l 172 408 l 182 436 l 128 436 l 133 450 l 154 450 l 164 478 l 151 478 l 158 499 l 174 499 l 183 526 l 179 526 l 182 533 l 150 533 l 156 547 l 186 547 l 193 568 l 179 568 l 181 575 l 206 575 l 215 603 l 185 603 l 192 624 l 176 624 l 181 638 l 85 638 l 89 651 l 71 651 l 81 679 l 63 679 l 71 700 l 125 700 l 135 728 l 274 728 l 281 749 l 214 749 l 219 763 l 271 763 l 281 790 l 235 790 l 242 811 l 271 811 l 281 839 l 276 839 l 286 867 l 247 867 l 249 874 l 382 874 l 392 901 l 388 901 l 390 908 l 342 908 l 347 926 l 351 936 l 365 936 l 374 950 l 369 950 q 389 966 376 960 q 419 972 401 972 l 721 972 q 751 966 739 972 q 771 950 764 960 l 776 950 l 785 936 l 771 936 q 774 926 774 931 l 781 908 l 829 908 l 831 901 l 835 901 l 844 874 l 713 874 l 715 867 l 754 867 l 764 839 l 768 839 l 778 811 l 749 811 l 756 790 l 801 790 l 811 763 l 760 763 l 765 749 l 832 749 l 839 728 l 700 728 l 710 700 l 656 700 l 663 679 l 679 679 l 689 651 l 635 651 l 640 638 l 861 638 l 865 624 l 854 624 l 861 603 l 833 603 l 843 575 l 810 575 l 811 568 l 861 568 l 868 547 l 869 547 l 875 533 l 829 533 l 832 526 l 876 526 l 886 499 l 901 499 l 908 478 l 904 478 l 914 450 l 936 450 l 942 436 l 901 436 l 911 408 l 939 408 l 940 401 l 933 401 l 936 394 l 911 394 l 919 367 l 999 367 l 1006 346 l 1010 346 l 1013 339 l 942 339 l 944 332 l 946 332 l 953 311 l 935 311 l 944 283 l 938 283 l 946 263 l 950 263 l 960 235 l 953 235 l 956 228 l 999 228 l 1004 214 l 956 214 l 965 186 l 996 186 l 999 179 l 985 179 l 993 158 l 996 158 l 1001 144 l 1056 144 l 1065 117 l 1082 117 l 1092 89 l 1035 89 l 1039 75 l 1065 75 m 485 624 l 501 624 l 494 603 l 551 603 l 544 624 l 556 624 l 551 638 l 489 638 l 485 624 m 531 575 l 524 599 l 517 575 l 531 575 m 447 408 l 444 401 l 460 401 l 458 397 l 615 397 l 614 401 l 621 401 l 619 408 l 592 408 l 583 436 l 624 436 l 619 450 l 596 450 l 588 478 l 592 478 l 586 499 l 571 499 l 563 526 l 518 526 l 515 533 l 561 533 l 557 547 l 556 547 l 549 568 l 504 568 l 499 547 l 468 547 l 464 533 l 494 533 l 493 526 l 497 526 l 489 499 l 474 499 l 467 478 l 479 478 l 471 450 l 450 450 l 446 436 l 500 436 l 492 408 l 447 408 m 674 1068 l 675 1068 l 675 1064 q 668 1047 675 1054 l 665 1047 q 649 1042 660 1042 l 444 1042 q 428 1044 435 1042 q 414 1047 421 1046 l 418 1047 q 403 1055 410 1050 q 390 1065 397 1060 l 388 1068 l 385 1068 l 376 1075 l 378 1075 l 361 1089 l 363 1089 l 328 1117 l 329 1117 l 313 1131 l 319 1131 l 286 1158 l 281 1158 l 247 1186 l 244 1186 l 228 1200 l 233 1200 l 217 1214 l 215 1214 l 192 1233 q 189 1238 190 1236 q 188 1242 188 1240 l 181 1242 q 179 1250 179 1244 q 186 1269 179 1263 l 175 1269 q 196 1278 182 1278 l 468 1278 q 500 1269 489 1278 l 510 1269 q 519 1263 514 1267 q 529 1251 524 1258 l 538 1242 l 543 1242 l 567 1214 l 579 1200 l 572 1200 l 583 1186 l 586 1186 l 610 1158 l 614 1158 l 636 1131 l 631 1131 l 642 1117 l 640 1117 l 668 1082 q 672 1075 669 1081 l 671 1075 l 674 1068 z "},"Ā":{"ha":1049,"x_min":-1,"x_max":1092,"o":"m 1065 75 l 1075 47 l 1051 47 l 1054 40 q 1055 37 1054 39 q 1056 33 1056 35 l 1047 33 l 1047 31 q 1035 6 1047 14 l 1036 6 q 1018 0 1029 0 l 761 0 q 745 2 751 0 q 732 6 739 4 q 715 19 721 11 q 707 33 710 26 l 714 33 l 714 35 l 711 40 l 708 47 l 732 47 l 722 75 l 696 75 l 692 89 l 749 89 l 739 117 l 722 117 l 718 126 l 419 126 l 417 117 l 400 117 l 390 89 l 375 89 l 369 75 l 361 75 l 351 47 l 353 47 l 350 40 l 349 35 l 347 33 l 340 33 q 332 19 338 26 q 315 6 326 11 l 357 6 q 344 2 351 4 q 328 0 338 0 l 71 0 q 54 6 60 0 l 13 6 q -1 31 -1 15 l -1 33 l 7 33 q 8 40 7 38 l 10 47 l 8 47 l 18 75 l 26 75 l 32 89 l 47 89 l 57 117 l 72 117 l 82 144 l 28 144 l 33 158 l 29 158 l 36 179 l 50 179 l 53 186 l 22 186 l 32 214 l 79 214 l 83 228 l 40 228 l 43 235 l 50 235 l 60 263 l 56 263 l 63 283 l 68 283 l 78 311 l 96 311 l 103 332 l 106 339 l 175 339 l 178 346 l 174 346 l 181 367 l 103 367 l 113 394 l 138 394 l 140 401 l 125 401 l 128 408 l 172 408 l 182 436 l 128 436 l 133 450 l 154 450 l 164 478 l 151 478 l 158 499 l 174 499 l 183 526 l 179 526 l 182 533 l 150 533 l 156 547 l 186 547 l 193 568 l 179 568 l 181 575 l 206 575 l 215 603 l 185 603 l 192 624 l 176 624 l 181 638 l 85 638 l 89 651 l 71 651 l 81 679 l 63 679 l 71 700 l 125 700 l 135 728 l 274 728 l 281 749 l 214 749 l 219 763 l 271 763 l 281 790 l 235 790 l 242 811 l 271 811 l 281 839 l 276 839 l 286 867 l 247 867 l 249 874 l 382 874 l 392 901 l 388 901 l 390 908 l 342 908 l 347 926 l 351 936 l 365 936 l 374 950 l 369 950 q 389 966 376 960 q 419 972 401 972 l 721 972 q 751 966 739 972 q 771 950 764 960 l 776 950 l 785 936 l 771 936 q 774 926 774 931 l 781 908 l 829 908 l 831 901 l 835 901 l 844 874 l 713 874 l 715 867 l 754 867 l 764 839 l 768 839 l 778 811 l 749 811 l 756 790 l 801 790 l 811 763 l 760 763 l 765 749 l 832 749 l 839 728 l 700 728 l 710 700 l 656 700 l 663 679 l 679 679 l 689 651 l 635 651 l 640 638 l 861 638 l 865 624 l 854 624 l 861 603 l 833 603 l 843 575 l 810 575 l 811 568 l 861 568 l 868 547 l 869 547 l 875 533 l 829 533 l 832 526 l 876 526 l 886 499 l 901 499 l 908 478 l 904 478 l 914 450 l 936 450 l 942 436 l 901 436 l 911 408 l 939 408 l 940 401 l 933 401 l 936 394 l 911 394 l 919 367 l 999 367 l 1006 346 l 1010 346 l 1013 339 l 942 339 l 944 332 l 946 332 l 953 311 l 935 311 l 944 283 l 938 283 l 946 263 l 950 263 l 960 235 l 953 235 l 956 228 l 999 228 l 1004 214 l 956 214 l 965 186 l 996 186 l 999 179 l 985 179 l 993 158 l 996 158 l 1001 144 l 1056 144 l 1065 117 l 1082 117 l 1092 89 l 1035 89 l 1039 75 l 1065 75 m 485 624 l 501 624 l 494 603 l 551 603 l 544 624 l 556 624 l 551 638 l 489 638 l 485 624 m 531 575 l 524 599 l 517 575 l 531 575 m 447 408 l 444 401 l 460 401 l 458 397 l 615 397 l 614 401 l 621 401 l 619 408 l 592 408 l 583 436 l 624 436 l 619 450 l 596 450 l 588 478 l 592 478 l 586 499 l 571 499 l 563 526 l 518 526 l 515 533 l 561 533 l 557 547 l 556 547 l 549 568 l 504 568 l 499 547 l 468 547 l 464 533 l 494 533 l 493 526 l 497 526 l 489 499 l 474 499 l 467 478 l 479 478 l 471 450 l 450 450 l 446 436 l 500 436 l 492 408 l 447 408 m 819 1089 l 822 1089 l 822 1075 l 814 1075 l 814 1074 q 813 1061 814 1065 l 807 1061 q 796 1047 804 1051 l 811 1047 q 793 1042 806 1042 l 269 1042 q 251 1047 258 1042 l 236 1047 q 230 1053 232 1050 q 225 1061 228 1057 l 229 1061 q 226 1074 226 1069 l 226 1075 l 235 1075 l 235 1089 l 232 1089 l 232 1117 l 231 1117 l 231 1193 l 232 1193 l 232 1221 q 242 1242 233 1233 q 264 1250 251 1250 l 788 1250 q 819 1221 817 1250 l 819 1193 l 818 1193 l 818 1117 l 819 1117 l 819 1089 z "},"Ą":{"ha":1049,"x_min":-96,"x_max":1072,"o":"m 1039 31 q 1038 19 1039 22 l 1060 19 q 1032 0 1053 0 l 989 0 q 958 -8 971 -1 l 944 -8 q 921 -36 928 -19 l 896 -36 q 889 -64 889 -53 l 883 -64 l 883 -78 l 938 -78 q 940 -92 938 -83 l 900 -92 q 903 -99 901 -94 q 906 -106 904 -103 l 876 -106 q 885 -117 881 -111 q 897 -126 890 -122 l 914 -126 q 931 -133 921 -131 q 953 -136 940 -136 l 967 -136 q 985 -140 976 -136 l 1007 -140 q 1026 -168 1025 -150 l 1033 -168 q 1035 -174 1035 -169 l 1035 -182 l 1042 -182 l 1042 -203 l 1035 -203 l 1035 -231 l 1038 -231 l 1038 -258 l 1024 -258 l 1024 -268 q 1023 -274 1024 -271 q 1022 -279 1022 -276 l 1026 -279 l 1024 -286 l 1049 -286 q 1036 -300 1043 -296 l 997 -300 q 978 -306 990 -306 l 958 -306 q 926 -304 942 -306 q 896 -300 911 -303 l 935 -300 q 909 -294 921 -297 q 886 -286 897 -290 l 861 -286 q 853 -282 857 -283 q 846 -279 849 -281 l 840 -279 q 807 -258 824 -271 l 821 -258 q 793 -231 806 -246 l 790 -231 l 781 -217 l 779 -217 l 771 -203 l 778 -203 l 767 -182 l 760 -182 q 758 -175 758 -179 q 754 -168 757 -171 l 747 -168 l 739 -140 l 717 -140 q 715 -133 715 -137 q 714 -126 715 -129 l 697 -126 q 696 -116 696 -121 q 694 -106 696 -111 l 722 -106 l 722 -92 l 763 -92 l 763 -78 l 708 -78 l 708 -64 l 714 -64 q 714 -49 714 -57 q 715 -36 714 -42 l 740 -36 l 744 -8 l 758 -8 q 759 -3 758 -6 q 760 0 760 -1 q 740 8 747 3 q 728 19 732 14 l 704 19 q 701 27 703 24 q 697 35 699 31 l 696 40 l 686 68 l 683 68 l 675 89 l 656 89 l 653 96 l 550 96 l 547 103 l 586 103 l 585 110 l 561 110 l 554 126 l 256 126 l 250 110 l 413 110 l 410 103 l 406 103 l 403 96 l 376 96 l 374 89 l 424 89 l 417 68 l 344 68 l 335 40 l 332 35 q 329 27 331 31 q 325 19 328 24 l 324 19 q 307 6 318 11 q 278 0 296 0 l 21 0 q -8 19 -1 0 l -7 19 q -10 31 -10 25 q -8 40 -10 36 l 1 68 l 74 68 l 82 89 l 31 89 l 33 96 l 60 96 l 63 103 l 67 103 l 69 110 l -93 110 l -86 131 l -96 131 l -86 158 l 108 158 l 117 179 l 32 179 l 42 207 l -12 207 l -7 221 l 89 221 l 97 242 l 67 242 l 76 269 l 71 269 l 75 283 l 86 283 l 96 311 l 97 311 l 101 325 l 111 353 l 115 367 l 114 367 l 118 381 l 82 381 l 88 394 l 122 394 l 132 422 l 128 422 l 133 436 l 181 436 l 188 457 l 154 457 l 164 485 l 135 485 l 144 513 l 126 513 l 129 519 l 167 519 l 176 547 l 178 547 l 185 568 l 186 568 l 196 596 l 158 596 l 168 624 l 171 624 l 181 651 l 164 651 l 165 658 l 219 658 l 225 672 l 219 672 l 222 679 l 228 679 l 229 686 l 222 686 l 226 700 l 269 700 l 279 728 l 333 728 l 340 749 l 231 749 l 240 776 l 331 776 l 338 797 l 286 797 l 292 811 l 293 811 l 297 825 l 271 825 l 276 839 l 279 839 l 289 867 l 290 867 l 297 888 l 303 901 l 301 901 l 310 922 l 313 922 l 314 926 q 317 935 315 931 q 321 943 319 939 l 294 943 q 300 951 297 947 q 306 957 303 954 l 319 957 q 329 964 324 961 l 290 964 q 324 972 306 972 l 625 972 q 660 964 646 972 l 699 964 q 708 957 704 961 l 694 957 q 701 951 697 954 q 706 943 704 947 l 733 943 q 738 935 736 939 q 740 926 739 931 l 742 922 l 739 922 l 746 901 l 751 888 l 758 867 l 757 867 l 767 839 l 764 839 l 767 832 l 765 832 l 768 825 l 794 825 l 800 811 l 799 811 l 803 797 l 854 797 l 863 776 l 771 776 l 781 749 l 892 749 l 899 728 l 844 728 l 854 700 l 811 700 l 817 686 l 824 686 l 826 679 l 822 679 l 824 672 l 829 672 l 833 658 l 779 658 l 782 651 l 810 651 l 819 624 l 851 624 l 861 596 l 856 596 l 865 568 l 874 547 l 892 547 l 901 519 l 883 519 l 885 513 l 883 513 l 893 485 l 897 485 l 907 457 l 942 457 l 949 436 l 979 436 l 985 422 l 910 422 l 919 394 l 886 394 l 890 381 l 926 381 l 932 367 l 933 367 l 939 353 l 949 325 l 954 311 l 953 311 l 963 283 l 951 283 l 956 269 l 963 269 l 972 242 l 1001 242 l 1010 221 l 913 221 l 917 207 l 971 207 l 981 179 l 1065 179 l 1072 158 l 878 158 l 888 131 l 897 131 l 904 110 l 928 110 l 931 103 l 890 103 l 893 96 l 996 96 l 999 89 l 1018 89 l 1026 68 l 1028 68 l 1038 40 q 1039 31 1039 36 m 450 436 l 446 422 l 450 422 l 442 397 l 599 397 l 592 422 l 665 422 l 661 436 l 631 436 l 625 457 l 590 457 l 582 485 l 578 485 l 569 513 l 571 513 l 568 519 l 588 519 l 579 547 l 560 547 l 553 568 l 544 596 l 550 596 l 542 624 l 510 624 l 501 651 l 489 651 l 481 624 l 476 624 l 468 596 l 506 596 l 497 568 l 496 568 l 490 547 l 489 547 l 479 519 l 443 519 l 440 513 l 458 513 l 450 485 l 479 485 l 471 457 l 504 457 l 499 436 l 450 436 z "},"Å":{"ha":1049,"x_min":-1,"x_max":1092,"o":"m 1065 75 l 1075 47 l 1051 47 l 1054 40 q 1055 37 1054 39 q 1056 33 1056 35 l 1047 33 l 1047 31 q 1035 6 1047 14 l 1036 6 q 1018 0 1029 0 l 761 0 q 745 2 751 0 q 732 6 739 4 q 715 19 721 11 q 707 33 710 26 l 714 33 l 714 35 l 711 40 l 708 47 l 732 47 l 722 75 l 696 75 l 692 89 l 749 89 l 739 117 l 722 117 l 718 126 l 419 126 l 417 117 l 400 117 l 390 89 l 375 89 l 369 75 l 361 75 l 351 47 l 353 47 l 350 40 l 349 35 l 347 33 l 340 33 q 332 19 338 26 q 315 6 326 11 l 357 6 q 344 2 351 4 q 328 0 338 0 l 71 0 q 54 6 60 0 l 13 6 q -1 31 -1 15 l -1 33 l 7 33 q 8 40 7 38 l 10 47 l 8 47 l 18 75 l 26 75 l 32 89 l 47 89 l 57 117 l 72 117 l 82 144 l 28 144 l 33 158 l 29 158 l 36 179 l 50 179 l 53 186 l 22 186 l 32 214 l 79 214 l 83 228 l 40 228 l 43 235 l 50 235 l 60 263 l 56 263 l 63 283 l 68 283 l 78 311 l 96 311 l 103 332 l 106 339 l 175 339 l 178 346 l 174 346 l 181 367 l 103 367 l 113 394 l 138 394 l 140 401 l 125 401 l 128 408 l 172 408 l 182 436 l 128 436 l 133 450 l 154 450 l 164 478 l 151 478 l 158 499 l 174 499 l 183 526 l 179 526 l 182 533 l 150 533 l 156 547 l 186 547 l 193 568 l 179 568 l 181 575 l 206 575 l 215 603 l 185 603 l 192 624 l 176 624 l 181 638 l 85 638 l 89 651 l 71 651 l 81 679 l 63 679 l 71 700 l 125 700 l 135 728 l 274 728 l 281 749 l 214 749 l 219 763 l 271 763 l 281 790 l 235 790 l 242 811 l 271 811 l 281 839 l 276 839 l 286 867 l 247 867 l 249 874 l 382 874 l 392 901 l 388 901 l 390 908 l 342 908 l 347 926 l 351 936 l 365 936 l 374 950 l 369 950 q 389 966 376 960 q 419 972 401 972 l 721 972 q 751 966 739 972 q 771 950 764 960 l 776 950 l 785 936 l 771 936 q 774 926 774 931 l 781 908 l 829 908 l 831 901 l 835 901 l 844 874 l 713 874 l 715 867 l 754 867 l 764 839 l 768 839 l 778 811 l 749 811 l 756 790 l 801 790 l 811 763 l 760 763 l 765 749 l 832 749 l 839 728 l 700 728 l 710 700 l 656 700 l 663 679 l 679 679 l 689 651 l 635 651 l 640 638 l 861 638 l 865 624 l 854 624 l 861 603 l 833 603 l 843 575 l 810 575 l 811 568 l 861 568 l 868 547 l 869 547 l 875 533 l 829 533 l 832 526 l 876 526 l 886 499 l 901 499 l 908 478 l 904 478 l 914 450 l 936 450 l 942 436 l 901 436 l 911 408 l 939 408 l 940 401 l 933 401 l 936 394 l 911 394 l 919 367 l 999 367 l 1006 346 l 1010 346 l 1013 339 l 942 339 l 944 332 l 946 332 l 953 311 l 935 311 l 944 283 l 938 283 l 946 263 l 950 263 l 960 235 l 953 235 l 956 228 l 999 228 l 1004 214 l 956 214 l 965 186 l 996 186 l 999 179 l 985 179 l 993 158 l 996 158 l 1001 144 l 1056 144 l 1065 117 l 1082 117 l 1092 89 l 1035 89 l 1039 75 l 1065 75 m 485 624 l 501 624 l 494 603 l 551 603 l 544 624 l 556 624 l 551 638 l 489 638 l 485 624 m 531 575 l 524 599 l 517 575 l 531 575 m 447 408 l 444 401 l 460 401 l 458 397 l 615 397 l 614 401 l 621 401 l 619 408 l 592 408 l 583 436 l 624 436 l 619 450 l 596 450 l 588 478 l 592 478 l 586 499 l 571 499 l 563 526 l 518 526 l 515 533 l 561 533 l 557 547 l 556 547 l 549 568 l 504 568 l 499 547 l 468 547 l 464 533 l 494 533 l 493 526 l 497 526 l 489 499 l 474 499 l 467 478 l 479 478 l 471 450 l 450 450 l 446 436 l 500 436 l 492 408 l 447 408 m 681 1124 l 644 1124 l 639 1110 l 650 1110 q 633 1082 643 1093 l 638 1082 q 625 1067 632 1074 q 610 1054 618 1061 q 567 1033 592 1040 l 581 1033 q 539 1028 563 1028 q 499 1033 515 1028 l 485 1033 q 440 1054 463 1039 q 425 1067 432 1061 q 411 1082 418 1074 l 407 1082 q 392 1110 397 1096 l 381 1110 l 376 1124 l 400 1124 q 396 1144 396 1135 l 379 1144 l 379 1151 l 351 1151 l 351 1158 l 388 1158 l 388 1160 q 389 1172 388 1168 l 368 1172 q 368 1179 368 1175 q 369 1186 368 1183 l 388 1186 q 388 1190 388 1189 q 389 1193 389 1192 l 403 1193 q 403 1197 403 1196 q 404 1200 404 1199 l 418 1200 q 423 1210 421 1206 q 428 1221 425 1215 l 392 1221 q 397 1228 394 1224 q 401 1235 399 1232 l 403 1235 q 408 1242 406 1239 q 414 1249 411 1246 l 429 1249 q 467 1276 443 1265 l 464 1276 q 479 1283 471 1282 l 496 1283 q 546 1292 519 1292 q 594 1283 572 1292 l 579 1283 q 588 1281 583 1282 q 596 1276 592 1279 l 599 1276 q 636 1249 622 1265 l 621 1249 q 627 1242 624 1246 q 633 1235 631 1239 l 632 1235 l 640 1221 l 675 1221 q 680 1210 678 1215 q 683 1200 682 1206 l 676 1200 l 679 1193 l 660 1193 q 660 1190 660 1192 q 661 1186 661 1189 l 642 1186 q 643 1179 643 1183 q 644 1172 643 1175 l 647 1172 l 647 1158 l 681 1158 q 679 1151 681 1154 l 631 1151 l 631 1144 l 685 1144 l 681 1124 m 531 1124 l 567 1124 q 585 1144 581 1131 l 531 1144 l 533 1151 l 582 1151 q 583 1156 582 1154 q 583 1158 583 1157 l 550 1158 l 550 1160 q 549 1172 550 1168 l 546 1172 q 538 1186 544 1179 l 558 1186 q 550 1193 553 1192 l 569 1193 q 554 1200 563 1199 l 563 1200 q 551 1201 558 1201 q 540 1200 543 1201 l 526 1200 q 513 1193 521 1199 l 499 1193 q 490 1186 496 1192 l 474 1186 q 469 1180 471 1183 q 465 1172 468 1176 l 488 1172 q 485 1160 485 1164 l 485 1158 l 449 1158 q 450 1151 449 1154 l 476 1151 l 479 1144 l 494 1144 q 502 1133 497 1139 q 513 1124 507 1126 l 489 1124 q 510 1118 496 1118 q 531 1124 524 1118 z "},"Ã":{"ha":1049,"x_min":-1,"x_max":1092,"o":"m 1065 75 l 1075 47 l 1051 47 l 1054 40 q 1055 37 1054 39 q 1056 33 1056 35 l 1047 33 l 1047 31 q 1035 6 1047 14 l 1036 6 q 1018 0 1029 0 l 761 0 q 745 2 751 0 q 732 6 739 4 q 715 19 721 11 q 707 33 710 26 l 714 33 l 714 35 l 711 40 l 708 47 l 732 47 l 722 75 l 696 75 l 692 89 l 749 89 l 739 117 l 722 117 l 718 126 l 419 126 l 417 117 l 400 117 l 390 89 l 375 89 l 369 75 l 361 75 l 351 47 l 353 47 l 350 40 l 349 35 l 347 33 l 340 33 q 332 19 338 26 q 315 6 326 11 l 357 6 q 344 2 351 4 q 328 0 338 0 l 71 0 q 54 6 60 0 l 13 6 q -1 31 -1 15 l -1 33 l 7 33 q 8 40 7 38 l 10 47 l 8 47 l 18 75 l 26 75 l 32 89 l 47 89 l 57 117 l 72 117 l 82 144 l 28 144 l 33 158 l 29 158 l 36 179 l 50 179 l 53 186 l 22 186 l 32 214 l 79 214 l 83 228 l 40 228 l 43 235 l 50 235 l 60 263 l 56 263 l 63 283 l 68 283 l 78 311 l 96 311 l 103 332 l 106 339 l 175 339 l 178 346 l 174 346 l 181 367 l 103 367 l 113 394 l 138 394 l 140 401 l 125 401 l 128 408 l 172 408 l 182 436 l 128 436 l 133 450 l 154 450 l 164 478 l 151 478 l 158 499 l 174 499 l 183 526 l 179 526 l 182 533 l 150 533 l 156 547 l 186 547 l 193 568 l 179 568 l 181 575 l 206 575 l 215 603 l 185 603 l 192 624 l 176 624 l 181 638 l 85 638 l 89 651 l 71 651 l 81 679 l 63 679 l 71 700 l 125 700 l 135 728 l 274 728 l 281 749 l 214 749 l 219 763 l 271 763 l 281 790 l 235 790 l 242 811 l 271 811 l 281 839 l 276 839 l 286 867 l 247 867 l 249 874 l 382 874 l 392 901 l 388 901 l 390 908 l 342 908 l 347 926 l 351 936 l 365 936 l 374 950 l 369 950 q 389 966 376 960 q 419 972 401 972 l 721 972 q 751 966 739 972 q 771 950 764 960 l 776 950 l 785 936 l 771 936 q 774 926 774 931 l 781 908 l 829 908 l 831 901 l 835 901 l 844 874 l 713 874 l 715 867 l 754 867 l 764 839 l 768 839 l 778 811 l 749 811 l 756 790 l 801 790 l 811 763 l 760 763 l 765 749 l 832 749 l 839 728 l 700 728 l 710 700 l 656 700 l 663 679 l 679 679 l 689 651 l 635 651 l 640 638 l 861 638 l 865 624 l 854 624 l 861 603 l 833 603 l 843 575 l 810 575 l 811 568 l 861 568 l 868 547 l 869 547 l 875 533 l 829 533 l 832 526 l 876 526 l 886 499 l 901 499 l 908 478 l 904 478 l 914 450 l 936 450 l 942 436 l 901 436 l 911 408 l 939 408 l 940 401 l 933 401 l 936 394 l 911 394 l 919 367 l 999 367 l 1006 346 l 1010 346 l 1013 339 l 942 339 l 944 332 l 946 332 l 953 311 l 935 311 l 944 283 l 938 283 l 946 263 l 950 263 l 960 235 l 953 235 l 956 228 l 999 228 l 1004 214 l 956 214 l 965 186 l 996 186 l 999 179 l 985 179 l 993 158 l 996 158 l 1001 144 l 1056 144 l 1065 117 l 1082 117 l 1092 89 l 1035 89 l 1039 75 l 1065 75 m 485 624 l 501 624 l 494 603 l 551 603 l 544 624 l 556 624 l 551 638 l 489 638 l 485 624 m 531 575 l 524 599 l 517 575 l 531 575 m 447 408 l 444 401 l 460 401 l 458 397 l 615 397 l 614 401 l 621 401 l 619 408 l 592 408 l 583 436 l 624 436 l 619 450 l 596 450 l 588 478 l 592 478 l 586 499 l 571 499 l 563 526 l 518 526 l 515 533 l 561 533 l 557 547 l 556 547 l 549 568 l 504 568 l 499 547 l 468 547 l 464 533 l 494 533 l 493 526 l 497 526 l 489 499 l 474 499 l 467 478 l 479 478 l 471 450 l 450 450 l 446 436 l 500 436 l 492 408 l 447 408 m 792 1221 l 788 1200 l 833 1200 l 829 1186 l 796 1186 q 795 1183 796 1185 q 794 1179 794 1182 l 799 1179 l 794 1165 l 799 1165 q 796 1158 796 1160 l 782 1158 l 769 1131 l 781 1131 q 772 1117 776 1124 q 763 1103 768 1110 l 758 1103 l 746 1089 l 739 1089 q 736 1086 738 1088 q 732 1082 735 1085 l 740 1082 l 732 1075 l 708 1075 q 663 1047 689 1057 l 692 1047 q 681 1044 686 1046 q 671 1040 676 1042 l 679 1040 q 632 1035 661 1035 q 608 1037 619 1035 q 588 1040 597 1039 l 578 1040 q 557 1047 567 1043 l 528 1047 q 498 1062 511 1054 q 471 1075 485 1069 l 496 1075 q 486 1079 490 1078 q 476 1082 482 1081 l 468 1082 q 458 1084 463 1083 q 447 1085 453 1085 q 438 1084 442 1085 q 429 1082 433 1083 l 442 1082 q 431 1075 436 1081 l 435 1075 q 422 1061 428 1069 q 410 1047 417 1053 l 365 1047 q 349 1042 357 1042 l 232 1042 q 215 1047 222 1042 l 261 1047 q 251 1067 251 1054 l 251 1075 l 247 1075 l 247 1082 l 235 1082 l 235 1089 l 243 1089 q 243 1096 243 1092 q 244 1103 243 1100 l 249 1103 q 251 1117 250 1110 q 254 1131 253 1124 l 243 1131 q 253 1158 247 1146 l 267 1158 q 267 1163 267 1161 q 268 1165 268 1164 l 264 1165 q 268 1172 267 1168 q 271 1179 269 1176 l 267 1179 q 269 1186 267 1181 l 303 1186 l 311 1200 l 265 1200 q 272 1210 268 1206 q 281 1221 276 1215 l 321 1221 q 330 1231 325 1226 q 340 1242 335 1236 l 326 1242 q 347 1257 336 1250 q 369 1269 357 1264 l 411 1269 q 488 1285 446 1285 q 528 1281 511 1285 q 560 1269 546 1276 l 518 1269 q 547 1255 533 1263 q 574 1242 560 1247 l 588 1242 q 622 1235 604 1235 q 646 1242 636 1235 l 621 1242 q 635 1256 629 1247 q 647 1269 642 1264 l 628 1269 q 647 1278 635 1278 l 764 1278 q 783 1269 778 1278 l 803 1269 q 810 1251 810 1263 l 810 1242 l 833 1242 q 833 1231 833 1236 q 832 1221 833 1226 l 792 1221 z "},"Æ":{"ha":1396,"x_min":-142,"x_max":1501,"o":"m 1501 207 l 1369 207 l 1369 186 l 1410 186 l 1410 179 l 1344 179 l 1344 151 l 1288 151 l 1288 124 l 1389 124 l 1389 117 l 1215 117 l 1215 110 l 1350 110 l 1350 82 l 1336 82 l 1336 54 l 1344 54 l 1344 38 q 1343 26 1344 31 l 1363 26 q 1346 6 1357 11 l 1342 6 q 1322 0 1335 0 l 640 0 q 621 6 628 0 l 625 6 q 608 26 614 11 l 589 26 q 588 38 588 31 l 588 54 l 579 54 l 579 82 l 593 82 l 593 110 l 458 110 l 458 117 l 632 117 l 632 124 l 531 124 l 531 126 l 324 126 l 324 124 l 204 124 l 203 117 l 343 117 l 340 110 l 396 110 l 385 82 l 368 82 l 358 54 l 356 54 l 349 35 l 344 26 l 367 26 q 344 6 360 14 l 275 6 q 263 2 269 4 q 247 0 256 0 l -10 0 q -28 6 -21 0 l 42 6 q 29 26 32 11 l 7 26 l 7 31 q 8 40 7 36 q 11 47 10 43 q 14 54 13 51 l 15 54 q 21 68 18 61 q 25 82 24 75 l 43 82 q 53 110 47 97 l -3 110 l 0 117 l -142 117 q -139 124 -139 122 l -21 124 q -11 151 -15 136 l 46 151 q 51 165 49 158 q 56 179 54 172 l 119 179 q 122 186 122 185 l 83 186 q 88 197 86 192 q 90 207 89 201 l 222 207 q 226 217 225 213 q 229 228 228 222 l 103 228 l 111 249 l 188 249 q 193 263 190 256 q 197 276 196 269 l 110 276 q 115 290 113 283 q 119 304 118 297 l 94 304 q 98 315 96 310 q 101 325 100 319 l 89 325 q 94 339 92 332 q 99 353 97 346 l 100 353 q 103 360 100 354 l 118 360 l 126 381 l 108 381 l 114 394 l 204 394 l 213 415 l 188 415 q 191 422 190 418 q 193 429 192 426 l 154 429 q 160 443 157 436 q 164 457 163 450 l 149 457 q 151 464 151 463 l 126 464 l 132 478 l 160 478 q 165 492 163 485 q 169 506 168 499 l 156 506 l 158 513 l 174 513 q 176 519 174 514 l 179 519 q 189 547 183 535 l 194 547 l 197 554 l 186 554 q 190 565 188 560 q 193 575 192 569 l 107 575 l 111 589 l 179 589 q 183 599 181 594 q 186 610 185 604 l 203 610 q 213 638 208 622 l 208 638 q 213 648 211 643 q 215 658 214 653 l 224 658 q 227 669 225 664 q 231 679 229 674 l 244 679 q 249 690 247 685 q 251 700 250 694 l 238 700 q 247 728 243 713 l 243 728 q 247 738 246 733 q 250 749 249 743 l 232 749 q 235 756 232 750 l 224 756 q 229 769 226 763 q 233 783 232 776 l 257 783 l 260 790 l 269 790 q 279 818 275 803 l 296 818 q 299 828 297 824 q 303 839 301 833 l 274 839 q 283 867 278 854 l 335 867 q 335 871 335 869 q 336 874 336 872 l 319 874 l 324 888 l 311 888 q 314 894 311 889 l 299 894 q 301 901 300 897 q 304 908 303 906 l 278 908 q 282 917 281 913 q 285 926 283 922 l 285 929 l 351 929 q 354 936 353 932 q 357 943 356 940 l 251 943 q 274 964 260 956 l 343 964 q 376 972 356 972 l 1293 972 q 1317 964 1308 972 l 1247 964 q 1261 943 1257 957 l 1365 943 q 1367 935 1367 940 l 1367 929 l 1301 929 l 1301 908 l 1326 908 l 1326 894 l 1342 894 l 1342 888 l 1354 888 l 1354 874 l 1372 874 l 1372 867 l 1321 867 l 1321 839 l 1350 839 l 1350 818 l 1333 818 l 1333 790 l 1324 790 l 1324 783 l 1300 783 l 1300 756 l 1310 756 l 1310 749 l 1329 749 l 1329 739 q 1328 733 1329 736 q 1326 728 1328 731 l 1332 728 q 1296 701 1325 701 l 921 701 l 921 700 l 953 700 l 953 679 l 924 679 l 924 658 l 894 658 l 894 638 l 893 638 l 893 614 l 1238 614 q 1254 610 1246 614 l 1208 610 q 1226 589 1222 603 l 1331 589 q 1332 576 1332 585 l 1332 575 l 1340 575 l 1340 554 l 1247 554 l 1247 547 l 1303 547 l 1303 519 l 1304 519 l 1304 513 l 1299 513 l 1299 506 l 1300 506 l 1300 478 l 1288 478 l 1288 464 l 1307 464 l 1307 457 l 1319 457 l 1319 429 l 1296 429 l 1296 415 l 1376 415 l 1376 394 l 1286 394 q 1282 381 1286 388 l 1300 381 q 1275 360 1290 364 l 1260 360 q 1249 358 1256 358 l 904 358 l 904 325 l 915 325 l 915 304 l 942 304 l 942 276 l 1029 276 l 1029 271 l 1415 271 q 1449 249 1439 271 l 1372 249 q 1375 233 1375 244 l 1375 228 l 1501 228 l 1501 207 m 472 429 l 511 429 l 507 415 l 531 415 l 525 397 l 661 397 l 661 415 l 581 415 l 581 429 l 604 429 l 604 457 l 592 457 l 592 464 l 572 464 l 572 478 l 585 478 l 585 506 l 583 506 l 583 513 l 589 513 l 589 519 l 588 519 l 588 547 l 532 547 l 532 554 l 625 554 l 625 575 l 617 575 l 617 589 l 513 589 l 513 610 l 560 610 l 560 638 l 561 638 l 561 658 l 590 658 l 590 679 l 619 679 l 619 700 l 588 700 l 588 701 l 543 701 l 543 700 l 557 700 l 550 679 l 536 679 l 531 658 l 522 658 l 517 638 l 521 638 l 513 610 l 496 610 l 489 589 l 422 589 l 418 575 l 504 575 l 497 554 l 508 554 l 507 547 l 501 547 l 492 519 l 490 519 l 488 513 l 472 513 l 469 506 l 485 506 l 475 478 l 447 478 l 443 464 l 468 464 l 467 457 l 481 457 l 472 429 z "},"Ǽ":{"ha":1396,"x_min":-142,"x_max":1501,"o":"m 1501 207 l 1369 207 l 1369 186 l 1410 186 l 1410 179 l 1344 179 l 1344 151 l 1288 151 l 1288 124 l 1389 124 l 1389 117 l 1215 117 l 1215 110 l 1350 110 l 1350 82 l 1336 82 l 1336 54 l 1344 54 l 1344 38 q 1343 26 1344 31 l 1363 26 q 1346 6 1357 11 l 1342 6 q 1322 0 1335 0 l 640 0 q 621 6 628 0 l 625 6 q 608 26 614 11 l 589 26 q 588 38 588 31 l 588 54 l 579 54 l 579 82 l 593 82 l 593 110 l 458 110 l 458 117 l 632 117 l 632 124 l 531 124 l 531 126 l 324 126 l 324 124 l 204 124 l 203 117 l 343 117 l 340 110 l 396 110 l 385 82 l 368 82 l 358 54 l 356 54 l 349 35 l 344 26 l 367 26 q 344 6 360 14 l 275 6 q 263 2 269 4 q 247 0 256 0 l -10 0 q -28 6 -21 0 l 42 6 q 29 26 32 11 l 7 26 l 7 31 q 8 40 7 36 q 11 47 10 43 q 14 54 13 51 l 15 54 q 21 68 18 61 q 25 82 24 75 l 43 82 q 53 110 47 97 l -3 110 l 0 117 l -142 117 q -139 124 -139 122 l -21 124 q -11 151 -15 136 l 46 151 q 51 165 49 158 q 56 179 54 172 l 119 179 q 122 186 122 185 l 83 186 q 88 197 86 192 q 90 207 89 201 l 222 207 q 226 217 225 213 q 229 228 228 222 l 103 228 l 111 249 l 188 249 q 193 263 190 256 q 197 276 196 269 l 110 276 q 115 290 113 283 q 119 304 118 297 l 94 304 q 98 315 96 310 q 101 325 100 319 l 89 325 q 94 339 92 332 q 99 353 97 346 l 100 353 q 103 360 100 354 l 118 360 l 126 381 l 108 381 l 114 394 l 204 394 l 213 415 l 188 415 q 191 422 190 418 q 193 429 192 426 l 154 429 q 160 443 157 436 q 164 457 163 450 l 149 457 q 151 464 151 463 l 126 464 l 132 478 l 160 478 q 165 492 163 485 q 169 506 168 499 l 156 506 l 158 513 l 174 513 q 176 519 174 514 l 179 519 q 189 547 183 535 l 194 547 l 197 554 l 186 554 q 190 565 188 560 q 193 575 192 569 l 107 575 l 111 589 l 179 589 q 183 599 181 594 q 186 610 185 604 l 203 610 q 213 638 208 622 l 208 638 q 213 648 211 643 q 215 658 214 653 l 224 658 q 227 669 225 664 q 231 679 229 674 l 244 679 q 249 690 247 685 q 251 700 250 694 l 238 700 q 247 728 243 713 l 243 728 q 247 738 246 733 q 250 749 249 743 l 232 749 q 235 756 232 750 l 224 756 q 229 769 226 763 q 233 783 232 776 l 257 783 l 260 790 l 269 790 q 279 818 275 803 l 296 818 q 299 828 297 824 q 303 839 301 833 l 274 839 q 283 867 278 854 l 335 867 q 335 871 335 869 q 336 874 336 872 l 319 874 l 324 888 l 311 888 q 314 894 311 889 l 299 894 q 301 901 300 897 q 304 908 303 906 l 278 908 q 282 917 281 913 q 285 926 283 922 l 285 929 l 351 929 q 354 936 353 932 q 357 943 356 940 l 251 943 q 274 964 260 956 l 343 964 q 376 972 356 972 l 1293 972 q 1317 964 1308 972 l 1247 964 q 1261 943 1257 957 l 1365 943 q 1367 935 1367 940 l 1367 929 l 1301 929 l 1301 908 l 1326 908 l 1326 894 l 1342 894 l 1342 888 l 1354 888 l 1354 874 l 1372 874 l 1372 867 l 1321 867 l 1321 839 l 1350 839 l 1350 818 l 1333 818 l 1333 790 l 1324 790 l 1324 783 l 1300 783 l 1300 756 l 1310 756 l 1310 749 l 1329 749 l 1329 739 q 1328 733 1329 736 q 1326 728 1328 731 l 1332 728 q 1296 701 1325 701 l 921 701 l 921 700 l 953 700 l 953 679 l 924 679 l 924 658 l 894 658 l 894 638 l 893 638 l 893 614 l 1238 614 q 1254 610 1246 614 l 1208 610 q 1226 589 1222 603 l 1331 589 q 1332 576 1332 585 l 1332 575 l 1340 575 l 1340 554 l 1247 554 l 1247 547 l 1303 547 l 1303 519 l 1304 519 l 1304 513 l 1299 513 l 1299 506 l 1300 506 l 1300 478 l 1288 478 l 1288 464 l 1307 464 l 1307 457 l 1319 457 l 1319 429 l 1296 429 l 1296 415 l 1376 415 l 1376 394 l 1286 394 q 1282 381 1286 388 l 1300 381 q 1275 360 1290 364 l 1260 360 q 1249 358 1256 358 l 904 358 l 904 325 l 915 325 l 915 304 l 942 304 l 942 276 l 1029 276 l 1029 271 l 1415 271 q 1449 249 1439 271 l 1372 249 q 1375 233 1375 244 l 1375 228 l 1501 228 l 1501 207 m 472 429 l 511 429 l 507 415 l 531 415 l 525 397 l 661 397 l 661 415 l 581 415 l 581 429 l 604 429 l 604 457 l 592 457 l 592 464 l 572 464 l 572 478 l 585 478 l 585 506 l 583 506 l 583 513 l 589 513 l 589 519 l 588 519 l 588 547 l 532 547 l 532 554 l 625 554 l 625 575 l 617 575 l 617 589 l 513 589 l 513 610 l 560 610 l 560 638 l 561 638 l 561 658 l 590 658 l 590 679 l 619 679 l 619 700 l 588 700 l 588 701 l 543 701 l 543 700 l 557 700 l 550 679 l 536 679 l 531 658 l 522 658 l 517 638 l 521 638 l 513 610 l 496 610 l 489 589 l 422 589 l 418 575 l 504 575 l 497 554 l 508 554 l 507 547 l 501 547 l 492 519 l 490 519 l 488 513 l 472 513 l 469 506 l 485 506 l 475 478 l 447 478 l 443 464 l 468 464 l 467 457 l 481 457 l 472 429 m 960 1242 q 954 1233 957 1236 l 931 1214 l 1015 1214 l 999 1200 l 981 1200 l 972 1193 l 988 1193 l 979 1186 l 953 1165 l 944 1158 l 947 1158 l 914 1131 l 921 1131 l 888 1103 l 878 1103 l 861 1089 l 857 1089 l 832 1068 l 824 1068 l 819 1065 q 807 1055 814 1060 q 793 1047 800 1050 l 776 1047 q 763 1044 771 1046 q 746 1042 756 1042 l 542 1042 q 526 1047 531 1042 l 542 1047 q 535 1064 535 1054 q 535 1066 535 1065 q 536 1068 536 1067 l 543 1068 q 550 1082 546 1078 l 556 1089 l 560 1089 l 571 1103 l 582 1103 l 604 1131 l 597 1131 l 619 1158 l 617 1158 l 639 1186 l 640 1186 l 646 1193 l 631 1193 l 636 1200 l 654 1200 l 665 1214 l 581 1214 l 603 1242 l 686 1242 l 694 1251 q 713 1269 704 1264 l 704 1269 q 736 1278 715 1278 l 1008 1278 q 1029 1269 1024 1278 l 1038 1269 q 1044 1250 1044 1263 q 1044 1247 1044 1249 q 1043 1242 1043 1244 l 960 1242 z "},"B":{"ha":1019,"x_min":-8,"x_max":1026,"o":"m 1011 138 l 890 138 l 876 117 l 990 117 l 978 103 l 883 103 l 876 96 l 889 96 q 856 68 872 79 l 878 68 q 856 54 868 61 l 849 54 l 836 47 l 839 47 q 832 44 836 46 q 825 40 828 43 l 821 40 q 792 29 807 35 q 760 19 776 24 l 763 19 q 726 12 744 15 q 689 6 708 8 l 693 6 q 647 1 671 3 q 596 0 622 0 l 121 0 q 101 6 108 0 l 96 6 q 83 19 89 10 l 81 19 q 76 38 76 28 l 76 40 l 81 40 l 81 47 l 78 47 l 78 54 l 85 54 l 85 68 l 63 68 l 63 96 l 50 96 l 50 103 l 144 103 l 144 117 l 29 117 l 29 138 l 150 138 l 150 165 l 50 165 l 50 172 l 49 172 l 49 186 l 122 186 l 122 200 l 71 200 l 71 214 l 117 214 l 117 235 l 76 235 l 76 256 l 101 256 l 101 263 l 81 263 l 81 304 l 71 304 l 71 318 l 78 318 l 78 339 l 69 339 l 69 360 l 46 360 l 46 374 l 17 374 l 17 388 l 90 388 l 90 394 l -8 394 l -8 401 l 85 401 l 85 408 l 60 408 l 60 415 l 75 415 l 75 429 l 65 429 l 65 450 l 67 450 l 67 471 l 72 471 l 72 478 l 76 478 l 76 492 l 110 492 l 110 519 l 132 519 l 132 540 l 81 540 l 81 568 l 71 568 l 71 582 l 54 582 l 54 603 l 76 603 l 76 631 l 40 631 l 40 638 l 79 638 l 79 644 l 126 644 l 126 658 l 147 658 l 147 665 l 42 665 l 42 686 l 81 686 l 81 707 l 75 707 l 75 721 l 76 721 l 76 735 l 72 735 l 72 756 l 69 756 l 69 763 l 93 763 l 93 769 l 49 769 l 49 790 l 64 790 l 64 797 l 69 797 l 69 832 l 76 832 l 76 839 l -1 839 l -1 846 l 33 846 l 33 867 l 111 867 l 111 888 l -6 888 l -6 894 l 32 894 l 32 908 l 42 908 l 42 936 l 39 936 q 46 957 39 947 l 96 957 q 125 972 107 972 l 586 972 q 672 968 632 972 q 746 957 711 964 l 697 957 q 733 948 715 953 q 764 936 750 943 l 767 936 q 794 924 782 931 q 819 908 807 917 l 810 908 q 820 901 815 906 q 829 894 825 897 l 792 894 l 800 888 l 917 888 q 927 877 922 882 q 936 867 932 872 l 858 867 q 867 856 863 861 q 874 846 871 851 l 839 846 l 843 839 l 921 839 l 925 832 l 918 832 q 925 818 922 825 q 931 808 928 813 q 935 797 933 803 l 928 797 l 931 790 l 915 790 q 919 780 918 785 q 922 769 921 775 l 967 769 q 967 767 967 768 q 968 763 968 765 l 944 763 q 946 756 946 760 l 949 756 l 953 735 l 957 735 q 957 728 957 732 q 958 721 957 724 q 958 714 958 718 q 960 707 958 710 l 958 707 q 960 697 960 701 q 960 686 960 692 l 947 686 l 947 681 q 947 673 947 676 q 946 665 946 669 l 971 665 q 970 663 971 664 q 969 658 969 661 l 954 658 l 953 644 l 974 644 q 972 638 974 640 l 954 638 q 953 631 953 635 q 942 603 949 618 l 919 603 l 908 582 l 925 582 q 920 575 922 579 q 915 568 918 571 l 924 568 q 899 540 913 551 l 951 540 q 925 519 938 526 l 903 519 q 882 507 893 511 q 897 500 889 504 q 911 492 904 496 l 878 492 q 897 478 886 486 l 893 478 l 901 471 l 896 471 l 917 450 l 915 450 q 924 440 919 444 q 931 429 928 435 l 940 429 l 949 415 l 933 415 l 938 408 l 963 408 q 965 401 963 407 l 872 401 l 876 394 l 975 394 q 978 388 975 393 l 904 388 q 908 381 907 385 q 910 374 908 376 l 961 374 l 965 360 l 972 360 l 976 339 l 975 339 q 977 328 976 333 q 978 318 978 324 l 976 318 l 976 304 l 975 304 l 975 290 l 981 290 q 980 276 981 283 q 978 263 979 269 l 1018 263 q 1017 260 1018 261 q 1017 256 1017 258 l 978 256 q 976 245 976 250 q 975 235 976 240 l 1014 235 l 1010 214 l 964 214 l 960 200 l 1013 200 l 1007 186 l 933 186 q 931 179 932 183 q 928 172 931 175 l 929 172 q 926 165 929 171 l 1026 165 q 1011 138 1021 151 m 388 638 l 388 631 l 424 631 l 424 607 l 540 607 q 586 631 572 607 l 590 638 l 608 638 l 611 644 l 589 644 l 593 658 l 608 658 l 608 665 l 583 665 q 585 669 585 667 q 584 678 585 674 q 582 686 583 682 l 596 686 q 588 707 594 697 q 583 715 586 711 q 576 721 579 718 q 560 730 569 726 q 540 733 551 733 l 424 733 l 424 721 l 422 721 l 422 707 l 428 707 l 428 686 l 389 686 l 389 665 l 494 665 l 494 658 l 474 658 l 474 644 l 426 644 l 426 638 l 388 638 m 428 263 l 449 263 l 449 256 l 424 256 l 424 239 l 553 239 q 578 244 568 239 q 597 256 589 249 l 636 256 q 639 260 638 258 q 642 263 640 261 l 603 263 q 615 290 611 275 l 610 290 q 611 297 611 293 q 611 304 611 301 l 613 304 l 613 318 l 614 318 q 611 328 613 324 q 607 339 610 333 l 608 339 q 593 360 601 353 l 586 360 q 558 374 576 369 l 507 374 q 493 375 503 375 l 364 375 l 364 374 l 393 374 l 393 360 l 417 360 l 417 339 l 425 339 l 425 318 l 418 318 l 418 304 l 428 304 l 428 263 z "},"C":{"ha":1018,"x_min":-129,"x_max":1174,"o":"m 1174 665 l 1174 658 l 1140 658 q 1142 644 1142 651 q 1142 631 1142 638 l 899 631 q 881 603 899 613 q 868 600 872 600 l 585 600 q 574 601 579 600 q 563 603 568 601 l 336 603 l 336 596 l 458 596 q 457 582 457 589 q 457 568 457 575 l 408 568 q 407 561 407 565 q 407 554 407 557 l 411 554 l 411 540 l 390 540 l 390 513 l 457 513 l 457 506 l 232 506 l 232 492 l 303 492 l 303 464 l 446 464 l 446 457 l 388 457 l 388 450 l 350 450 l 350 422 l 457 422 q 458 412 458 417 q 458 401 458 407 l 497 401 l 497 394 l 318 394 l 318 381 l 278 381 l 278 374 l 458 374 l 458 372 l 736 372 q 767 346 763 372 l 972 346 l 972 325 l 963 325 l 960 297 l 944 297 l 943 283 l 979 283 q 978 276 979 279 l 969 276 q 968 269 968 274 l 1014 269 l 1010 249 l 967 249 q 966 246 967 247 q 965 242 965 244 l 954 242 q 951 231 953 236 q 947 221 949 226 l 964 221 q 961 214 964 219 l 933 214 q 927 200 931 207 q 919 186 924 193 l 947 186 l 935 165 l 947 165 l 933 144 l 925 144 q 913 131 919 138 q 900 117 907 124 l 889 117 q 886 114 888 115 q 882 110 885 113 l 822 110 l 815 103 l 1094 103 q 1078 89 1086 96 q 1060 75 1069 82 l 1044 75 q 1011 54 1031 65 l 718 54 q 689 40 704 46 q 658 26 674 33 l 888 26 q 878 24 883 25 q 868 19 874 22 l 813 19 q 801 17 807 18 q 790 13 796 15 l 690 13 q 588 -8 640 -1 l 610 -8 q 564 -12 588 -11 q 517 -14 540 -14 q 466 -12 490 -14 q 418 -8 442 -11 l 396 -8 q 293 13 340 -1 l 393 13 q 383 17 388 15 q 372 19 378 18 l 429 19 l 410 26 l 181 26 q 152 40 167 33 q 124 54 138 46 l 418 54 q 401 65 410 60 q 386 75 393 69 l 401 75 q 369 103 385 88 l 89 103 q 86 107 88 106 q 82 110 85 108 l 143 110 q 140 114 142 113 q 136 117 138 115 l 147 117 q 124 144 135 131 l 132 144 l 119 165 l 107 165 l 94 186 l 67 186 l 54 214 l 83 214 l 81 221 l 63 221 q 60 231 61 226 q 56 242 58 236 l 67 242 l 64 249 l 107 249 q 104 259 106 254 q 101 269 103 264 l 79 269 q 78 276 78 272 l 54 276 q 53 283 53 279 l 54 283 q 51 297 54 289 l -28 297 l -32 325 l 75 325 q 74 335 74 331 q 72 346 74 340 l 99 346 q 99 354 99 350 q 97 363 99 358 l 97 374 l -83 374 l -83 381 l -43 381 l -43 394 l 136 394 l 136 401 l 97 401 q 97 412 97 407 q 96 422 96 417 l -11 422 l -11 450 l 26 450 l 26 457 l 85 457 l 85 464 l -58 464 l -58 492 l -129 492 l -129 506 l 96 506 l 96 513 l 29 513 l 29 540 l 50 540 l 50 554 l 46 554 l 46 568 l 96 568 l 96 596 l -25 596 l -25 603 l 242 603 l 242 610 q 243 620 243 615 q 243 631 243 625 l 169 631 q 170 644 169 638 q 172 658 171 651 l 217 658 q 218 665 218 661 l -69 665 q -68 672 -68 668 q -67 679 -68 676 l 186 679 l 193 707 l 136 707 l 140 721 l 47 721 l 50 728 l 81 728 q 83 735 82 731 q 86 742 85 739 l 71 742 l 76 756 l 83 756 q 89 766 86 761 q 93 776 92 771 l 94 776 l 107 797 l 103 797 q 109 808 106 803 q 117 818 113 813 l 106 818 q 117 833 111 825 q 128 846 122 840 l 115 846 q 118 850 117 849 q 121 853 119 851 l 107 853 l 114 860 l 111 860 q 115 864 114 863 q 118 867 117 865 l 93 867 q 100 874 96 869 q 108 881 104 878 l 142 881 q 156 891 149 886 q 169 901 163 896 l 154 901 l 165 908 l 142 908 q 147 913 144 911 q 153 915 150 914 l 225 915 q 244 926 235 921 q 264 936 254 931 l 260 936 q 276 944 268 940 q 293 950 285 947 l 319 950 q 328 954 324 953 q 339 957 333 956 l 297 957 q 386 978 339 972 l 424 978 q 538 986 478 986 q 650 978 596 986 l 614 978 q 706 957 660 972 l 747 957 q 758 954 753 956 q 768 950 763 953 l 742 950 q 776 936 763 943 l 781 936 q 801 926 792 931 q 821 915 811 921 l 750 915 q 756 913 753 914 q 761 908 758 911 l 785 908 q 790 906 788 907 q 794 901 793 904 l 810 901 l 838 881 l 803 881 l 819 867 l 844 867 l 853 860 l 854 860 l 861 853 l 875 853 l 882 846 l 894 846 q 906 833 900 840 q 917 818 911 825 l 926 818 q 934 808 931 813 q 940 797 938 803 l 944 797 q 950 787 947 792 q 956 776 953 782 l 953 776 q 958 766 956 771 q 963 756 961 761 l 956 756 l 960 742 l 975 742 l 979 728 l 949 728 q 949 725 949 726 q 950 721 950 724 l 1043 721 q 1046 707 1043 715 l 919 707 l 924 679 l 1004 679 l 1006 665 l 1174 665 m 536 707 l 635 707 q 585 715 613 715 q 536 707 557 715 m 776 640 q 774 650 775 646 q 769 658 772 654 l 803 658 l 799 665 l 632 665 q 628 673 631 669 q 622 679 625 676 l 307 679 q 303 673 306 676 q 299 665 301 669 l 586 665 l 583 658 l 539 658 q 535 645 536 653 q 532 631 533 638 l 781 631 l 776 640 m 613 346 l 435 346 l 439 325 l 332 325 q 338 310 335 317 q 344 297 340 304 l 424 297 q 429 290 426 293 q 435 283 432 286 l 432 283 l 439 276 l 463 276 q 468 273 465 275 q 474 269 471 271 l 496 269 q 553 257 519 257 q 608 269 586 257 l 563 269 l 574 276 l 582 276 l 590 283 l 554 283 q 560 290 557 286 q 565 297 564 293 l 581 297 q 594 325 589 310 l 604 325 l 607 332 q 613 346 610 340 z "},"Ć":{"ha":1018,"x_min":-129,"x_max":1174,"o":"m 1174 665 l 1174 658 l 1140 658 q 1142 644 1142 651 q 1142 631 1142 638 l 899 631 q 881 603 899 613 q 868 600 872 600 l 585 600 q 574 601 579 600 q 563 603 568 601 l 336 603 l 336 596 l 458 596 q 457 582 457 589 q 457 568 457 575 l 408 568 q 407 561 407 565 q 407 554 407 557 l 411 554 l 411 540 l 390 540 l 390 513 l 457 513 l 457 506 l 232 506 l 232 492 l 303 492 l 303 464 l 446 464 l 446 457 l 388 457 l 388 450 l 350 450 l 350 422 l 457 422 q 458 412 458 417 q 458 401 458 407 l 497 401 l 497 394 l 318 394 l 318 381 l 278 381 l 278 374 l 458 374 l 458 372 l 736 372 q 767 346 763 372 l 972 346 l 972 325 l 963 325 l 960 297 l 944 297 l 943 283 l 979 283 q 978 276 979 279 l 969 276 q 968 269 968 274 l 1014 269 l 1010 249 l 967 249 q 966 246 967 247 q 965 242 965 244 l 954 242 q 951 231 953 236 q 947 221 949 226 l 964 221 q 961 214 964 219 l 933 214 q 927 200 931 207 q 919 186 924 193 l 947 186 l 935 165 l 947 165 l 933 144 l 925 144 q 913 131 919 138 q 900 117 907 124 l 889 117 q 886 114 888 115 q 882 110 885 113 l 822 110 l 815 103 l 1094 103 q 1078 89 1086 96 q 1060 75 1069 82 l 1044 75 q 1011 54 1031 65 l 718 54 q 689 40 704 46 q 658 26 674 33 l 888 26 q 878 24 883 25 q 868 19 874 22 l 813 19 q 801 17 807 18 q 790 13 796 15 l 690 13 q 588 -8 640 -1 l 610 -8 q 564 -12 588 -11 q 517 -14 540 -14 q 466 -12 490 -14 q 418 -8 442 -11 l 396 -8 q 293 13 340 -1 l 393 13 q 383 17 388 15 q 372 19 378 18 l 429 19 l 410 26 l 181 26 q 152 40 167 33 q 124 54 138 46 l 418 54 q 401 65 410 60 q 386 75 393 69 l 401 75 q 369 103 385 88 l 89 103 q 86 107 88 106 q 82 110 85 108 l 143 110 q 140 114 142 113 q 136 117 138 115 l 147 117 q 124 144 135 131 l 132 144 l 119 165 l 107 165 l 94 186 l 67 186 l 54 214 l 83 214 l 81 221 l 63 221 q 60 231 61 226 q 56 242 58 236 l 67 242 l 64 249 l 107 249 q 104 259 106 254 q 101 269 103 264 l 79 269 q 78 276 78 272 l 54 276 q 53 283 53 279 l 54 283 q 51 297 54 289 l -28 297 l -32 325 l 75 325 q 74 335 74 331 q 72 346 74 340 l 99 346 q 99 354 99 350 q 97 363 99 358 l 97 374 l -83 374 l -83 381 l -43 381 l -43 394 l 136 394 l 136 401 l 97 401 q 97 412 97 407 q 96 422 96 417 l -11 422 l -11 450 l 26 450 l 26 457 l 85 457 l 85 464 l -58 464 l -58 492 l -129 492 l -129 506 l 96 506 l 96 513 l 29 513 l 29 540 l 50 540 l 50 554 l 46 554 l 46 568 l 96 568 l 96 596 l -25 596 l -25 603 l 242 603 l 242 610 q 243 620 243 615 q 243 631 243 625 l 169 631 q 170 644 169 638 q 172 658 171 651 l 217 658 q 218 665 218 661 l -69 665 q -68 672 -68 668 q -67 679 -68 676 l 186 679 l 193 707 l 136 707 l 140 721 l 47 721 l 50 728 l 81 728 q 83 735 82 731 q 86 742 85 739 l 71 742 l 76 756 l 83 756 q 89 766 86 761 q 93 776 92 771 l 94 776 l 107 797 l 103 797 q 109 808 106 803 q 117 818 113 813 l 106 818 q 117 833 111 825 q 128 846 122 840 l 115 846 q 118 850 117 849 q 121 853 119 851 l 107 853 l 114 860 l 111 860 q 115 864 114 863 q 118 867 117 865 l 93 867 q 100 874 96 869 q 108 881 104 878 l 142 881 q 156 891 149 886 q 169 901 163 896 l 154 901 l 165 908 l 142 908 q 147 913 144 911 q 153 915 150 914 l 225 915 q 244 926 235 921 q 264 936 254 931 l 260 936 q 276 944 268 940 q 293 950 285 947 l 319 950 q 328 954 324 953 q 339 957 333 956 l 297 957 q 386 978 339 972 l 424 978 q 538 986 478 986 q 650 978 596 986 l 614 978 q 706 957 660 972 l 747 957 q 758 954 753 956 q 768 950 763 953 l 742 950 q 776 936 763 943 l 781 936 q 801 926 792 931 q 821 915 811 921 l 750 915 q 756 913 753 914 q 761 908 758 911 l 785 908 q 790 906 788 907 q 794 901 793 904 l 810 901 l 838 881 l 803 881 l 819 867 l 844 867 l 853 860 l 854 860 l 861 853 l 875 853 l 882 846 l 894 846 q 906 833 900 840 q 917 818 911 825 l 926 818 q 934 808 931 813 q 940 797 938 803 l 944 797 q 950 787 947 792 q 956 776 953 782 l 953 776 q 958 766 956 771 q 963 756 961 761 l 956 756 l 960 742 l 975 742 l 979 728 l 949 728 q 949 725 949 726 q 950 721 950 724 l 1043 721 q 1046 707 1043 715 l 919 707 l 924 679 l 1004 679 l 1006 665 l 1174 665 m 536 707 l 635 707 q 585 715 613 715 q 536 707 557 715 m 776 640 q 774 650 775 646 q 769 658 772 654 l 803 658 l 799 665 l 632 665 q 628 673 631 669 q 622 679 625 676 l 307 679 q 303 673 306 676 q 299 665 301 669 l 586 665 l 583 658 l 539 658 q 535 645 536 653 q 532 631 533 638 l 781 631 l 776 640 m 613 346 l 435 346 l 439 325 l 332 325 q 338 310 335 317 q 344 297 340 304 l 424 297 q 429 290 426 293 q 435 283 432 286 l 432 283 l 439 276 l 463 276 q 468 273 465 275 q 474 269 471 271 l 496 269 q 553 257 519 257 q 608 269 586 257 l 563 269 l 574 276 l 582 276 l 590 283 l 554 283 q 560 290 557 286 q 565 297 564 293 l 581 297 q 594 325 589 310 l 604 325 l 607 332 q 613 346 610 340 m 771 1242 q 765 1233 768 1236 l 742 1214 l 826 1214 l 810 1200 l 792 1200 l 783 1193 l 799 1193 l 790 1186 l 764 1165 l 756 1158 l 758 1158 l 725 1131 l 732 1131 l 699 1103 l 689 1103 l 672 1089 l 668 1089 l 643 1068 l 635 1068 l 631 1065 q 618 1055 625 1060 q 604 1047 611 1050 l 588 1047 q 574 1044 582 1046 q 557 1042 567 1042 l 353 1042 q 338 1047 342 1042 l 353 1047 q 346 1064 346 1054 q 347 1066 346 1065 q 347 1068 347 1067 l 354 1068 q 361 1082 357 1078 l 367 1089 l 371 1089 l 382 1103 l 393 1103 l 415 1131 l 408 1131 l 431 1158 l 428 1158 l 450 1186 l 451 1186 l 457 1193 l 442 1193 l 447 1200 l 465 1200 l 476 1214 l 392 1214 l 414 1242 l 497 1242 l 506 1251 q 524 1269 515 1264 l 515 1269 q 547 1278 526 1278 l 819 1278 q 840 1269 835 1278 l 849 1269 q 856 1250 856 1263 q 855 1247 856 1249 q 854 1242 854 1244 l 771 1242 z "},"Č":{"ha":1018,"x_min":-129,"x_max":1174,"o":"m 1174 665 l 1174 658 l 1140 658 q 1142 644 1142 651 q 1142 631 1142 638 l 899 631 q 881 603 899 613 q 868 600 872 600 l 585 600 q 574 601 579 600 q 563 603 568 601 l 336 603 l 336 596 l 458 596 q 457 582 457 589 q 457 568 457 575 l 408 568 q 407 561 407 565 q 407 554 407 557 l 411 554 l 411 540 l 390 540 l 390 513 l 457 513 l 457 506 l 232 506 l 232 492 l 303 492 l 303 464 l 446 464 l 446 457 l 388 457 l 388 450 l 350 450 l 350 422 l 457 422 q 458 412 458 417 q 458 401 458 407 l 497 401 l 497 394 l 318 394 l 318 381 l 278 381 l 278 374 l 458 374 l 458 372 l 736 372 q 767 346 763 372 l 972 346 l 972 325 l 963 325 l 960 297 l 944 297 l 943 283 l 979 283 q 978 276 979 279 l 969 276 q 968 269 968 274 l 1014 269 l 1010 249 l 967 249 q 966 246 967 247 q 965 242 965 244 l 954 242 q 951 231 953 236 q 947 221 949 226 l 964 221 q 961 214 964 219 l 933 214 q 927 200 931 207 q 919 186 924 193 l 947 186 l 935 165 l 947 165 l 933 144 l 925 144 q 913 131 919 138 q 900 117 907 124 l 889 117 q 886 114 888 115 q 882 110 885 113 l 822 110 l 815 103 l 1094 103 q 1078 89 1086 96 q 1060 75 1069 82 l 1044 75 q 1011 54 1031 65 l 718 54 q 689 40 704 46 q 658 26 674 33 l 888 26 q 878 24 883 25 q 868 19 874 22 l 813 19 q 801 17 807 18 q 790 13 796 15 l 690 13 q 588 -8 640 -1 l 610 -8 q 564 -12 588 -11 q 517 -14 540 -14 q 466 -12 490 -14 q 418 -8 442 -11 l 396 -8 q 293 13 340 -1 l 393 13 q 383 17 388 15 q 372 19 378 18 l 429 19 l 410 26 l 181 26 q 152 40 167 33 q 124 54 138 46 l 418 54 q 401 65 410 60 q 386 75 393 69 l 401 75 q 369 103 385 88 l 89 103 q 86 107 88 106 q 82 110 85 108 l 143 110 q 140 114 142 113 q 136 117 138 115 l 147 117 q 124 144 135 131 l 132 144 l 119 165 l 107 165 l 94 186 l 67 186 l 54 214 l 83 214 l 81 221 l 63 221 q 60 231 61 226 q 56 242 58 236 l 67 242 l 64 249 l 107 249 q 104 259 106 254 q 101 269 103 264 l 79 269 q 78 276 78 272 l 54 276 q 53 283 53 279 l 54 283 q 51 297 54 289 l -28 297 l -32 325 l 75 325 q 74 335 74 331 q 72 346 74 340 l 99 346 q 99 354 99 350 q 97 363 99 358 l 97 374 l -83 374 l -83 381 l -43 381 l -43 394 l 136 394 l 136 401 l 97 401 q 97 412 97 407 q 96 422 96 417 l -11 422 l -11 450 l 26 450 l 26 457 l 85 457 l 85 464 l -58 464 l -58 492 l -129 492 l -129 506 l 96 506 l 96 513 l 29 513 l 29 540 l 50 540 l 50 554 l 46 554 l 46 568 l 96 568 l 96 596 l -25 596 l -25 603 l 242 603 l 242 610 q 243 620 243 615 q 243 631 243 625 l 169 631 q 170 644 169 638 q 172 658 171 651 l 217 658 q 218 665 218 661 l -69 665 q -68 672 -68 668 q -67 679 -68 676 l 186 679 l 193 707 l 136 707 l 140 721 l 47 721 l 50 728 l 81 728 q 83 735 82 731 q 86 742 85 739 l 71 742 l 76 756 l 83 756 q 89 766 86 761 q 93 776 92 771 l 94 776 l 107 797 l 103 797 q 109 808 106 803 q 117 818 113 813 l 106 818 q 117 833 111 825 q 128 846 122 840 l 115 846 q 118 850 117 849 q 121 853 119 851 l 107 853 l 114 860 l 111 860 q 115 864 114 863 q 118 867 117 865 l 93 867 q 100 874 96 869 q 108 881 104 878 l 142 881 q 156 891 149 886 q 169 901 163 896 l 154 901 l 165 908 l 142 908 q 147 913 144 911 q 153 915 150 914 l 225 915 q 244 926 235 921 q 264 936 254 931 l 260 936 q 276 944 268 940 q 293 950 285 947 l 319 950 q 328 954 324 953 q 339 957 333 956 l 297 957 q 386 978 339 972 l 424 978 q 538 986 478 986 q 650 978 596 986 l 614 978 q 706 957 660 972 l 747 957 q 758 954 753 956 q 768 950 763 953 l 742 950 q 776 936 763 943 l 781 936 q 801 926 792 931 q 821 915 811 921 l 750 915 q 756 913 753 914 q 761 908 758 911 l 785 908 q 790 906 788 907 q 794 901 793 904 l 810 901 l 838 881 l 803 881 l 819 867 l 844 867 l 853 860 l 854 860 l 861 853 l 875 853 l 882 846 l 894 846 q 906 833 900 840 q 917 818 911 825 l 926 818 q 934 808 931 813 q 940 797 938 803 l 944 797 q 950 787 947 792 q 956 776 953 782 l 953 776 q 958 766 956 771 q 963 756 961 761 l 956 756 l 960 742 l 975 742 l 979 728 l 949 728 q 949 725 949 726 q 950 721 950 724 l 1043 721 q 1046 707 1043 715 l 919 707 l 924 679 l 1004 679 l 1006 665 l 1174 665 m 536 707 l 635 707 q 585 715 613 715 q 536 707 557 715 m 776 640 q 774 650 775 646 q 769 658 772 654 l 803 658 l 799 665 l 632 665 q 628 673 631 669 q 622 679 625 676 l 307 679 q 303 673 306 676 q 299 665 301 669 l 586 665 l 583 658 l 539 658 q 535 645 536 653 q 532 631 533 638 l 781 631 l 776 640 m 613 346 l 435 346 l 439 325 l 332 325 q 338 310 335 317 q 344 297 340 304 l 424 297 q 429 290 426 293 q 435 283 432 286 l 432 283 l 439 276 l 463 276 q 468 273 465 275 q 474 269 471 271 l 496 269 q 553 257 519 257 q 608 269 586 257 l 563 269 l 574 276 l 582 276 l 590 283 l 554 283 q 560 290 557 286 q 565 297 564 293 l 581 297 q 594 325 589 310 l 604 325 l 607 332 q 613 346 610 340 m 811 1242 l 818 1242 l 815 1238 l 806 1228 l 801 1228 l 794 1221 l 775 1200 l 772 1200 l 747 1172 l 750 1172 l 724 1144 l 719 1144 l 701 1124 l 715 1124 l 696 1103 l 676 1103 l 664 1089 l 678 1089 l 658 1068 q 655 1065 657 1067 q 651 1061 653 1064 l 622 1061 q 603 1047 613 1051 l 628 1047 q 601 1042 618 1042 l 421 1042 q 396 1047 406 1042 l 371 1047 q 351 1061 361 1051 l 382 1061 q 378 1065 381 1064 q 375 1068 376 1067 l 356 1089 l 343 1089 l 329 1103 l 349 1103 l 329 1124 l 315 1124 l 296 1144 l 300 1144 l 275 1172 l 272 1172 l 247 1200 l 250 1200 l 231 1221 l 235 1221 l 229 1228 l 235 1228 l 226 1238 q 224 1242 224 1240 l 214 1242 q 210 1256 210 1249 q 210 1260 210 1258 q 211 1263 211 1261 l 204 1263 q 225 1278 208 1278 l 324 1278 q 351 1276 338 1278 q 379 1268 365 1275 l 392 1263 l 399 1263 l 444 1242 l 454 1242 l 485 1228 l 478 1228 l 493 1221 l 489 1221 l 513 1210 l 538 1221 l 553 1228 l 557 1228 l 588 1242 l 581 1242 l 626 1263 l 624 1263 l 636 1268 q 665 1276 651 1275 q 692 1278 678 1278 l 790 1278 q 811 1263 808 1278 l 814 1263 l 814 1256 q 811 1242 814 1250 z "},"Ç":{"ha":1018,"x_min":-101,"x_max":1036,"o":"m 1021 297 l 1036 297 q 1035 290 1035 294 q 1033 283 1035 286 l 1029 283 q 1028 276 1029 279 l 972 276 q 970 263 971 269 q 967 249 969 256 l 972 249 q 968 235 971 242 q 963 221 965 228 l 938 221 q 935 214 938 219 l 944 214 l 939 200 l 928 200 q 913 172 922 186 l 1029 172 l 1021 158 l 865 158 q 860 151 863 156 q 854 144 857 147 l 838 144 q 832 138 833 140 l 688 138 l 669 117 l 975 117 q 960 103 968 110 q 944 89 953 96 l 928 89 l 919 82 l 776 82 l 756 68 l 864 68 q 858 65 861 67 q 853 61 856 64 l 831 61 q 803 47 817 54 q 775 33 790 40 l 776 33 q 718 13 747 21 l 694 13 q 599 -8 649 -1 q 500 -14 550 -14 l 499 -15 l 507 -15 l 504 -22 l 501 -22 l 494 -36 l 499 -36 l 492 -50 l 560 -50 l 553 -62 q 576 -58 561 -60 q 594 -56 590 -56 q 664 -78 635 -56 l 635 -78 q 642 -84 638 -81 q 649 -92 646 -87 l 617 -92 q 622 -99 621 -96 l 640 -99 l 644 -106 l 615 -106 l 619 -112 l 521 -112 l 526 -126 l 529 -126 q 533 -140 532 -132 q 536 -154 535 -147 l 440 -154 q 419 -154 431 -156 l 426 -154 q 400 -147 415 -147 q 381 -149 390 -147 q 360 -154 371 -151 l 338 -154 q 325 -147 329 -151 l 304 -126 l 303 -126 l 294 -118 q 292 -115 293 -117 q 289 -112 290 -114 l 388 -112 q 383 -106 383 -108 l 413 -106 q 411 -99 411 -103 l 393 -99 q 394 -92 393 -94 l 425 -92 q 431 -78 428 -83 l 460 -78 q 463 -72 463 -75 l 472 -50 l 406 -50 l 411 -36 l 407 -36 l 413 -22 l 415 -22 l 418 -15 l 408 -15 l 413 -8 q 301 13 354 -3 l 324 13 q 267 33 293 21 l 265 33 q 214 61 238 46 l 236 61 l 225 68 l 118 68 q 108 75 113 71 q 99 82 104 79 l 243 82 q 238 86 240 85 q 233 89 236 88 l 250 89 q 235 103 243 96 q 221 117 228 110 l -85 117 q -94 127 -89 122 q -101 138 -99 132 l 42 138 q 36 144 40 140 l 54 144 l 44 158 l 200 158 l 192 172 l 76 172 q 61 200 67 186 l 72 200 q 69 207 71 203 q 67 214 68 211 l 57 214 l 54 221 l 79 221 q 74 235 76 228 q 69 249 72 242 l 64 249 q 60 263 63 256 q 57 276 58 269 l 58 276 q 57 283 57 279 l 35 283 q 32 297 32 292 l 267 297 q 263 325 263 313 l 104 325 l 101 353 l 189 353 l 189 360 l 233 360 l 233 374 l 149 374 l 149 388 l 229 388 q 228 398 228 393 q 228 408 228 403 l -8 408 l -8 422 l 71 422 l 71 436 l 61 436 q 60 443 60 439 q 60 450 60 447 l 64 450 l 64 457 l 50 457 q 49 471 50 464 q 50 485 49 478 l 40 485 l 40 506 l 54 506 l 54 533 l 36 533 l 36 540 l 78 540 q 78 547 78 543 q 79 554 78 551 l 54 554 l 54 575 l 68 575 l 68 582 l 100 582 l 100 589 l 58 589 l 58 596 l 44 596 l 44 603 l 51 603 l 51 610 q 52 620 51 615 q 53 631 53 625 l 76 631 l 81 658 l 54 658 l 58 686 l 69 686 q 73 701 71 693 q 76 714 75 708 l 75 714 l 79 728 l 75 728 l 83 749 l 79 749 l 85 763 l 100 763 q 106 773 103 768 q 110 783 108 778 l 85 783 l 97 804 l 79 804 l 83 811 l 103 811 q 113 826 108 818 q 124 839 118 833 l 128 839 l 135 846 l 121 846 l 142 867 l 143 867 q 155 877 149 872 q 167 888 161 882 l 193 888 q 207 898 200 893 q 221 908 214 903 l 271 908 q 296 923 283 915 q 322 936 308 931 l 324 936 q 400 964 361 954 l 429 964 q 515 981 469 975 q 608 986 561 986 q 701 981 656 986 q 789 964 746 975 l 761 964 q 802 951 782 958 q 840 936 822 944 l 839 936 q 865 923 853 931 q 890 908 878 915 l 840 908 q 856 898 849 903 q 871 888 864 893 l 844 888 l 869 867 l 868 867 l 889 846 l 901 846 q 904 843 903 844 q 907 839 906 842 l 901 839 q 922 811 913 828 l 903 811 l 907 804 l 926 804 q 933 794 929 799 q 938 783 936 789 l 963 783 l 974 763 l 958 763 l 964 749 l 967 749 q 971 738 969 743 q 974 728 972 733 l 978 728 l 982 714 l 967 714 q 970 701 969 708 q 972 686 971 693 l 996 686 l 1000 658 l 983 658 q 984 644 983 651 q 985 631 985 638 l 1006 631 q 988 603 1006 613 q 975 600 979 600 l 692 600 q 679 601 685 600 q 669 603 674 601 q 644 631 653 608 l 624 631 l 619 640 q 616 650 618 646 q 613 658 614 654 l 629 658 q 610 686 621 675 l 586 686 q 531 714 565 710 l 546 714 q 535 715 540 715 q 524 715 529 715 q 513 715 518 715 q 501 714 507 715 q 446 686 465 710 l 436 686 q 419 658 426 676 l 446 658 q 442 645 444 653 q 439 631 440 638 l 415 631 q 413 617 414 625 q 413 603 413 610 l 407 603 q 406 600 407 601 q 406 596 406 599 l 419 596 l 419 589 l 461 589 l 461 582 l 429 582 l 429 575 l 415 575 l 415 554 l 440 554 l 439 540 l 397 540 l 397 533 l 415 533 l 415 506 l 401 506 l 401 485 l 411 485 l 411 457 l 425 457 l 425 450 l 421 450 q 422 443 422 447 q 422 436 422 439 l 432 436 l 433 422 l 353 422 l 353 408 l 589 408 q 590 398 589 403 q 590 388 590 393 l 510 388 l 510 374 l 594 374 l 594 360 l 550 360 q 551 353 550 356 l 464 353 l 468 325 l 563 325 q 565 332 565 331 q 574 353 569 344 l 678 353 q 682 360 681 358 q 719 372 693 372 l 1003 372 q 1028 360 1018 372 l 1032 353 l 929 353 q 931 342 931 350 l 931 325 l 1022 325 q 1022 311 1022 318 q 1021 297 1021 304 m 640 283 l 644 283 q 651 290 647 286 q 657 297 654 293 l 642 297 q 656 325 650 310 l 626 325 q 632 310 629 317 q 638 297 635 304 l 404 297 q 414 283 408 289 l 436 283 q 440 281 439 282 q 443 276 442 279 l 442 276 q 510 257 467 257 q 546 262 529 257 q 576 276 563 267 l 632 276 l 640 283 m 606 -154 l 715 -154 q 717 -167 717 -160 q 717 -181 717 -174 l 717 -182 l 629 -182 q 629 -192 629 -187 q 628 -203 629 -197 l 688 -203 q 685 -217 685 -211 l 521 -217 l 517 -231 l 557 -231 q 551 -241 554 -236 q 544 -251 549 -246 l 625 -251 q 606 -272 618 -262 l 535 -272 q 526 -280 531 -276 q 515 -286 521 -283 l 569 -286 q 535 -300 551 -296 l 556 -300 q 511 -306 539 -306 q 488 -304 500 -306 q 465 -300 476 -303 l 444 -300 q 407 -286 424 -296 l 353 -286 q 333 -272 339 -279 l 404 -272 q 393 -251 393 -261 l 313 -251 q 321 -235 313 -243 l 326 -231 l 286 -231 l 303 -217 l 465 -217 l 474 -210 q 485 -203 479 -204 l 500 -203 q 520 -209 508 -204 q 551 -214 532 -214 q 582 -203 571 -214 l 522 -203 q 531 -182 531 -194 l 618 -182 l 618 -181 q 606 -154 618 -164 m 442 -203 q 458 -203 450 -200 l 442 -203 z "},"Ĉ":{"ha":1018,"x_min":-129,"x_max":1174,"o":"m 1174 665 l 1174 658 l 1140 658 q 1142 644 1142 651 q 1142 631 1142 638 l 899 631 q 881 603 899 613 q 868 600 872 600 l 585 600 q 574 601 579 600 q 563 603 568 601 l 336 603 l 336 596 l 458 596 q 457 582 457 589 q 457 568 457 575 l 408 568 q 407 561 407 565 q 407 554 407 557 l 411 554 l 411 540 l 390 540 l 390 513 l 457 513 l 457 506 l 232 506 l 232 492 l 303 492 l 303 464 l 446 464 l 446 457 l 388 457 l 388 450 l 350 450 l 350 422 l 457 422 q 458 412 458 417 q 458 401 458 407 l 497 401 l 497 394 l 318 394 l 318 381 l 278 381 l 278 374 l 458 374 l 458 372 l 736 372 q 767 346 763 372 l 972 346 l 972 325 l 963 325 l 960 297 l 944 297 l 943 283 l 979 283 q 978 276 979 279 l 969 276 q 968 269 968 274 l 1014 269 l 1010 249 l 967 249 q 966 246 967 247 q 965 242 965 244 l 954 242 q 951 231 953 236 q 947 221 949 226 l 964 221 q 961 214 964 219 l 933 214 q 927 200 931 207 q 919 186 924 193 l 947 186 l 935 165 l 947 165 l 933 144 l 925 144 q 913 131 919 138 q 900 117 907 124 l 889 117 q 886 114 888 115 q 882 110 885 113 l 822 110 l 815 103 l 1094 103 q 1078 89 1086 96 q 1060 75 1069 82 l 1044 75 q 1011 54 1031 65 l 718 54 q 689 40 704 46 q 658 26 674 33 l 888 26 q 878 24 883 25 q 868 19 874 22 l 813 19 q 801 17 807 18 q 790 13 796 15 l 690 13 q 588 -8 640 -1 l 610 -8 q 564 -12 588 -11 q 517 -14 540 -14 q 466 -12 490 -14 q 418 -8 442 -11 l 396 -8 q 293 13 340 -1 l 393 13 q 383 17 388 15 q 372 19 378 18 l 429 19 l 410 26 l 181 26 q 152 40 167 33 q 124 54 138 46 l 418 54 q 401 65 410 60 q 386 75 393 69 l 401 75 q 369 103 385 88 l 89 103 q 86 107 88 106 q 82 110 85 108 l 143 110 q 140 114 142 113 q 136 117 138 115 l 147 117 q 124 144 135 131 l 132 144 l 119 165 l 107 165 l 94 186 l 67 186 l 54 214 l 83 214 l 81 221 l 63 221 q 60 231 61 226 q 56 242 58 236 l 67 242 l 64 249 l 107 249 q 104 259 106 254 q 101 269 103 264 l 79 269 q 78 276 78 272 l 54 276 q 53 283 53 279 l 54 283 q 51 297 54 289 l -28 297 l -32 325 l 75 325 q 74 335 74 331 q 72 346 74 340 l 99 346 q 99 354 99 350 q 97 363 99 358 l 97 374 l -83 374 l -83 381 l -43 381 l -43 394 l 136 394 l 136 401 l 97 401 q 97 412 97 407 q 96 422 96 417 l -11 422 l -11 450 l 26 450 l 26 457 l 85 457 l 85 464 l -58 464 l -58 492 l -129 492 l -129 506 l 96 506 l 96 513 l 29 513 l 29 540 l 50 540 l 50 554 l 46 554 l 46 568 l 96 568 l 96 596 l -25 596 l -25 603 l 242 603 l 242 610 q 243 620 243 615 q 243 631 243 625 l 169 631 q 170 644 169 638 q 172 658 171 651 l 217 658 q 218 665 218 661 l -69 665 q -68 672 -68 668 q -67 679 -68 676 l 186 679 l 193 707 l 136 707 l 140 721 l 47 721 l 50 728 l 81 728 q 83 735 82 731 q 86 742 85 739 l 71 742 l 76 756 l 83 756 q 89 766 86 761 q 93 776 92 771 l 94 776 l 107 797 l 103 797 q 109 808 106 803 q 117 818 113 813 l 106 818 q 117 833 111 825 q 128 846 122 840 l 115 846 q 118 850 117 849 q 121 853 119 851 l 107 853 l 114 860 l 111 860 q 115 864 114 863 q 118 867 117 865 l 93 867 q 100 874 96 869 q 108 881 104 878 l 142 881 q 156 891 149 886 q 169 901 163 896 l 154 901 l 165 908 l 142 908 q 147 913 144 911 q 153 915 150 914 l 225 915 q 244 926 235 921 q 264 936 254 931 l 260 936 q 276 944 268 940 q 293 950 285 947 l 319 950 q 328 954 324 953 q 339 957 333 956 l 297 957 q 386 978 339 972 l 424 978 q 538 986 478 986 q 650 978 596 986 l 614 978 q 706 957 660 972 l 747 957 q 758 954 753 956 q 768 950 763 953 l 742 950 q 776 936 763 943 l 781 936 q 801 926 792 931 q 821 915 811 921 l 750 915 q 756 913 753 914 q 761 908 758 911 l 785 908 q 790 906 788 907 q 794 901 793 904 l 810 901 l 838 881 l 803 881 l 819 867 l 844 867 l 853 860 l 854 860 l 861 853 l 875 853 l 882 846 l 894 846 q 906 833 900 840 q 917 818 911 825 l 926 818 q 934 808 931 813 q 940 797 938 803 l 944 797 q 950 787 947 792 q 956 776 953 782 l 953 776 q 958 766 956 771 q 963 756 961 761 l 956 756 l 960 742 l 975 742 l 979 728 l 949 728 q 949 725 949 726 q 950 721 950 724 l 1043 721 q 1046 707 1043 715 l 919 707 l 924 679 l 1004 679 l 1006 665 l 1174 665 m 536 707 l 635 707 q 585 715 613 715 q 536 707 557 715 m 776 640 q 774 650 775 646 q 769 658 772 654 l 803 658 l 799 665 l 632 665 q 628 673 631 669 q 622 679 625 676 l 307 679 q 303 673 306 676 q 299 665 301 669 l 586 665 l 583 658 l 539 658 q 535 645 536 653 q 532 631 533 638 l 781 631 l 776 640 m 613 346 l 435 346 l 439 325 l 332 325 q 338 310 335 317 q 344 297 340 304 l 424 297 q 429 290 426 293 q 435 283 432 286 l 432 283 l 439 276 l 463 276 q 468 273 465 275 q 474 269 471 271 l 496 269 q 553 257 519 257 q 608 269 586 257 l 563 269 l 574 276 l 582 276 l 590 283 l 554 283 q 560 290 557 286 q 565 297 564 293 l 581 297 q 594 325 589 310 l 604 325 l 607 332 q 613 346 610 340 m 801 1103 l 821 1082 q 828 1064 828 1075 l 828 1061 l 818 1061 q 817 1054 818 1057 l 828 1054 q 824 1047 825 1049 l 826 1047 q 810 1042 821 1042 l 711 1042 q 689 1042 700 1042 q 665 1047 678 1043 l 664 1047 l 653 1051 l 647 1054 l 636 1054 l 621 1061 l 629 1061 l 585 1082 l 539 1103 l 508 1103 l 417 1061 l 403 1061 l 388 1054 l 392 1054 l 386 1051 l 376 1047 l 314 1047 q 290 1042 301 1043 q 268 1042 279 1042 l 169 1042 q 153 1047 158 1042 l 215 1047 q 211 1054 214 1049 l 207 1054 q 206 1058 207 1057 q 206 1061 206 1060 l 219 1061 l 219 1064 q 226 1082 219 1075 l 246 1103 l 301 1103 l 326 1131 l 264 1131 l 289 1158 l 339 1158 l 346 1165 l 293 1165 l 313 1186 l 331 1186 l 343 1200 l 307 1200 l 326 1221 l 381 1221 l 388 1228 l 343 1228 l 364 1251 l 368 1256 l 389 1256 l 396 1263 l 443 1263 q 483 1278 460 1278 l 664 1278 q 704 1263 685 1278 l 657 1263 q 664 1256 661 1260 l 643 1256 l 647 1251 l 669 1228 l 714 1228 l 721 1221 l 665 1221 l 685 1200 l 721 1200 l 733 1186 l 717 1186 l 735 1165 l 788 1165 l 793 1158 l 743 1158 l 768 1131 l 832 1131 l 857 1103 l 801 1103 m 564 1103 l 594 1103 l 579 1110 l 564 1103 z "},"Ċ":{"ha":1018,"x_min":-129,"x_max":1174,"o":"m 1174 665 l 1174 658 l 1140 658 q 1142 644 1142 651 q 1142 631 1142 638 l 899 631 q 881 603 899 613 q 868 600 872 600 l 585 600 q 574 601 579 600 q 563 603 568 601 l 336 603 l 336 596 l 458 596 q 457 582 457 589 q 457 568 457 575 l 408 568 q 407 561 407 565 q 407 554 407 557 l 411 554 l 411 540 l 390 540 l 390 513 l 457 513 l 457 506 l 232 506 l 232 492 l 303 492 l 303 464 l 446 464 l 446 457 l 388 457 l 388 450 l 350 450 l 350 422 l 457 422 q 458 412 458 417 q 458 401 458 407 l 497 401 l 497 394 l 318 394 l 318 381 l 278 381 l 278 374 l 458 374 l 458 372 l 736 372 q 767 346 763 372 l 972 346 l 972 325 l 963 325 l 960 297 l 944 297 l 943 283 l 979 283 q 978 276 979 279 l 969 276 q 968 269 968 274 l 1014 269 l 1010 249 l 967 249 q 966 246 967 247 q 965 242 965 244 l 954 242 q 951 231 953 236 q 947 221 949 226 l 964 221 q 961 214 964 219 l 933 214 q 927 200 931 207 q 919 186 924 193 l 947 186 l 935 165 l 947 165 l 933 144 l 925 144 q 913 131 919 138 q 900 117 907 124 l 889 117 q 886 114 888 115 q 882 110 885 113 l 822 110 l 815 103 l 1094 103 q 1078 89 1086 96 q 1060 75 1069 82 l 1044 75 q 1011 54 1031 65 l 718 54 q 689 40 704 46 q 658 26 674 33 l 888 26 q 878 24 883 25 q 868 19 874 22 l 813 19 q 801 17 807 18 q 790 13 796 15 l 690 13 q 588 -8 640 -1 l 610 -8 q 564 -12 588 -11 q 517 -14 540 -14 q 466 -12 490 -14 q 418 -8 442 -11 l 396 -8 q 293 13 340 -1 l 393 13 q 383 17 388 15 q 372 19 378 18 l 429 19 l 410 26 l 181 26 q 152 40 167 33 q 124 54 138 46 l 418 54 q 401 65 410 60 q 386 75 393 69 l 401 75 q 369 103 385 88 l 89 103 q 86 107 88 106 q 82 110 85 108 l 143 110 q 140 114 142 113 q 136 117 138 115 l 147 117 q 124 144 135 131 l 132 144 l 119 165 l 107 165 l 94 186 l 67 186 l 54 214 l 83 214 l 81 221 l 63 221 q 60 231 61 226 q 56 242 58 236 l 67 242 l 64 249 l 107 249 q 104 259 106 254 q 101 269 103 264 l 79 269 q 78 276 78 272 l 54 276 q 53 283 53 279 l 54 283 q 51 297 54 289 l -28 297 l -32 325 l 75 325 q 74 335 74 331 q 72 346 74 340 l 99 346 q 99 354 99 350 q 97 363 99 358 l 97 374 l -83 374 l -83 381 l -43 381 l -43 394 l 136 394 l 136 401 l 97 401 q 97 412 97 407 q 96 422 96 417 l -11 422 l -11 450 l 26 450 l 26 457 l 85 457 l 85 464 l -58 464 l -58 492 l -129 492 l -129 506 l 96 506 l 96 513 l 29 513 l 29 540 l 50 540 l 50 554 l 46 554 l 46 568 l 96 568 l 96 596 l -25 596 l -25 603 l 242 603 l 242 610 q 243 620 243 615 q 243 631 243 625 l 169 631 q 170 644 169 638 q 172 658 171 651 l 217 658 q 218 665 218 661 l -69 665 q -68 672 -68 668 q -67 679 -68 676 l 186 679 l 193 707 l 136 707 l 140 721 l 47 721 l 50 728 l 81 728 q 83 735 82 731 q 86 742 85 739 l 71 742 l 76 756 l 83 756 q 89 766 86 761 q 93 776 92 771 l 94 776 l 107 797 l 103 797 q 109 808 106 803 q 117 818 113 813 l 106 818 q 117 833 111 825 q 128 846 122 840 l 115 846 q 118 850 117 849 q 121 853 119 851 l 107 853 l 114 860 l 111 860 q 115 864 114 863 q 118 867 117 865 l 93 867 q 100 874 96 869 q 108 881 104 878 l 142 881 q 156 891 149 886 q 169 901 163 896 l 154 901 l 165 908 l 142 908 q 147 913 144 911 q 153 915 150 914 l 225 915 q 244 926 235 921 q 264 936 254 931 l 260 936 q 276 944 268 940 q 293 950 285 947 l 319 950 q 328 954 324 953 q 339 957 333 956 l 297 957 q 386 978 339 972 l 424 978 q 538 986 478 986 q 650 978 596 986 l 614 978 q 706 957 660 972 l 747 957 q 758 954 753 956 q 768 950 763 953 l 742 950 q 776 936 763 943 l 781 936 q 801 926 792 931 q 821 915 811 921 l 750 915 q 756 913 753 914 q 761 908 758 911 l 785 908 q 790 906 788 907 q 794 901 793 904 l 810 901 l 838 881 l 803 881 l 819 867 l 844 867 l 853 860 l 854 860 l 861 853 l 875 853 l 882 846 l 894 846 q 906 833 900 840 q 917 818 911 825 l 926 818 q 934 808 931 813 q 940 797 938 803 l 944 797 q 950 787 947 792 q 956 776 953 782 l 953 776 q 958 766 956 771 q 963 756 961 761 l 956 756 l 960 742 l 975 742 l 979 728 l 949 728 q 949 725 949 726 q 950 721 950 724 l 1043 721 q 1046 707 1043 715 l 919 707 l 924 679 l 1004 679 l 1006 665 l 1174 665 m 536 707 l 635 707 q 585 715 613 715 q 536 707 557 715 m 776 640 q 774 650 775 646 q 769 658 772 654 l 803 658 l 799 665 l 632 665 q 628 673 631 669 q 622 679 625 676 l 307 679 q 303 673 306 676 q 299 665 301 669 l 586 665 l 583 658 l 539 658 q 535 645 536 653 q 532 631 533 638 l 781 631 l 776 640 m 613 346 l 435 346 l 439 325 l 332 325 q 338 310 335 317 q 344 297 340 304 l 424 297 q 429 290 426 293 q 435 283 432 286 l 432 283 l 439 276 l 463 276 q 468 273 465 275 q 474 269 471 271 l 496 269 q 553 257 519 257 q 608 269 586 257 l 563 269 l 574 276 l 582 276 l 590 283 l 554 283 q 560 290 557 286 q 565 297 564 293 l 581 297 q 594 325 589 310 l 604 325 l 607 332 q 613 346 610 340 m 636 1242 l 628 1242 l 628 1214 l 638 1214 l 638 1200 l 635 1200 l 635 1172 l 633 1172 l 633 1144 l 639 1144 l 639 1117 l 635 1117 l 635 1096 l 636 1096 l 636 1074 q 635 1068 636 1069 q 622 1047 632 1053 q 604 1042 615 1042 l 415 1042 q 397 1047 403 1042 l 396 1047 q 383 1068 386 1053 l 383 1096 l 382 1096 l 382 1117 l 386 1117 l 386 1144 l 381 1144 l 381 1172 l 382 1172 l 382 1200 l 385 1200 l 385 1214 l 375 1214 l 375 1242 l 383 1242 l 383 1256 l 388 1256 l 388 1263 q 394 1283 388 1274 l 390 1283 q 415 1294 399 1294 l 604 1294 q 628 1283 619 1294 l 633 1283 q 640 1263 640 1274 l 640 1256 l 636 1256 l 636 1242 z "},"D":{"ha":1028,"x_min":-56,"x_max":1157,"o":"m 1135 756 q 1140 745 1138 750 q 1144 735 1143 740 l 1093 735 q 1099 722 1096 729 q 1104 707 1101 714 l 886 707 l 894 679 l 1007 679 l 1011 658 l 996 658 q 997 651 997 656 q 999 644 997 647 l 961 644 l 963 631 l 992 631 q 992 620 992 625 q 993 610 993 615 l 1044 610 q 1046 600 1046 604 q 1046 590 1046 596 l 1046 589 l 915 589 q 916 575 915 582 q 917 561 917 568 l 946 561 q 947 547 946 554 q 947 533 947 540 l 997 533 l 997 526 l 978 526 l 978 499 l 983 499 l 983 478 l 1065 478 l 1065 450 l 988 450 l 988 436 l 979 436 q 979 429 979 433 q 978 422 979 425 l 953 422 l 953 394 l 956 394 q 954 383 954 390 l 954 381 l 1006 381 q 1005 370 1006 375 q 1004 360 1004 365 l 1025 360 q 1024 346 1025 353 q 1022 332 1024 339 l 992 332 q 990 325 990 329 q 989 318 990 321 l 822 318 q 819 304 822 313 l 965 304 q 963 290 963 296 l 983 290 q 981 280 982 285 q 978 269 981 275 l 974 256 l 933 256 l 931 249 l 996 249 q 993 242 993 243 l 951 242 l 949 235 l 947 235 q 942 221 944 228 q 935 207 939 214 l 914 207 l 899 179 l 922 179 l 914 165 l 915 165 q 910 158 913 163 q 904 151 907 154 l 894 151 q 889 144 890 147 q 881 134 885 139 q 871 124 876 129 l 867 124 q 852 110 860 117 q 836 96 844 103 l 849 96 l 819 75 l 821 75 q 797 61 810 68 q 771 47 785 54 l 769 47 q 735 33 756 40 l 736 33 q 678 17 708 24 q 615 6 647 10 l 644 6 q 599 1 622 3 q 550 0 575 0 l 143 0 q 124 6 131 0 l 94 6 q 78 33 81 14 l 76 33 l 76 47 l 79 47 l 79 75 l 76 75 l 76 96 l 65 96 l 65 124 l 69 124 l 69 144 l 68 144 l 68 151 l 79 151 l 79 165 l 78 165 l 78 179 l 53 179 l 53 207 l 75 207 l 75 235 l 76 235 l 76 242 l 118 242 l 118 249 l 54 249 l 54 256 l 94 256 l 94 290 l 75 290 l 75 304 l 74 304 l 74 318 l 110 318 l 110 332 l -50 332 l -50 360 l -56 360 l -56 381 l -37 381 l -37 394 l 19 394 l 19 422 l 56 422 l 56 436 l 76 436 l 76 450 l 99 450 l 99 478 l 131 478 l 131 499 l 161 499 l 161 526 l 68 526 l 68 533 l 38 533 l 38 561 l -24 561 l -24 589 l 135 589 l 135 610 l 13 610 l 13 631 l 79 631 l 79 644 l 76 644 l 76 658 l 65 658 l 65 679 l 6 679 l 6 707 l 222 707 l 222 735 l 274 735 l 274 756 l 24 756 l 24 783 l 188 783 l 188 790 l 58 790 l 58 797 l 321 797 l 321 825 l 288 825 l 288 832 l -43 832 l -43 860 l -3 860 l -3 881 l 83 881 l 83 888 l 129 888 l 129 901 l 104 901 l 104 908 l 75 908 l 75 922 l 78 922 l 78 935 q 78 940 78 938 q 79 943 79 942 l 85 943 q 122 972 92 972 l 522 972 q 717 943 629 972 l 711 943 q 763 922 736 935 l 760 922 q 774 916 767 919 q 788 908 782 913 l 817 908 l 829 901 l 853 901 q 865 894 860 899 q 875 888 869 890 l 829 888 q 835 885 832 886 q 839 881 838 883 l 753 881 l 779 860 l 738 860 q 765 832 753 847 l 1096 832 q 1099 829 1097 831 q 1101 825 1100 828 l 1136 825 q 1147 812 1142 819 q 1157 797 1153 804 l 894 797 q 897 794 896 796 q 900 790 899 793 l 1029 790 l 1033 783 l 869 783 q 885 756 879 769 l 1135 756 m 644 658 q 624 679 636 671 l 511 679 q 436 701 481 701 l 353 701 l 353 679 l 413 679 l 413 658 l 424 658 l 424 644 l 426 644 l 426 631 l 360 631 l 360 610 l 482 610 l 482 589 l 324 589 l 324 561 l 385 561 l 385 533 l 415 533 l 415 526 l 508 526 l 508 499 l 478 499 l 478 478 l 446 478 l 446 450 l 424 450 l 424 436 l 403 436 l 403 422 l 367 422 l 367 394 l 310 394 l 310 381 l 292 381 l 292 360 l 297 360 l 297 332 l 457 332 l 457 318 l 421 318 l 421 304 l 422 304 l 422 290 l 442 290 l 442 271 l 532 271 q 600 290 572 271 l 578 290 q 586 297 582 293 q 593 304 590 300 l 449 304 q 454 310 451 307 q 458 318 457 314 l 625 318 q 629 324 628 321 q 632 332 631 328 l 664 332 q 668 346 667 339 q 671 360 669 353 l 650 360 q 651 370 651 365 q 653 381 651 375 l 601 381 l 601 383 q 602 389 601 386 q 603 394 603 392 l 600 394 q 600 409 600 401 q 601 422 600 417 l 626 422 l 626 436 l 635 436 l 636 450 l 714 450 l 714 478 l 632 478 l 632 499 l 626 499 l 626 526 l 646 526 l 646 533 l 594 533 l 594 561 l 564 561 q 564 575 564 568 q 563 589 564 582 l 693 589 l 693 590 q 692 601 693 596 q 692 610 692 606 l 640 610 q 638 620 639 615 q 635 631 636 625 l 606 631 q 603 638 604 635 q 600 644 601 642 l 638 644 q 634 652 636 649 q 629 658 632 656 l 644 658 z "},"Ð":{"ha":1064,"x_min":-99,"x_max":1163,"o":"m 1163 513 l 953 513 l 953 492 l 1063 492 l 1063 464 l 1044 464 l 1044 443 l 1022 443 l 1022 436 l 990 436 l 990 408 l 1088 408 l 1088 388 l 1107 388 l 1107 360 l 975 360 l 975 353 l 1039 353 q 1039 342 1039 347 q 1038 332 1039 338 l 992 332 q 990 322 990 326 q 989 311 990 317 l 1013 311 q 1012 308 1013 310 q 1011 304 1011 307 l 1003 304 q 1001 297 1001 301 l 1006 297 q 1004 290 1004 294 q 1003 283 1004 286 l 1001 283 l 999 276 l 956 276 l 951 263 l 997 263 q 997 260 997 261 q 996 256 996 258 q 992 242 994 249 q 986 228 989 235 l 992 228 l 986 214 l 994 214 q 992 207 992 208 l 1017 207 q 1010 193 1014 200 l 1008 193 l 996 172 l 915 172 l 906 158 l 1097 158 q 1074 131 1088 144 l 893 131 q 885 124 889 128 q 879 117 882 119 l 954 117 q 938 103 946 110 q 919 89 929 96 l 1003 89 q 988 78 996 83 q 971 68 979 74 l 1075 68 q 1063 60 1069 64 q 1050 54 1057 57 l 1029 54 q 1014 47 1022 50 q 997 40 1006 43 l 871 40 q 831 26 853 33 l 669 26 q 568 6 622 13 l 668 6 q 622 1 646 3 q 572 0 597 0 l 171 0 q 151 6 158 0 l 51 6 q 36 26 42 13 l 197 26 q 196 38 196 31 l 196 40 l 322 40 l 322 54 l 343 54 l 343 68 l 239 68 l 239 89 l 156 89 l 156 117 l 81 117 l 81 131 l 263 131 l 263 158 l 71 158 l 71 172 l 151 172 l 151 193 l 153 193 l 153 207 l 126 207 l 126 214 l 118 214 l 118 228 l 113 228 l 113 256 l 111 256 l 111 263 l 65 263 l 65 276 l 110 276 l 110 297 l 108 297 l 108 304 l 115 304 l 115 311 l 106 311 l 106 332 l 131 332 l 131 353 l 64 353 l 64 360 l 89 360 l 89 381 l 36 381 q 14 388 25 381 l 53 388 q 39 408 43 394 l -11 408 q -12 418 -12 411 l -12 436 l -99 436 l -99 443 l 19 443 l 19 464 l -42 464 l -42 492 l 111 492 l 111 513 l -22 513 l -22 519 l -35 519 l -35 533 l 106 533 l 106 554 l 182 554 l 182 561 l 19 561 q 35 589 22 578 l -24 589 q -1 596 -14 596 l 51 596 l 51 617 l 104 617 l 104 644 l 110 644 l 110 672 l 121 672 l 121 700 l 110 700 l 110 721 l 108 721 l 108 742 l 76 742 l 76 769 l 126 769 l 126 776 l 7 776 l 7 804 l 19 804 l 19 825 l 160 825 l 160 846 l 86 846 l 86 860 l 119 860 l 119 888 l 106 888 l 106 894 l 74 894 l 74 922 l 135 922 l 135 936 l -21 936 l -21 943 l 13 943 q 18 957 15 951 l 6 957 q 36 972 17 972 l 436 972 q 511 968 475 972 q 582 957 547 964 l 594 957 q 621 951 608 954 q 646 943 633 947 l 613 943 q 623 940 618 942 q 633 936 628 939 l 789 936 q 806 930 797 933 q 822 922 814 926 l 761 922 q 813 894 789 910 l 844 894 l 856 888 l 869 888 q 888 874 879 882 q 904 860 896 867 l 872 860 q 879 853 875 857 q 888 846 883 849 l 960 846 q 970 835 965 840 q 979 825 975 831 l 840 825 l 857 804 l 843 804 q 853 791 849 799 q 861 776 857 783 l 982 776 l 986 769 l 935 769 q 942 756 939 764 q 949 742 946 749 l 981 742 l 989 721 l 990 721 q 994 710 993 715 q 997 700 996 706 l 1003 700 q 1007 686 1006 693 q 1010 672 1008 679 l 1021 672 q 1024 658 1024 665 q 1026 644 1025 651 l 981 644 l 983 617 l 985 617 q 985 604 985 611 q 986 590 986 597 l 986 589 l 1026 589 l 1026 561 l 1000 561 l 1000 554 l 1047 554 l 1047 533 l 1111 533 l 1111 519 l 1163 519 l 1163 513 m 557 589 q 572 561 569 578 l 665 561 l 665 589 l 625 589 l 625 590 q 624 604 625 597 q 622 617 624 611 l 621 617 q 618 631 619 624 q 614 644 617 639 l 660 644 q 652 660 657 653 q 642 672 647 667 l 632 672 q 574 700 608 696 l 568 700 q 558 701 563 701 q 547 701 553 701 l 457 701 l 457 700 l 468 700 l 468 672 l 457 672 l 457 644 l 451 644 l 451 617 l 399 617 l 399 596 l 476 596 q 497 589 488 596 l 557 589 m 801 513 l 801 519 l 750 519 l 750 533 l 686 533 l 686 554 l 658 554 l 658 533 l 518 533 l 518 519 l 531 519 l 531 513 l 801 513 m 701 464 l 701 492 l 511 492 l 511 464 l 572 464 l 572 443 l 454 443 l 454 436 l 540 436 l 540 418 q 539 408 540 411 l 589 408 q 575 388 588 397 l 536 388 q 514 381 525 381 l 436 381 l 436 360 l 411 360 l 411 353 l 478 353 l 478 332 l 453 332 l 453 311 l 463 311 l 463 304 l 456 304 l 456 297 l 457 297 l 457 276 l 413 276 l 413 271 l 503 271 q 542 276 525 271 l 585 276 q 601 283 593 278 l 603 283 q 613 290 608 286 q 622 297 618 293 l 618 297 q 621 301 619 300 q 624 304 622 303 l 633 304 q 639 311 635 307 l 614 311 q 625 332 621 321 l 671 332 q 674 342 674 338 q 676 353 675 347 l 613 353 q 614 360 613 357 l 744 360 q 746 372 746 365 q 746 383 746 378 l 746 388 l 726 388 l 726 408 l 629 408 l 629 436 l 661 436 l 661 443 l 683 443 l 683 464 l 701 464 z "},"Ď":{"ha":1028,"x_min":-56,"x_max":1157,"o":"m 1135 756 q 1140 745 1138 750 q 1144 735 1143 740 l 1093 735 q 1099 722 1096 729 q 1104 707 1101 714 l 886 707 l 894 679 l 1007 679 l 1011 658 l 996 658 q 997 651 997 656 q 999 644 997 647 l 961 644 l 963 631 l 992 631 q 992 620 992 625 q 993 610 993 615 l 1044 610 q 1046 600 1046 604 q 1046 590 1046 596 l 1046 589 l 915 589 q 916 575 915 582 q 917 561 917 568 l 946 561 q 947 547 946 554 q 947 533 947 540 l 997 533 l 997 526 l 978 526 l 978 499 l 983 499 l 983 478 l 1065 478 l 1065 450 l 988 450 l 988 436 l 979 436 q 979 429 979 433 q 978 422 979 425 l 953 422 l 953 394 l 956 394 q 954 383 954 390 l 954 381 l 1006 381 q 1005 370 1006 375 q 1004 360 1004 365 l 1025 360 q 1024 346 1025 353 q 1022 332 1024 339 l 992 332 q 990 325 990 329 q 989 318 990 321 l 822 318 q 819 304 822 313 l 965 304 q 963 290 963 296 l 983 290 q 981 280 982 285 q 978 269 981 275 l 974 256 l 933 256 l 931 249 l 996 249 q 993 242 993 243 l 951 242 l 949 235 l 947 235 q 942 221 944 228 q 935 207 939 214 l 914 207 l 899 179 l 922 179 l 914 165 l 915 165 q 910 158 913 163 q 904 151 907 154 l 894 151 q 889 144 890 147 q 881 134 885 139 q 871 124 876 129 l 867 124 q 852 110 860 117 q 836 96 844 103 l 849 96 l 819 75 l 821 75 q 797 61 810 68 q 771 47 785 54 l 769 47 q 735 33 756 40 l 736 33 q 678 17 708 24 q 615 6 647 10 l 644 6 q 599 1 622 3 q 550 0 575 0 l 143 0 q 124 6 131 0 l 94 6 q 78 33 81 14 l 76 33 l 76 47 l 79 47 l 79 75 l 76 75 l 76 96 l 65 96 l 65 124 l 69 124 l 69 144 l 68 144 l 68 151 l 79 151 l 79 165 l 78 165 l 78 179 l 53 179 l 53 207 l 75 207 l 75 235 l 76 235 l 76 242 l 118 242 l 118 249 l 54 249 l 54 256 l 94 256 l 94 290 l 75 290 l 75 304 l 74 304 l 74 318 l 110 318 l 110 332 l -50 332 l -50 360 l -56 360 l -56 381 l -37 381 l -37 394 l 19 394 l 19 422 l 56 422 l 56 436 l 76 436 l 76 450 l 99 450 l 99 478 l 131 478 l 131 499 l 161 499 l 161 526 l 68 526 l 68 533 l 38 533 l 38 561 l -24 561 l -24 589 l 135 589 l 135 610 l 13 610 l 13 631 l 79 631 l 79 644 l 76 644 l 76 658 l 65 658 l 65 679 l 6 679 l 6 707 l 222 707 l 222 735 l 274 735 l 274 756 l 24 756 l 24 783 l 188 783 l 188 790 l 58 790 l 58 797 l 321 797 l 321 825 l 288 825 l 288 832 l -43 832 l -43 860 l -3 860 l -3 881 l 83 881 l 83 888 l 129 888 l 129 901 l 104 901 l 104 908 l 75 908 l 75 922 l 78 922 l 78 935 q 78 940 78 938 q 79 943 79 942 l 85 943 q 122 972 92 972 l 522 972 q 717 943 629 972 l 711 943 q 763 922 736 935 l 760 922 q 774 916 767 919 q 788 908 782 913 l 817 908 l 829 901 l 853 901 q 865 894 860 899 q 875 888 869 890 l 829 888 q 835 885 832 886 q 839 881 838 883 l 753 881 l 779 860 l 738 860 q 765 832 753 847 l 1096 832 q 1099 829 1097 831 q 1101 825 1100 828 l 1136 825 q 1147 812 1142 819 q 1157 797 1153 804 l 894 797 q 897 794 896 796 q 900 790 899 793 l 1029 790 l 1033 783 l 869 783 q 885 756 879 769 l 1135 756 m 644 658 q 624 679 636 671 l 511 679 q 436 701 481 701 l 353 701 l 353 679 l 413 679 l 413 658 l 424 658 l 424 644 l 426 644 l 426 631 l 360 631 l 360 610 l 482 610 l 482 589 l 324 589 l 324 561 l 385 561 l 385 533 l 415 533 l 415 526 l 508 526 l 508 499 l 478 499 l 478 478 l 446 478 l 446 450 l 424 450 l 424 436 l 403 436 l 403 422 l 367 422 l 367 394 l 310 394 l 310 381 l 292 381 l 292 360 l 297 360 l 297 332 l 457 332 l 457 318 l 421 318 l 421 304 l 422 304 l 422 290 l 442 290 l 442 271 l 532 271 q 600 290 572 271 l 578 290 q 586 297 582 293 q 593 304 590 300 l 449 304 q 454 310 451 307 q 458 318 457 314 l 625 318 q 629 324 628 321 q 632 332 631 328 l 664 332 q 668 346 667 339 q 671 360 669 353 l 650 360 q 651 370 651 365 q 653 381 651 375 l 601 381 l 601 383 q 602 389 601 386 q 603 394 603 392 l 600 394 q 600 409 600 401 q 601 422 600 417 l 626 422 l 626 436 l 635 436 l 636 450 l 714 450 l 714 478 l 632 478 l 632 499 l 626 499 l 626 526 l 646 526 l 646 533 l 594 533 l 594 561 l 564 561 q 564 575 564 568 q 563 589 564 582 l 693 589 l 693 590 q 692 601 693 596 q 692 610 692 606 l 640 610 q 638 620 639 615 q 635 631 636 625 l 606 631 q 603 638 604 635 q 600 644 601 642 l 638 644 q 634 652 636 649 q 629 658 632 656 l 644 658 m 807 1242 l 814 1242 l 811 1238 l 801 1228 l 797 1228 l 790 1221 l 771 1200 l 768 1200 l 743 1172 l 746 1172 l 719 1144 l 715 1144 l 697 1124 l 711 1124 l 692 1103 l 672 1103 l 660 1089 l 674 1089 l 654 1068 q 651 1065 653 1067 q 647 1061 649 1064 l 618 1061 q 599 1047 608 1051 l 624 1047 q 597 1042 614 1042 l 417 1042 q 392 1047 401 1042 l 367 1047 q 347 1061 357 1051 l 378 1061 q 374 1065 376 1064 q 371 1068 372 1067 l 351 1089 l 339 1089 l 325 1103 l 344 1103 l 325 1124 l 311 1124 l 292 1144 l 296 1144 l 271 1172 l 268 1172 l 243 1200 l 246 1200 l 226 1221 l 231 1221 l 225 1228 l 231 1228 l 222 1238 q 219 1242 219 1240 l 210 1242 q 206 1256 206 1249 q 206 1260 206 1258 q 207 1263 207 1261 l 200 1263 q 221 1278 204 1278 l 319 1278 q 347 1276 333 1278 q 375 1268 361 1275 l 388 1263 l 394 1263 l 440 1242 l 450 1242 l 481 1228 l 474 1228 l 489 1221 l 485 1221 l 508 1210 l 533 1221 l 549 1228 l 553 1228 l 583 1242 l 576 1242 l 622 1263 l 619 1263 l 632 1268 q 660 1276 647 1275 q 688 1278 674 1278 l 786 1278 q 807 1263 804 1278 l 810 1263 l 810 1256 q 807 1242 810 1250 z "},"Đ":{"ha":1061,"x_min":-36,"x_max":1058,"o":"m 1058 436 l 993 436 l 993 415 l 1013 415 l 1013 408 l 1015 408 q 1015 397 1015 403 q 1014 383 1015 390 l 1014 381 l 1004 381 q 1004 374 1004 378 q 1003 367 1004 369 l 1026 367 q 1026 356 1026 361 q 1025 346 1025 351 l 1018 346 q 1017 339 1017 343 q 1015 332 1017 335 l 1007 332 q 1006 325 1006 329 q 1004 318 1006 321 l 1007 318 l 1007 311 l 1013 311 l 1008 290 l 1036 290 q 1033 280 1035 285 q 1031 269 1032 275 l 985 269 l 981 256 l 989 256 l 986 249 l 997 249 q 986 221 993 236 l 975 221 q 971 210 974 215 q 965 200 968 206 q 957 186 961 193 q 949 172 953 179 l 950 172 q 940 158 944 165 q 929 144 935 151 l 928 144 q 916 131 922 138 q 903 117 910 124 l 899 117 q 892 110 896 114 q 883 103 888 106 l 878 103 l 850 82 l 926 82 q 922 79 925 81 q 917 75 919 78 l 783 75 q 760 61 771 67 l 868 61 q 855 53 863 57 q 840 47 847 50 l 860 47 q 851 44 856 46 q 843 40 847 43 l 782 40 q 772 38 776 39 q 764 33 768 36 q 688 13 725 21 l 665 13 q 643 9 654 11 q 621 6 632 7 l 599 6 q 552 1 576 3 q 504 0 528 0 l 103 0 q 83 6 90 0 l 106 6 q 97 13 103 7 l 119 13 q 110 33 113 19 l 110 40 l 171 40 l 171 47 l 151 47 l 151 61 l 43 61 l 43 75 l 176 75 l 176 82 l 100 82 l 100 103 l 107 103 l 107 117 l 110 117 l 110 144 l 111 144 l 111 172 l 110 172 l 110 221 l 121 221 l 121 249 l 110 249 l 110 256 l 101 256 l 101 269 l 147 269 l 147 290 l 104 290 l 104 311 l 119 311 l 119 318 l 111 318 l 111 332 l 107 332 l 107 346 l 124 346 l 124 367 l 117 367 l 117 381 l 128 381 l 128 382 l 75 382 q 39 408 46 382 l 22 408 l 19 415 l 10 415 l 10 436 l -28 436 l -28 443 l 71 443 l 71 457 l -18 457 l -18 478 l -17 478 l -17 492 l -36 492 l -36 506 l 19 506 l 19 526 l 33 526 l 33 547 l 18 547 l 18 560 q 21 575 18 567 l 24 575 q 57 597 33 597 l 110 597 l 110 603 l 111 603 l 111 624 l 113 624 l 113 631 l 107 631 l 107 658 l 82 658 l 82 686 l 110 686 l 110 714 l 128 714 l 128 735 l 25 735 l 25 763 l 111 763 l 111 769 l 160 769 l 160 797 l 144 797 l 144 804 l 90 804 l 90 825 l 44 825 l 44 846 l 118 846 l 118 853 l 110 853 l 110 874 l 131 874 l 131 888 l 86 888 l 86 908 l 128 908 l 128 915 l 40 915 l 40 922 l 254 922 l 254 929 l 175 929 l 175 936 l 197 936 q 211 964 197 953 l 36 964 q 60 972 47 972 l 460 972 q 568 964 517 972 l 743 964 q 850 936 797 956 l 826 936 q 836 933 832 935 q 844 929 840 932 l 924 929 q 931 926 926 928 q 939 922 935 925 l 726 922 q 733 919 729 921 q 740 915 736 918 l 828 915 l 840 908 l 799 908 l 832 888 l 875 888 q 885 881 881 885 q 894 874 890 876 l 874 874 l 899 853 l 907 853 l 914 846 l 839 846 q 849 835 844 840 q 858 825 854 831 l 906 825 l 922 804 l 976 804 l 981 797 l 996 797 q 1004 784 1000 792 q 1013 769 1008 776 l 965 769 l 969 763 l 882 763 q 890 749 886 757 q 896 735 893 742 l 997 735 l 1006 714 l 988 714 q 996 686 994 699 l 999 686 l 1006 658 l 989 658 q 992 644 990 651 q 993 631 993 638 l 1007 631 l 1007 624 l 1008 624 q 1009 613 1008 618 q 1010 603 1010 608 l 1010 590 q 1011 575 1010 581 q 1013 561 1013 568 q 1013 547 1013 554 l 1036 547 l 1036 526 l 1000 526 l 1000 506 l 1015 506 q 1017 499 1017 503 q 1017 492 1017 494 l 968 492 l 968 478 l 1031 478 l 1031 471 l 967 471 l 967 457 l 931 457 l 929 443 l 1058 443 l 1058 436 m 535 457 l 614 457 l 614 471 l 678 471 l 678 478 l 617 478 l 617 492 l 664 492 l 664 506 l 649 506 l 649 526 l 685 526 q 685 537 685 532 q 683 547 685 542 l 660 547 l 660 575 l 658 575 q 658 583 658 579 q 657 590 657 586 q 656 603 657 599 l 657 603 l 653 624 q 651 628 651 626 q 650 631 651 629 l 638 631 q 632 646 636 639 q 625 658 628 653 l 640 658 q 611 686 629 676 l 610 686 q 547 701 582 701 l 457 701 l 457 686 l 429 686 l 429 658 l 454 658 l 454 631 l 460 631 l 460 624 l 458 624 l 458 603 l 457 603 l 457 597 l 535 597 q 569 575 560 597 l 568 575 q 571 560 571 567 l 571 547 l 586 547 l 586 526 l 572 526 l 572 506 l 517 506 l 517 492 l 536 492 l 536 478 l 535 478 l 535 457 m 660 415 l 640 415 q 641 426 640 421 q 642 436 642 431 l 706 436 l 706 443 l 525 443 l 525 436 l 563 436 l 563 415 l 572 415 q 571 408 572 411 l 588 408 q 553 382 581 382 l 475 382 l 475 381 l 464 381 l 464 367 l 471 367 l 471 346 l 454 346 l 454 332 l 458 332 l 458 318 l 467 318 l 467 311 l 451 311 l 451 290 l 494 290 l 494 271 l 585 271 q 653 290 622 271 l 624 290 q 646 311 635 297 l 639 311 l 643 318 l 640 318 q 647 332 646 326 l 657 332 l 661 346 l 668 346 q 672 356 671 351 q 674 367 672 361 l 650 367 l 651 381 l 661 381 l 661 383 q 663 397 663 390 q 663 408 663 403 l 660 408 l 660 415 z "},"E":{"ha":926,"x_min":-133,"x_max":1064,"o":"m 954 242 l 1064 242 l 1064 221 l 853 221 l 853 193 l 989 193 l 989 165 l 869 165 l 869 138 l 885 138 l 885 117 l 875 117 l 875 103 l 846 103 l 846 89 l 844 89 l 844 75 l 874 75 l 874 47 l 914 47 l 914 38 q 913 33 914 35 l 665 33 q 664 26 664 31 l 760 26 q 744 6 756 13 l 718 6 q 699 0 711 0 l -25 0 q -46 6 -36 0 l -19 6 q -35 26 -29 13 l -132 26 q -133 33 -133 29 l 115 33 l 115 47 l 75 47 l 75 75 l 46 75 l 46 89 l 47 89 l 47 103 l 76 103 l 76 117 l 86 117 l 86 138 l 71 138 l 71 165 l 190 165 l 190 193 l 54 193 l 54 221 l 265 221 l 265 242 l 156 242 l 156 256 l 188 256 l 188 269 l 201 269 l 201 283 l 47 283 l 47 297 l 11 297 l 11 318 l 140 318 l 140 325 l 38 325 l 38 339 l 68 339 l 68 353 l 90 353 l 90 374 l 88 374 l 88 401 l 74 401 l 74 429 l 53 429 l 53 443 l 69 443 l 69 471 l 54 471 l 54 485 l 76 485 l 76 506 l 82 506 l 82 526 l 107 526 l 107 533 l 83 533 l 83 561 l 63 561 l 63 582 l 68 582 l 68 603 l 71 603 l 71 631 l 92 631 l 92 658 l 61 658 l 61 686 l 65 686 l 65 714 l 104 714 l 104 735 l 83 735 l 83 756 l 72 756 l 72 763 l 131 763 l 131 783 l 233 783 l 233 797 l 192 797 l 192 811 l 57 811 l 57 818 l 72 818 l 72 839 l 74 839 l 74 860 l 78 860 l 78 888 l 76 888 l 76 922 l 74 922 l 74 935 q 75 943 74 940 l 61 943 q 97 972 67 972 l 810 972 q 846 943 842 972 l 860 943 q 861 935 861 940 l 861 922 l 864 922 l 864 888 l 865 888 l 865 860 l 861 860 l 861 839 l 860 839 l 860 818 l 844 818 l 844 811 l 979 811 l 979 797 l 1021 797 l 1021 783 l 918 783 l 918 763 l 860 763 l 860 756 l 871 756 l 871 735 l 892 735 q 882 714 889 721 l 843 714 q 815 701 833 701 l 399 701 l 399 686 l 394 686 l 394 658 l 425 658 l 425 631 l 404 631 l 404 614 l 790 614 q 817 603 806 614 l 814 603 q 824 582 821 596 l 819 582 l 819 561 l 840 561 l 840 533 l 864 533 l 864 526 l 839 526 l 839 506 l 833 506 l 833 485 l 811 485 l 811 471 l 826 471 l 826 443 l 810 443 l 810 429 l 831 429 l 831 401 l 844 401 l 844 396 q 838 374 844 381 l 840 374 q 810 358 829 358 l 424 358 l 424 353 l 401 353 l 401 339 l 371 339 l 371 325 l 474 325 l 474 318 l 344 318 l 344 297 l 381 297 l 381 283 l 535 283 l 535 271 l 963 271 q 974 269 969 271 l 958 269 q 979 256 972 265 l 947 256 q 954 242 953 247 z "},"É":{"ha":926,"x_min":-133,"x_max":1064,"o":"m 954 242 l 1064 242 l 1064 221 l 853 221 l 853 193 l 989 193 l 989 165 l 869 165 l 869 138 l 885 138 l 885 117 l 875 117 l 875 103 l 846 103 l 846 89 l 844 89 l 844 75 l 874 75 l 874 47 l 914 47 l 914 38 q 913 33 914 35 l 665 33 q 664 26 664 31 l 760 26 q 744 6 756 13 l 718 6 q 699 0 711 0 l -25 0 q -46 6 -36 0 l -19 6 q -35 26 -29 13 l -132 26 q -133 33 -133 29 l 115 33 l 115 47 l 75 47 l 75 75 l 46 75 l 46 89 l 47 89 l 47 103 l 76 103 l 76 117 l 86 117 l 86 138 l 71 138 l 71 165 l 190 165 l 190 193 l 54 193 l 54 221 l 265 221 l 265 242 l 156 242 l 156 256 l 188 256 l 188 269 l 201 269 l 201 283 l 47 283 l 47 297 l 11 297 l 11 318 l 140 318 l 140 325 l 38 325 l 38 339 l 68 339 l 68 353 l 90 353 l 90 374 l 88 374 l 88 401 l 74 401 l 74 429 l 53 429 l 53 443 l 69 443 l 69 471 l 54 471 l 54 485 l 76 485 l 76 506 l 82 506 l 82 526 l 107 526 l 107 533 l 83 533 l 83 561 l 63 561 l 63 582 l 68 582 l 68 603 l 71 603 l 71 631 l 92 631 l 92 658 l 61 658 l 61 686 l 65 686 l 65 714 l 104 714 l 104 735 l 83 735 l 83 756 l 72 756 l 72 763 l 131 763 l 131 783 l 233 783 l 233 797 l 192 797 l 192 811 l 57 811 l 57 818 l 72 818 l 72 839 l 74 839 l 74 860 l 78 860 l 78 888 l 76 888 l 76 922 l 74 922 l 74 935 q 75 943 74 940 l 61 943 q 97 972 67 972 l 810 972 q 846 943 842 972 l 860 943 q 861 935 861 940 l 861 922 l 864 922 l 864 888 l 865 888 l 865 860 l 861 860 l 861 839 l 860 839 l 860 818 l 844 818 l 844 811 l 979 811 l 979 797 l 1021 797 l 1021 783 l 918 783 l 918 763 l 860 763 l 860 756 l 871 756 l 871 735 l 892 735 q 882 714 889 721 l 843 714 q 815 701 833 701 l 399 701 l 399 686 l 394 686 l 394 658 l 425 658 l 425 631 l 404 631 l 404 614 l 790 614 q 817 603 806 614 l 814 603 q 824 582 821 596 l 819 582 l 819 561 l 840 561 l 840 533 l 864 533 l 864 526 l 839 526 l 839 506 l 833 506 l 833 485 l 811 485 l 811 471 l 826 471 l 826 443 l 810 443 l 810 429 l 831 429 l 831 401 l 844 401 l 844 396 q 838 374 844 381 l 840 374 q 810 358 829 358 l 424 358 l 424 353 l 401 353 l 401 339 l 371 339 l 371 325 l 474 325 l 474 318 l 344 318 l 344 297 l 381 297 l 381 283 l 535 283 l 535 271 l 963 271 q 974 269 969 271 l 958 269 q 979 256 972 265 l 947 256 q 954 242 953 247 m 725 1242 q 719 1233 722 1236 l 696 1214 l 781 1214 l 764 1200 l 746 1200 l 738 1193 l 753 1193 l 744 1186 l 718 1165 l 710 1158 l 713 1158 l 679 1131 l 686 1131 l 653 1103 l 643 1103 l 626 1089 l 622 1089 l 597 1068 l 589 1068 l 585 1065 q 572 1055 579 1060 q 558 1047 565 1050 l 542 1047 q 528 1044 536 1046 q 511 1042 521 1042 l 307 1042 q 292 1047 296 1042 l 307 1047 q 300 1064 300 1054 q 301 1066 300 1065 q 301 1068 301 1067 l 308 1068 q 315 1082 311 1078 l 321 1089 l 325 1089 l 336 1103 l 347 1103 l 369 1131 l 363 1131 l 385 1158 l 382 1158 l 404 1186 l 406 1186 l 411 1193 l 396 1193 l 401 1200 l 419 1200 l 431 1214 l 346 1214 l 368 1242 l 451 1242 l 460 1251 q 478 1269 469 1264 l 469 1269 q 501 1278 481 1278 l 774 1278 q 794 1269 789 1278 l 803 1269 q 810 1250 810 1263 q 809 1247 810 1249 q 808 1242 808 1244 l 725 1242 z "},"Ĕ":{"ha":926,"x_min":-133,"x_max":1064,"o":"m 954 242 l 1064 242 l 1064 221 l 853 221 l 853 193 l 989 193 l 989 165 l 869 165 l 869 138 l 885 138 l 885 117 l 875 117 l 875 103 l 846 103 l 846 89 l 844 89 l 844 75 l 874 75 l 874 47 l 914 47 l 914 38 q 913 33 914 35 l 665 33 q 664 26 664 31 l 760 26 q 744 6 756 13 l 718 6 q 699 0 711 0 l -25 0 q -46 6 -36 0 l -19 6 q -35 26 -29 13 l -132 26 q -133 33 -133 29 l 115 33 l 115 47 l 75 47 l 75 75 l 46 75 l 46 89 l 47 89 l 47 103 l 76 103 l 76 117 l 86 117 l 86 138 l 71 138 l 71 165 l 190 165 l 190 193 l 54 193 l 54 221 l 265 221 l 265 242 l 156 242 l 156 256 l 188 256 l 188 269 l 201 269 l 201 283 l 47 283 l 47 297 l 11 297 l 11 318 l 140 318 l 140 325 l 38 325 l 38 339 l 68 339 l 68 353 l 90 353 l 90 374 l 88 374 l 88 401 l 74 401 l 74 429 l 53 429 l 53 443 l 69 443 l 69 471 l 54 471 l 54 485 l 76 485 l 76 506 l 82 506 l 82 526 l 107 526 l 107 533 l 83 533 l 83 561 l 63 561 l 63 582 l 68 582 l 68 603 l 71 603 l 71 631 l 92 631 l 92 658 l 61 658 l 61 686 l 65 686 l 65 714 l 104 714 l 104 735 l 83 735 l 83 756 l 72 756 l 72 763 l 131 763 l 131 783 l 233 783 l 233 797 l 192 797 l 192 811 l 57 811 l 57 818 l 72 818 l 72 839 l 74 839 l 74 860 l 78 860 l 78 888 l 76 888 l 76 922 l 74 922 l 74 935 q 75 943 74 940 l 61 943 q 97 972 67 972 l 810 972 q 846 943 842 972 l 860 943 q 861 935 861 940 l 861 922 l 864 922 l 864 888 l 865 888 l 865 860 l 861 860 l 861 839 l 860 839 l 860 818 l 844 818 l 844 811 l 979 811 l 979 797 l 1021 797 l 1021 783 l 918 783 l 918 763 l 860 763 l 860 756 l 871 756 l 871 735 l 892 735 q 882 714 889 721 l 843 714 q 815 701 833 701 l 399 701 l 399 686 l 394 686 l 394 658 l 425 658 l 425 631 l 404 631 l 404 614 l 790 614 q 817 603 806 614 l 814 603 q 824 582 821 596 l 819 582 l 819 561 l 840 561 l 840 533 l 864 533 l 864 526 l 839 526 l 839 506 l 833 506 l 833 485 l 811 485 l 811 471 l 826 471 l 826 443 l 810 443 l 810 429 l 831 429 l 831 401 l 844 401 l 844 396 q 838 374 844 381 l 840 374 q 810 358 829 358 l 424 358 l 424 353 l 401 353 l 401 339 l 371 339 l 371 325 l 474 325 l 474 318 l 344 318 l 344 297 l 381 297 l 381 283 l 535 283 l 535 271 l 963 271 q 974 269 969 271 l 958 269 q 979 256 972 265 l 947 256 q 954 242 953 247 m 704 1200 l 719 1200 q 717 1190 718 1194 q 714 1179 717 1185 l 697 1179 l 689 1158 l 661 1158 q 657 1148 660 1153 q 651 1138 654 1143 l 664 1138 q 656 1124 660 1131 q 644 1110 651 1117 l 665 1110 q 659 1103 663 1107 q 651 1096 656 1099 l 614 1096 q 575 1068 600 1082 l 617 1068 q 610 1065 614 1067 q 603 1061 607 1064 l 613 1061 q 606 1058 610 1060 q 597 1054 601 1057 l 585 1054 q 561 1047 574 1050 q 535 1040 549 1043 q 503 1036 519 1038 q 468 1035 486 1035 q 433 1036 450 1035 q 401 1040 417 1038 q 374 1047 388 1043 q 350 1054 361 1050 l 361 1054 l 346 1061 l 336 1061 q 328 1065 332 1064 q 322 1068 325 1067 l 282 1068 q 243 1096 257 1082 l 282 1096 l 268 1110 l 249 1110 q 238 1124 243 1117 q 229 1138 233 1131 l 215 1138 q 210 1148 213 1143 q 206 1158 208 1153 l 232 1158 q 229 1169 231 1164 q 225 1179 228 1174 l 206 1179 l 201 1200 l 231 1200 q 228 1214 228 1208 l 226 1214 q 224 1228 225 1221 q 224 1242 224 1235 l 218 1242 l 218 1256 l 217 1256 q 242 1278 219 1278 l 379 1278 q 406 1256 403 1278 l 408 1256 l 408 1242 l 414 1242 q 418 1214 414 1226 l 419 1214 q 422 1206 421 1210 q 425 1200 424 1203 l 396 1200 q 418 1179 404 1185 l 438 1179 q 461 1175 449 1175 q 485 1179 475 1175 l 501 1179 q 524 1200 517 1185 l 508 1200 q 514 1214 511 1206 q 518 1242 518 1226 l 517 1242 l 517 1251 q 518 1256 517 1254 q 544 1278 521 1278 l 682 1278 q 708 1256 703 1278 l 707 1256 l 707 1242 l 708 1242 q 708 1228 708 1235 q 707 1214 708 1221 l 706 1214 l 704 1200 z "},"Ě":{"ha":926,"x_min":-133,"x_max":1064,"o":"m 954 242 l 1064 242 l 1064 221 l 853 221 l 853 193 l 989 193 l 989 165 l 869 165 l 869 138 l 885 138 l 885 117 l 875 117 l 875 103 l 846 103 l 846 89 l 844 89 l 844 75 l 874 75 l 874 47 l 914 47 l 914 38 q 913 33 914 35 l 665 33 q 664 26 664 31 l 760 26 q 744 6 756 13 l 718 6 q 699 0 711 0 l -25 0 q -46 6 -36 0 l -19 6 q -35 26 -29 13 l -132 26 q -133 33 -133 29 l 115 33 l 115 47 l 75 47 l 75 75 l 46 75 l 46 89 l 47 89 l 47 103 l 76 103 l 76 117 l 86 117 l 86 138 l 71 138 l 71 165 l 190 165 l 190 193 l 54 193 l 54 221 l 265 221 l 265 242 l 156 242 l 156 256 l 188 256 l 188 269 l 201 269 l 201 283 l 47 283 l 47 297 l 11 297 l 11 318 l 140 318 l 140 325 l 38 325 l 38 339 l 68 339 l 68 353 l 90 353 l 90 374 l 88 374 l 88 401 l 74 401 l 74 429 l 53 429 l 53 443 l 69 443 l 69 471 l 54 471 l 54 485 l 76 485 l 76 506 l 82 506 l 82 526 l 107 526 l 107 533 l 83 533 l 83 561 l 63 561 l 63 582 l 68 582 l 68 603 l 71 603 l 71 631 l 92 631 l 92 658 l 61 658 l 61 686 l 65 686 l 65 714 l 104 714 l 104 735 l 83 735 l 83 756 l 72 756 l 72 763 l 131 763 l 131 783 l 233 783 l 233 797 l 192 797 l 192 811 l 57 811 l 57 818 l 72 818 l 72 839 l 74 839 l 74 860 l 78 860 l 78 888 l 76 888 l 76 922 l 74 922 l 74 935 q 75 943 74 940 l 61 943 q 97 972 67 972 l 810 972 q 846 943 842 972 l 860 943 q 861 935 861 940 l 861 922 l 864 922 l 864 888 l 865 888 l 865 860 l 861 860 l 861 839 l 860 839 l 860 818 l 844 818 l 844 811 l 979 811 l 979 797 l 1021 797 l 1021 783 l 918 783 l 918 763 l 860 763 l 860 756 l 871 756 l 871 735 l 892 735 q 882 714 889 721 l 843 714 q 815 701 833 701 l 399 701 l 399 686 l 394 686 l 394 658 l 425 658 l 425 631 l 404 631 l 404 614 l 790 614 q 817 603 806 614 l 814 603 q 824 582 821 596 l 819 582 l 819 561 l 840 561 l 840 533 l 864 533 l 864 526 l 839 526 l 839 506 l 833 506 l 833 485 l 811 485 l 811 471 l 826 471 l 826 443 l 810 443 l 810 429 l 831 429 l 831 401 l 844 401 l 844 396 q 838 374 844 381 l 840 374 q 810 358 829 358 l 424 358 l 424 353 l 401 353 l 401 339 l 371 339 l 371 325 l 474 325 l 474 318 l 344 318 l 344 297 l 381 297 l 381 283 l 535 283 l 535 271 l 963 271 q 974 269 969 271 l 958 269 q 979 256 972 265 l 947 256 q 954 242 953 247 m 765 1242 l 772 1242 l 769 1238 l 760 1228 l 756 1228 l 749 1221 l 729 1200 l 726 1200 l 701 1172 l 704 1172 l 678 1144 l 674 1144 l 656 1124 l 669 1124 l 650 1103 l 631 1103 l 618 1089 l 632 1089 l 613 1068 q 609 1065 611 1067 q 606 1061 607 1064 l 576 1061 q 557 1047 567 1051 l 582 1047 q 556 1042 572 1042 l 375 1042 q 350 1047 360 1042 l 325 1047 q 306 1061 315 1051 l 336 1061 q 333 1065 335 1064 q 329 1068 331 1067 l 310 1089 l 297 1089 l 283 1103 l 303 1103 l 283 1124 l 269 1124 l 250 1144 l 254 1144 l 229 1172 l 226 1172 l 201 1200 l 204 1200 l 185 1221 l 189 1221 l 183 1228 l 189 1228 l 181 1238 q 178 1242 178 1240 l 168 1242 q 164 1256 164 1249 q 165 1260 164 1258 q 165 1263 165 1261 l 158 1263 q 179 1278 163 1278 l 278 1278 q 306 1276 292 1278 q 333 1268 319 1275 l 346 1263 l 353 1263 l 399 1242 l 408 1242 l 439 1228 l 432 1228 l 447 1221 l 443 1221 l 467 1210 l 492 1221 l 507 1228 l 511 1228 l 542 1242 l 535 1242 l 581 1263 l 578 1263 l 590 1268 q 619 1276 606 1275 q 646 1278 632 1278 l 744 1278 q 765 1263 763 1278 l 768 1263 l 768 1256 q 765 1242 768 1250 z "},"Ê":{"ha":926,"x_min":-133,"x_max":1064,"o":"m 954 242 l 1064 242 l 1064 221 l 853 221 l 853 193 l 989 193 l 989 165 l 869 165 l 869 138 l 885 138 l 885 117 l 875 117 l 875 103 l 846 103 l 846 89 l 844 89 l 844 75 l 874 75 l 874 47 l 914 47 l 914 38 q 913 33 914 35 l 665 33 q 664 26 664 31 l 760 26 q 744 6 756 13 l 718 6 q 699 0 711 0 l -25 0 q -46 6 -36 0 l -19 6 q -35 26 -29 13 l -132 26 q -133 33 -133 29 l 115 33 l 115 47 l 75 47 l 75 75 l 46 75 l 46 89 l 47 89 l 47 103 l 76 103 l 76 117 l 86 117 l 86 138 l 71 138 l 71 165 l 190 165 l 190 193 l 54 193 l 54 221 l 265 221 l 265 242 l 156 242 l 156 256 l 188 256 l 188 269 l 201 269 l 201 283 l 47 283 l 47 297 l 11 297 l 11 318 l 140 318 l 140 325 l 38 325 l 38 339 l 68 339 l 68 353 l 90 353 l 90 374 l 88 374 l 88 401 l 74 401 l 74 429 l 53 429 l 53 443 l 69 443 l 69 471 l 54 471 l 54 485 l 76 485 l 76 506 l 82 506 l 82 526 l 107 526 l 107 533 l 83 533 l 83 561 l 63 561 l 63 582 l 68 582 l 68 603 l 71 603 l 71 631 l 92 631 l 92 658 l 61 658 l 61 686 l 65 686 l 65 714 l 104 714 l 104 735 l 83 735 l 83 756 l 72 756 l 72 763 l 131 763 l 131 783 l 233 783 l 233 797 l 192 797 l 192 811 l 57 811 l 57 818 l 72 818 l 72 839 l 74 839 l 74 860 l 78 860 l 78 888 l 76 888 l 76 922 l 74 922 l 74 935 q 75 943 74 940 l 61 943 q 97 972 67 972 l 810 972 q 846 943 842 972 l 860 943 q 861 935 861 940 l 861 922 l 864 922 l 864 888 l 865 888 l 865 860 l 861 860 l 861 839 l 860 839 l 860 818 l 844 818 l 844 811 l 979 811 l 979 797 l 1021 797 l 1021 783 l 918 783 l 918 763 l 860 763 l 860 756 l 871 756 l 871 735 l 892 735 q 882 714 889 721 l 843 714 q 815 701 833 701 l 399 701 l 399 686 l 394 686 l 394 658 l 425 658 l 425 631 l 404 631 l 404 614 l 790 614 q 817 603 806 614 l 814 603 q 824 582 821 596 l 819 582 l 819 561 l 840 561 l 840 533 l 864 533 l 864 526 l 839 526 l 839 506 l 833 506 l 833 485 l 811 485 l 811 471 l 826 471 l 826 443 l 810 443 l 810 429 l 831 429 l 831 401 l 844 401 l 844 396 q 838 374 844 381 l 840 374 q 810 358 829 358 l 424 358 l 424 353 l 401 353 l 401 339 l 371 339 l 371 325 l 474 325 l 474 318 l 344 318 l 344 297 l 381 297 l 381 283 l 535 283 l 535 271 l 963 271 q 974 269 969 271 l 958 269 q 979 256 972 265 l 947 256 q 954 242 953 247 m 756 1103 l 775 1082 q 782 1064 782 1075 l 782 1061 l 772 1061 q 771 1054 772 1057 l 782 1054 q 778 1047 779 1049 l 781 1047 q 764 1042 775 1042 l 665 1042 q 643 1042 654 1042 q 619 1047 632 1043 l 618 1047 l 607 1051 l 601 1054 l 590 1054 l 575 1061 l 583 1061 l 539 1082 l 493 1103 l 463 1103 l 371 1061 l 357 1061 l 342 1054 l 346 1054 l 340 1051 l 331 1047 l 268 1047 q 244 1042 256 1043 q 222 1042 233 1042 l 124 1042 q 107 1047 113 1042 l 169 1047 q 165 1054 168 1049 l 161 1054 q 160 1058 161 1057 q 160 1061 160 1060 l 174 1061 l 174 1064 q 181 1082 174 1075 l 200 1103 l 256 1103 l 281 1131 l 218 1131 l 243 1158 l 293 1158 l 300 1165 l 247 1165 l 267 1186 l 285 1186 l 297 1200 l 261 1200 l 281 1221 l 335 1221 l 342 1228 l 297 1228 l 318 1251 l 322 1256 l 343 1256 l 350 1263 l 397 1263 q 438 1278 414 1278 l 618 1278 q 658 1263 639 1278 l 611 1263 q 618 1256 615 1260 l 597 1256 l 601 1251 l 624 1228 l 668 1228 l 675 1221 l 619 1221 l 639 1200 l 675 1200 l 688 1186 l 671 1186 l 689 1165 l 742 1165 l 747 1158 l 697 1158 l 722 1131 l 786 1131 l 811 1103 l 756 1103 m 518 1103 l 549 1103 l 533 1110 l 518 1103 z "},"Ë":{"ha":926,"x_min":-133,"x_max":1064,"o":"m 954 242 l 1064 242 l 1064 221 l 853 221 l 853 193 l 989 193 l 989 165 l 869 165 l 869 138 l 885 138 l 885 117 l 875 117 l 875 103 l 846 103 l 846 89 l 844 89 l 844 75 l 874 75 l 874 47 l 914 47 l 914 38 q 913 33 914 35 l 665 33 q 664 26 664 31 l 760 26 q 744 6 756 13 l 718 6 q 699 0 711 0 l -25 0 q -46 6 -36 0 l -19 6 q -35 26 -29 13 l -132 26 q -133 33 -133 29 l 115 33 l 115 47 l 75 47 l 75 75 l 46 75 l 46 89 l 47 89 l 47 103 l 76 103 l 76 117 l 86 117 l 86 138 l 71 138 l 71 165 l 190 165 l 190 193 l 54 193 l 54 221 l 265 221 l 265 242 l 156 242 l 156 256 l 188 256 l 188 269 l 201 269 l 201 283 l 47 283 l 47 297 l 11 297 l 11 318 l 140 318 l 140 325 l 38 325 l 38 339 l 68 339 l 68 353 l 90 353 l 90 374 l 88 374 l 88 401 l 74 401 l 74 429 l 53 429 l 53 443 l 69 443 l 69 471 l 54 471 l 54 485 l 76 485 l 76 506 l 82 506 l 82 526 l 107 526 l 107 533 l 83 533 l 83 561 l 63 561 l 63 582 l 68 582 l 68 603 l 71 603 l 71 631 l 92 631 l 92 658 l 61 658 l 61 686 l 65 686 l 65 714 l 104 714 l 104 735 l 83 735 l 83 756 l 72 756 l 72 763 l 131 763 l 131 783 l 233 783 l 233 797 l 192 797 l 192 811 l 57 811 l 57 818 l 72 818 l 72 839 l 74 839 l 74 860 l 78 860 l 78 888 l 76 888 l 76 922 l 74 922 l 74 935 q 75 943 74 940 l 61 943 q 97 972 67 972 l 810 972 q 846 943 842 972 l 860 943 q 861 935 861 940 l 861 922 l 864 922 l 864 888 l 865 888 l 865 860 l 861 860 l 861 839 l 860 839 l 860 818 l 844 818 l 844 811 l 979 811 l 979 797 l 1021 797 l 1021 783 l 918 783 l 918 763 l 860 763 l 860 756 l 871 756 l 871 735 l 892 735 q 882 714 889 721 l 843 714 q 815 701 833 701 l 399 701 l 399 686 l 394 686 l 394 658 l 425 658 l 425 631 l 404 631 l 404 614 l 790 614 q 817 603 806 614 l 814 603 q 824 582 821 596 l 819 582 l 819 561 l 840 561 l 840 533 l 864 533 l 864 526 l 839 526 l 839 506 l 833 506 l 833 485 l 811 485 l 811 471 l 826 471 l 826 443 l 810 443 l 810 429 l 831 429 l 831 401 l 844 401 l 844 396 q 838 374 844 381 l 840 374 q 810 358 829 358 l 424 358 l 424 353 l 401 353 l 401 339 l 371 339 l 371 325 l 474 325 l 474 318 l 344 318 l 344 297 l 381 297 l 381 283 l 535 283 l 535 271 l 963 271 q 974 269 969 271 l 958 269 q 979 256 972 265 l 947 256 q 954 242 953 247 m 392 1074 q 386 1054 392 1061 l 407 1054 q 400 1047 404 1050 l 351 1047 q 332 1042 344 1042 l 160 1042 q 142 1047 149 1042 l 192 1047 q 185 1054 188 1050 l 163 1054 q 156 1074 156 1064 l 156 1075 l 150 1075 l 150 1089 l 157 1089 l 157 1110 l 129 1110 l 129 1131 l 168 1131 l 168 1144 l 164 1144 l 164 1158 l 163 1158 l 163 1207 l 154 1207 l 154 1214 l 158 1214 l 158 1242 l 156 1242 l 156 1246 q 160 1263 156 1257 l 164 1263 q 190 1278 172 1278 l 363 1278 q 390 1263 382 1278 l 388 1263 q 392 1246 392 1257 l 392 1242 l 394 1242 l 394 1214 l 390 1214 l 390 1207 l 399 1207 l 399 1158 l 400 1158 l 400 1144 l 404 1144 l 404 1131 l 365 1131 l 365 1110 l 393 1110 l 393 1089 l 386 1089 l 386 1075 l 392 1075 l 392 1074 m 768 1131 l 785 1131 l 785 1110 l 769 1110 l 769 1089 l 768 1089 l 768 1075 l 765 1075 l 765 1074 q 758 1054 765 1064 l 753 1054 q 746 1047 750 1050 l 750 1047 q 732 1042 743 1042 l 560 1042 q 540 1047 547 1042 l 536 1047 q 533 1051 535 1049 q 529 1054 532 1053 l 535 1054 q 529 1074 529 1061 l 529 1075 l 532 1075 l 532 1089 l 533 1089 l 533 1110 l 549 1110 l 549 1131 l 532 1131 l 532 1144 l 531 1144 l 531 1158 l 518 1158 l 518 1179 l 539 1179 l 539 1207 l 525 1207 l 525 1214 l 536 1214 l 536 1242 l 532 1242 l 532 1246 q 538 1263 532 1257 l 536 1263 q 564 1278 544 1278 l 736 1278 q 764 1263 756 1278 q 768 1246 768 1257 l 768 1242 l 772 1242 l 772 1214 l 761 1214 l 761 1207 l 775 1207 l 775 1179 l 754 1179 l 754 1158 l 767 1158 l 767 1144 l 768 1144 l 768 1131 z "},"Ė":{"ha":926,"x_min":-133,"x_max":1064,"o":"m 954 242 l 1064 242 l 1064 221 l 853 221 l 853 193 l 989 193 l 989 165 l 869 165 l 869 138 l 885 138 l 885 117 l 875 117 l 875 103 l 846 103 l 846 89 l 844 89 l 844 75 l 874 75 l 874 47 l 914 47 l 914 38 q 913 33 914 35 l 665 33 q 664 26 664 31 l 760 26 q 744 6 756 13 l 718 6 q 699 0 711 0 l -25 0 q -46 6 -36 0 l -19 6 q -35 26 -29 13 l -132 26 q -133 33 -133 29 l 115 33 l 115 47 l 75 47 l 75 75 l 46 75 l 46 89 l 47 89 l 47 103 l 76 103 l 76 117 l 86 117 l 86 138 l 71 138 l 71 165 l 190 165 l 190 193 l 54 193 l 54 221 l 265 221 l 265 242 l 156 242 l 156 256 l 188 256 l 188 269 l 201 269 l 201 283 l 47 283 l 47 297 l 11 297 l 11 318 l 140 318 l 140 325 l 38 325 l 38 339 l 68 339 l 68 353 l 90 353 l 90 374 l 88 374 l 88 401 l 74 401 l 74 429 l 53 429 l 53 443 l 69 443 l 69 471 l 54 471 l 54 485 l 76 485 l 76 506 l 82 506 l 82 526 l 107 526 l 107 533 l 83 533 l 83 561 l 63 561 l 63 582 l 68 582 l 68 603 l 71 603 l 71 631 l 92 631 l 92 658 l 61 658 l 61 686 l 65 686 l 65 714 l 104 714 l 104 735 l 83 735 l 83 756 l 72 756 l 72 763 l 131 763 l 131 783 l 233 783 l 233 797 l 192 797 l 192 811 l 57 811 l 57 818 l 72 818 l 72 839 l 74 839 l 74 860 l 78 860 l 78 888 l 76 888 l 76 922 l 74 922 l 74 935 q 75 943 74 940 l 61 943 q 97 972 67 972 l 810 972 q 846 943 842 972 l 860 943 q 861 935 861 940 l 861 922 l 864 922 l 864 888 l 865 888 l 865 860 l 861 860 l 861 839 l 860 839 l 860 818 l 844 818 l 844 811 l 979 811 l 979 797 l 1021 797 l 1021 783 l 918 783 l 918 763 l 860 763 l 860 756 l 871 756 l 871 735 l 892 735 q 882 714 889 721 l 843 714 q 815 701 833 701 l 399 701 l 399 686 l 394 686 l 394 658 l 425 658 l 425 631 l 404 631 l 404 614 l 790 614 q 817 603 806 614 l 814 603 q 824 582 821 596 l 819 582 l 819 561 l 840 561 l 840 533 l 864 533 l 864 526 l 839 526 l 839 506 l 833 506 l 833 485 l 811 485 l 811 471 l 826 471 l 826 443 l 810 443 l 810 429 l 831 429 l 831 401 l 844 401 l 844 396 q 838 374 844 381 l 840 374 q 810 358 829 358 l 424 358 l 424 353 l 401 353 l 401 339 l 371 339 l 371 325 l 474 325 l 474 318 l 344 318 l 344 297 l 381 297 l 381 283 l 535 283 l 535 271 l 963 271 q 974 269 969 271 l 958 269 q 979 256 972 265 l 947 256 q 954 242 953 247 m 590 1242 l 582 1242 l 582 1214 l 592 1214 l 592 1200 l 589 1200 l 589 1172 l 588 1172 l 588 1144 l 593 1144 l 593 1117 l 589 1117 l 589 1096 l 590 1096 l 590 1074 q 589 1068 590 1069 q 576 1047 586 1053 q 558 1042 569 1042 l 369 1042 q 351 1047 357 1042 l 350 1047 q 338 1068 340 1053 l 338 1096 l 336 1096 l 336 1117 l 340 1117 l 340 1144 l 335 1144 l 335 1172 l 336 1172 l 336 1200 l 339 1200 l 339 1214 l 329 1214 l 329 1242 l 338 1242 l 338 1256 l 342 1256 l 342 1263 q 349 1283 342 1274 l 344 1283 q 369 1294 353 1294 l 558 1294 q 582 1283 574 1294 l 588 1283 q 594 1263 594 1274 l 594 1256 l 590 1256 l 590 1242 z "},"È":{"ha":926,"x_min":-133,"x_max":1064,"o":"m 954 242 l 1064 242 l 1064 221 l 853 221 l 853 193 l 989 193 l 989 165 l 869 165 l 869 138 l 885 138 l 885 117 l 875 117 l 875 103 l 846 103 l 846 89 l 844 89 l 844 75 l 874 75 l 874 47 l 914 47 l 914 38 q 913 33 914 35 l 665 33 q 664 26 664 31 l 760 26 q 744 6 756 13 l 718 6 q 699 0 711 0 l -25 0 q -46 6 -36 0 l -19 6 q -35 26 -29 13 l -132 26 q -133 33 -133 29 l 115 33 l 115 47 l 75 47 l 75 75 l 46 75 l 46 89 l 47 89 l 47 103 l 76 103 l 76 117 l 86 117 l 86 138 l 71 138 l 71 165 l 190 165 l 190 193 l 54 193 l 54 221 l 265 221 l 265 242 l 156 242 l 156 256 l 188 256 l 188 269 l 201 269 l 201 283 l 47 283 l 47 297 l 11 297 l 11 318 l 140 318 l 140 325 l 38 325 l 38 339 l 68 339 l 68 353 l 90 353 l 90 374 l 88 374 l 88 401 l 74 401 l 74 429 l 53 429 l 53 443 l 69 443 l 69 471 l 54 471 l 54 485 l 76 485 l 76 506 l 82 506 l 82 526 l 107 526 l 107 533 l 83 533 l 83 561 l 63 561 l 63 582 l 68 582 l 68 603 l 71 603 l 71 631 l 92 631 l 92 658 l 61 658 l 61 686 l 65 686 l 65 714 l 104 714 l 104 735 l 83 735 l 83 756 l 72 756 l 72 763 l 131 763 l 131 783 l 233 783 l 233 797 l 192 797 l 192 811 l 57 811 l 57 818 l 72 818 l 72 839 l 74 839 l 74 860 l 78 860 l 78 888 l 76 888 l 76 922 l 74 922 l 74 935 q 75 943 74 940 l 61 943 q 97 972 67 972 l 810 972 q 846 943 842 972 l 860 943 q 861 935 861 940 l 861 922 l 864 922 l 864 888 l 865 888 l 865 860 l 861 860 l 861 839 l 860 839 l 860 818 l 844 818 l 844 811 l 979 811 l 979 797 l 1021 797 l 1021 783 l 918 783 l 918 763 l 860 763 l 860 756 l 871 756 l 871 735 l 892 735 q 882 714 889 721 l 843 714 q 815 701 833 701 l 399 701 l 399 686 l 394 686 l 394 658 l 425 658 l 425 631 l 404 631 l 404 614 l 790 614 q 817 603 806 614 l 814 603 q 824 582 821 596 l 819 582 l 819 561 l 840 561 l 840 533 l 864 533 l 864 526 l 839 526 l 839 506 l 833 506 l 833 485 l 811 485 l 811 471 l 826 471 l 826 443 l 810 443 l 810 429 l 831 429 l 831 401 l 844 401 l 844 396 q 838 374 844 381 l 840 374 q 810 358 829 358 l 424 358 l 424 353 l 401 353 l 401 339 l 371 339 l 371 325 l 474 325 l 474 318 l 344 318 l 344 297 l 381 297 l 381 283 l 535 283 l 535 271 l 963 271 q 974 269 969 271 l 958 269 q 979 256 972 265 l 947 256 q 954 242 953 247 m 613 1068 l 614 1068 l 614 1064 q 607 1047 614 1054 l 604 1047 q 588 1042 599 1042 l 383 1042 q 367 1044 374 1042 q 353 1047 360 1046 l 357 1047 q 342 1055 349 1050 q 329 1065 336 1060 l 326 1068 l 324 1068 l 315 1075 l 317 1075 l 300 1089 l 301 1089 l 267 1117 l 268 1117 l 251 1131 l 258 1131 l 225 1158 l 219 1158 l 186 1186 l 183 1186 l 167 1200 l 172 1200 l 156 1214 l 154 1214 l 131 1233 q 128 1238 129 1236 q 126 1242 126 1240 l 119 1242 q 118 1250 118 1244 q 125 1269 118 1263 l 114 1269 q 135 1278 121 1278 l 407 1278 q 439 1269 428 1278 l 449 1269 q 458 1263 453 1267 q 468 1251 463 1258 l 476 1242 l 482 1242 l 506 1214 l 518 1200 l 511 1200 l 522 1186 l 525 1186 l 549 1158 l 553 1158 l 575 1131 l 569 1131 l 581 1117 l 579 1117 l 607 1082 q 611 1075 608 1081 l 610 1075 l 613 1068 z "},"Ē":{"ha":926,"x_min":-133,"x_max":1064,"o":"m 954 242 l 1064 242 l 1064 221 l 853 221 l 853 193 l 989 193 l 989 165 l 869 165 l 869 138 l 885 138 l 885 117 l 875 117 l 875 103 l 846 103 l 846 89 l 844 89 l 844 75 l 874 75 l 874 47 l 914 47 l 914 38 q 913 33 914 35 l 665 33 q 664 26 664 31 l 760 26 q 744 6 756 13 l 718 6 q 699 0 711 0 l -25 0 q -46 6 -36 0 l -19 6 q -35 26 -29 13 l -132 26 q -133 33 -133 29 l 115 33 l 115 47 l 75 47 l 75 75 l 46 75 l 46 89 l 47 89 l 47 103 l 76 103 l 76 117 l 86 117 l 86 138 l 71 138 l 71 165 l 190 165 l 190 193 l 54 193 l 54 221 l 265 221 l 265 242 l 156 242 l 156 256 l 188 256 l 188 269 l 201 269 l 201 283 l 47 283 l 47 297 l 11 297 l 11 318 l 140 318 l 140 325 l 38 325 l 38 339 l 68 339 l 68 353 l 90 353 l 90 374 l 88 374 l 88 401 l 74 401 l 74 429 l 53 429 l 53 443 l 69 443 l 69 471 l 54 471 l 54 485 l 76 485 l 76 506 l 82 506 l 82 526 l 107 526 l 107 533 l 83 533 l 83 561 l 63 561 l 63 582 l 68 582 l 68 603 l 71 603 l 71 631 l 92 631 l 92 658 l 61 658 l 61 686 l 65 686 l 65 714 l 104 714 l 104 735 l 83 735 l 83 756 l 72 756 l 72 763 l 131 763 l 131 783 l 233 783 l 233 797 l 192 797 l 192 811 l 57 811 l 57 818 l 72 818 l 72 839 l 74 839 l 74 860 l 78 860 l 78 888 l 76 888 l 76 922 l 74 922 l 74 935 q 75 943 74 940 l 61 943 q 97 972 67 972 l 810 972 q 846 943 842 972 l 860 943 q 861 935 861 940 l 861 922 l 864 922 l 864 888 l 865 888 l 865 860 l 861 860 l 861 839 l 860 839 l 860 818 l 844 818 l 844 811 l 979 811 l 979 797 l 1021 797 l 1021 783 l 918 783 l 918 763 l 860 763 l 860 756 l 871 756 l 871 735 l 892 735 q 882 714 889 721 l 843 714 q 815 701 833 701 l 399 701 l 399 686 l 394 686 l 394 658 l 425 658 l 425 631 l 404 631 l 404 614 l 790 614 q 817 603 806 614 l 814 603 q 824 582 821 596 l 819 582 l 819 561 l 840 561 l 840 533 l 864 533 l 864 526 l 839 526 l 839 506 l 833 506 l 833 485 l 811 485 l 811 471 l 826 471 l 826 443 l 810 443 l 810 429 l 831 429 l 831 401 l 844 401 l 844 396 q 838 374 844 381 l 840 374 q 810 358 829 358 l 424 358 l 424 353 l 401 353 l 401 339 l 371 339 l 371 325 l 474 325 l 474 318 l 344 318 l 344 297 l 381 297 l 381 283 l 535 283 l 535 271 l 963 271 q 974 269 969 271 l 958 269 q 979 256 972 265 l 947 256 q 954 242 953 247 m 758 1089 l 761 1089 l 761 1075 l 753 1075 l 753 1074 q 751 1061 753 1065 l 746 1061 q 735 1047 743 1051 l 750 1047 q 732 1042 744 1042 l 208 1042 q 190 1047 197 1042 l 175 1047 q 169 1053 171 1050 q 164 1061 167 1057 l 168 1061 q 165 1074 165 1069 l 165 1075 l 174 1075 l 174 1089 l 171 1089 l 171 1117 l 169 1117 l 169 1193 l 171 1193 l 171 1221 q 181 1242 172 1233 q 203 1250 190 1250 l 726 1250 q 758 1221 756 1250 l 758 1193 l 757 1193 l 757 1117 l 758 1117 l 758 1089 z "},"Ę":{"ha":926,"x_min":-71,"x_max":1051,"o":"m 928 38 q 926 26 928 31 l 1031 26 q 1014 6 1026 13 l 879 6 q 860 0 872 0 l 846 0 q 838 0 842 0 q 829 -1 833 0 l 772 -1 q 751 -8 763 -3 l 840 -8 q 831 -15 835 -11 l 779 -15 q 761 -43 765 -29 l 758 -43 q 754 -64 754 -53 l 749 -64 l 749 -71 l 788 -71 q 788 -78 788 -74 q 789 -85 788 -82 l 717 -85 q 729 -112 719 -100 l 658 -112 q 665 -120 661 -117 q 674 -126 669 -124 l 733 -126 q 774 -136 750 -136 l 788 -136 q 814 -147 803 -136 l 776 -147 q 781 -153 779 -150 q 785 -161 783 -157 l 790 -161 q 792 -174 792 -165 l 792 -175 l 892 -175 l 892 -182 l 814 -182 l 814 -196 l 899 -196 l 899 -217 l 851 -217 l 851 -244 l 872 -244 l 872 -272 l 886 -272 q 868 -300 883 -292 l 813 -300 q 792 -306 806 -306 l 772 -306 q 740 -304 756 -306 q 710 -300 725 -303 l 767 -300 q 692 -272 725 -292 l 676 -272 q 658 -259 667 -265 q 640 -244 649 -253 l 619 -244 q 608 -231 614 -237 q 597 -217 603 -224 l 644 -217 q 632 -196 636 -206 l 546 -196 l 540 -182 l 617 -182 q 614 -175 617 -181 l 515 -175 l 510 -161 l 504 -161 l 500 -147 l 539 -147 q 536 -137 538 -142 q 533 -126 535 -132 l 475 -126 q 474 -119 474 -124 q 472 -112 474 -115 l 543 -112 q 541 -99 542 -106 q 540 -85 540 -92 l 613 -85 l 613 -71 l 574 -71 l 574 -64 l 579 -64 q 579 -53 579 -58 q 581 -43 579 -49 l 583 -43 q 584 -29 583 -36 q 586 -15 585 -22 l 638 -15 q 639 -8 639 -12 l 550 -8 q 551 -1 550 -4 l 608 -1 l 608 0 l 136 0 q 117 6 124 0 l 251 6 q 235 26 240 11 l 131 26 q 130 32 131 29 q 129 38 129 35 l 129 54 l 133 54 l 133 68 l 33 68 l 33 82 l 114 82 l 114 110 l 64 110 l 64 131 l 78 131 l 78 144 l 107 144 l 107 151 l -7 151 l -7 165 l 140 165 l 140 179 l 150 179 l 150 200 l -71 200 l -71 214 l 93 214 l 93 228 l 44 228 l 44 235 l 113 235 l 113 242 l 76 242 l 76 256 l 115 256 l 115 263 l 267 263 l 267 276 l 19 276 l 19 290 l 206 290 l 206 311 l -24 311 l -24 332 l 247 332 l 247 339 l 282 339 l 282 360 l 75 360 l 75 367 l 238 367 l 238 381 l 10 381 l 10 394 l 156 394 l 156 401 l 86 401 l 86 408 l 192 408 l 192 422 l 85 422 l 85 436 l 90 436 l 90 464 l 32 464 l 32 485 l 78 485 l 78 492 l 47 492 l 47 506 l 54 506 l 54 519 l 76 519 l 76 540 l 78 540 l 78 561 l 69 561 l 69 582 l 85 582 l 85 596 l 79 596 l 79 603 l 83 603 l 83 617 l 74 617 l 74 644 l 13 644 l 13 665 l 78 665 l 78 686 l 99 686 l 99 700 l 96 700 l 96 721 l 79 721 l 79 728 l 107 728 l 107 742 l 81 742 l 81 769 l 49 769 l 49 790 l 57 790 l 57 797 l -15 797 l -15 818 l 113 818 l 113 846 l 54 846 l 54 867 l 31 867 l 31 874 l 76 874 l 76 894 l 147 894 l 147 922 l 32 922 l 32 936 l 233 936 q 234 940 233 939 q 235 943 235 942 l 178 943 q 192 964 182 957 l 240 964 q 264 972 251 972 l 976 972 q 1000 964 992 972 l 951 964 q 959 955 956 960 q 964 943 963 950 l 1021 943 l 1021 936 l 819 936 l 819 922 l 935 922 l 935 894 l 864 894 l 864 874 l 818 874 l 818 867 l 842 867 l 842 846 l 900 846 l 900 818 l 772 818 l 772 797 l 844 797 l 844 790 l 836 790 l 836 769 l 868 769 l 868 742 l 894 742 l 894 739 q 893 728 894 732 l 865 728 l 863 721 l 879 721 q 846 701 867 701 l 429 701 l 429 700 l 432 700 l 432 686 l 411 686 l 411 665 l 346 665 l 346 644 l 407 644 l 407 617 l 417 617 l 417 614 l 803 614 q 829 603 818 614 l 825 603 q 831 596 829 599 l 836 596 q 840 582 840 590 l 826 582 l 826 561 l 835 561 l 835 540 l 833 540 l 833 519 l 811 519 l 811 506 l 804 506 l 804 492 l 835 492 l 835 485 l 789 485 l 789 464 l 847 464 l 847 436 l 842 436 l 842 422 l 949 422 l 949 408 l 843 408 l 843 401 l 913 401 l 913 394 l 767 394 q 764 381 767 389 l 992 381 q 982 367 988 372 l 818 367 q 806 360 814 363 l 1013 360 q 1001 358 1008 358 l 615 358 l 615 339 l 581 339 l 581 332 l 310 332 l 310 311 l 539 311 l 539 290 l 353 290 l 353 276 l 600 276 l 600 271 l 1028 271 q 1051 263 1043 271 l 900 263 q 906 256 903 261 l 868 256 q 874 242 874 247 l 910 242 q 910 239 910 240 q 911 235 911 238 l 843 235 l 843 228 l 892 228 l 892 214 l 728 214 l 728 200 l 949 200 l 949 179 l 939 179 l 939 165 l 792 165 l 792 151 l 906 151 l 906 144 l 876 144 l 876 131 l 863 131 l 863 110 l 913 110 l 913 82 l 832 82 l 832 68 l 932 68 l 932 54 l 928 54 l 928 38 z "},"F":{"ha":897,"x_min":-15,"x_max":992,"o":"m 781 728 l 781 724 q 772 700 781 711 l 964 700 q 935 686 954 686 l 538 686 l 538 679 l 432 679 l 432 658 l 385 658 l 385 631 l 432 631 l 432 610 l 419 610 l 419 589 l 414 589 l 414 583 l 783 583 q 807 575 797 583 l 810 575 q 821 561 817 569 l 813 561 q 817 546 817 556 l 817 533 l 811 533 l 811 526 l 847 526 l 847 499 l 815 499 l 815 485 l 824 485 l 824 464 l 828 464 l 828 457 l 840 457 l 840 436 l 819 436 l 819 429 l 749 429 l 749 401 l 732 401 l 732 381 l 838 381 l 838 353 l 799 353 l 799 336 q 797 325 799 329 l 794 325 q 778 304 789 310 l 750 304 q 731 299 743 299 l 361 299 l 361 283 l 403 283 l 403 269 l 465 269 l 465 249 l 335 249 l 335 235 l 454 235 l 454 214 l 364 214 l 364 207 l 433 207 l 433 179 l 394 179 l 394 151 l 413 151 l 413 144 l 404 144 l 404 117 l 426 117 l 426 110 l 417 110 l 417 103 l 397 103 l 397 89 l 417 89 l 417 75 l 397 75 l 397 54 l 463 54 l 463 47 l 506 47 l 506 38 q 505 35 506 36 q 504 33 504 35 l 621 33 q 619 26 621 29 l 425 26 q 410 6 422 14 l 510 6 q 490 0 503 0 l 225 0 q 206 6 213 0 l 104 6 q 89 26 94 13 l 282 26 q 281 33 282 31 l 165 33 l 165 47 l 122 47 l 122 54 l 57 54 l 57 75 l 76 75 l 76 89 l 57 89 l 57 103 l 76 103 l 76 110 l 86 110 l 86 117 l 64 117 l 64 144 l 72 144 l 72 151 l 54 151 l 54 179 l 93 179 l 93 207 l 24 207 l 24 214 l 114 214 l 114 235 l -6 235 l -6 249 l 125 249 l 125 269 l 63 269 l 63 283 l 21 283 l 21 304 l 49 304 l 49 325 l 51 325 l 51 353 l 90 353 l 90 381 l -15 381 l -15 401 l 1 401 l 1 429 l 72 429 l 72 436 l 93 436 l 93 457 l 81 457 l 81 464 l 76 464 l 76 485 l 68 485 l 68 499 l 100 499 l 100 526 l 64 526 l 64 533 l 69 533 l 69 561 l 76 561 l 76 575 l 74 575 l 74 589 l 79 589 l 79 610 l 92 610 l 92 631 l 44 631 l 44 658 l 92 658 l 92 679 l 197 679 l 197 700 l 6 700 l 6 728 l 217 728 l 217 749 l 13 749 l 13 763 l 18 763 l 18 776 l 136 776 l 136 804 l 85 804 l 85 832 l 108 832 l 108 860 l 72 860 l 72 888 l 76 888 l 76 908 l 64 908 l 64 929 l 71 929 l 71 935 q 72 943 71 940 l 17 943 q 22 955 18 950 q 29 964 25 960 l 18 964 q 42 972 29 972 l 742 972 q 765 964 756 972 l 776 964 q 790 943 786 957 l 844 943 q 846 935 846 940 l 846 929 l 839 929 l 839 908 l 851 908 l 851 888 l 847 888 l 847 860 l 883 860 l 883 832 l 860 832 l 860 804 l 911 804 l 911 776 l 793 776 l 793 763 l 788 763 l 788 749 l 992 749 l 992 728 l 781 728 z "},"G":{"ha":1046,"x_min":-56,"x_max":1144,"o":"m 963 443 l 1144 443 l 1144 415 l 1090 415 l 1090 388 l 1013 388 l 1013 368 q 1012 357 1013 363 q 1011 346 1011 351 l 1015 346 q 1015 335 1015 340 q 1014 325 1014 331 l 1001 325 q 1001 318 1001 322 q 1000 311 1001 314 l 872 311 q 871 304 871 308 q 869 297 871 300 l 871 297 l 867 276 l 967 276 q 964 266 965 271 q 961 256 963 261 l 976 256 q 972 242 975 249 q 967 228 969 235 l 985 228 l 979 214 l 958 214 q 952 200 956 207 q 944 186 949 193 l 1000 186 l 992 172 l 1003 172 q 998 165 1000 169 q 993 158 996 161 l 914 158 q 911 156 913 157 q 908 151 910 154 l 999 151 q 988 138 993 143 l 965 138 q 956 127 961 132 q 946 117 951 122 l 994 117 l 972 96 l 957 96 l 949 89 l 907 89 q 878 68 894 79 l 869 68 q 852 58 861 63 q 833 47 843 53 l 807 47 l 792 40 l 756 40 q 704 19 729 28 l 669 19 q 590 -1 632 7 l 564 -1 q 541 -5 553 -3 q 518 -8 529 -7 l 556 -8 q 509 -12 533 -11 q 460 -14 485 -14 q 409 -12 433 -14 q 361 -8 385 -11 l 325 -8 q 301 -5 313 -7 q 279 -1 290 -3 l 306 -1 q 226 19 264 7 l 261 19 q 211 40 236 28 l 249 40 q 241 44 244 43 q 235 47 238 46 l 263 47 q 244 58 253 53 q 228 68 236 63 l 238 68 l 210 89 l 251 89 l 243 96 l 258 96 l 238 117 l 190 117 q 181 127 185 122 q 172 138 176 132 l 194 138 q 190 144 193 140 q 185 151 188 149 l 94 151 l 90 158 l 169 158 l 161 172 l 151 172 l 143 186 l 88 186 l 75 214 l 96 214 q 93 221 94 217 q 90 228 92 225 l 72 228 q 67 242 69 235 q 63 256 65 249 l 47 256 q 44 266 46 261 q 42 276 43 271 l 31 276 q 28 287 29 282 q 25 297 26 292 l -53 297 q -54 304 -54 300 q -56 311 -54 308 l 72 311 q 72 318 72 314 q 71 325 72 322 l 56 325 q 53 335 54 331 q 53 346 53 340 l 108 346 q 108 356 108 351 q 107 367 108 361 l 160 367 l 160 388 l 3 388 l 3 415 l 119 415 q 118 429 118 422 q 118 443 118 436 l 136 443 l 136 457 l 21 457 l 21 471 l 33 471 l 33 492 l 71 492 l 71 506 l 51 506 l 51 513 l 44 513 l 44 540 l 46 540 l 46 568 l 50 568 l 50 575 l 54 575 l 54 582 l 28 582 l 28 589 l 57 589 l 57 596 l 50 596 q 51 606 51 601 q 51 617 51 611 l 63 617 l 63 624 l 40 624 q 41 638 40 631 q 42 651 42 644 l 51 651 q 53 658 53 654 q 54 665 53 663 l 61 665 l 65 686 l 18 686 l 22 707 l 64 707 q 68 722 67 714 q 72 735 69 729 l 89 735 l 92 742 l 82 742 q 85 752 83 747 q 89 763 88 757 l 88 763 q 92 773 90 768 q 97 783 94 778 l 93 783 l 106 804 l 117 804 l 121 811 l 108 811 l 124 832 l 207 832 q 213 839 211 836 l 135 839 l 147 853 l 140 853 l 161 874 q 178 888 169 881 q 196 901 186 896 l 197 901 q 219 916 208 908 q 243 929 231 924 q 258 937 250 933 q 272 943 265 940 l 275 943 q 338 964 304 956 l 336 964 q 424 981 378 975 q 521 986 471 986 q 620 981 574 986 q 710 964 667 975 q 775 943 744 956 l 772 943 q 789 937 781 940 q 806 929 797 933 q 832 916 819 924 q 857 901 844 908 l 856 901 q 876 888 867 896 q 894 874 885 881 l 893 874 q 906 863 900 868 q 917 853 911 858 l 924 853 l 936 839 l 1014 839 l 1021 832 l 936 832 q 945 822 942 826 q 953 811 949 817 l 965 811 l 969 804 l 958 804 q 965 794 961 799 q 969 783 968 789 l 974 783 q 979 773 976 778 q 983 763 982 768 l 986 763 q 990 752 989 757 q 993 742 992 747 l 1004 742 q 1005 739 1004 740 q 1006 735 1006 738 l 989 735 q 992 721 992 728 q 994 707 993 714 l 997 707 q 998 697 997 701 q 999 686 999 692 l 1021 686 q 1022 676 1022 683 q 1019 665 1022 671 l 996 665 q 985 651 993 656 l 994 651 q 976 646 988 646 l 669 646 q 642 651 651 646 l 632 651 q 621 661 624 657 l 617 665 l 642 665 q 635 675 639 669 q 624 686 631 681 l 601 686 q 569 707 588 700 l 567 707 q 519 715 549 715 q 469 707 490 715 l 428 707 q 397 686 410 701 l 444 686 q 431 665 438 679 l 422 665 q 419 659 421 663 q 417 651 418 656 l 407 651 q 404 638 406 646 q 401 624 403 631 l 425 624 q 424 617 424 621 l 413 617 l 413 596 l 418 596 l 418 589 l 389 589 l 389 582 l 415 582 l 415 575 l 411 575 l 411 568 l 407 568 l 407 540 l 406 540 l 406 513 l 413 513 l 413 506 l 432 506 l 432 492 l 394 492 l 394 471 l 382 471 l 382 457 l 497 457 l 497 443 l 479 443 q 480 429 479 436 q 481 415 481 422 l 364 415 l 364 388 l 521 388 l 521 367 l 469 367 q 470 356 469 361 q 471 346 471 351 l 415 346 q 418 335 417 340 q 421 325 419 331 l 436 325 q 439 317 438 321 q 442 311 440 314 l 314 311 q 322 297 315 304 l 400 297 q 421 276 408 285 l 433 276 q 504 257 458 257 q 549 262 528 257 q 583 276 569 267 l 485 276 q 507 297 496 283 l 506 297 q 513 311 511 306 l 642 311 l 646 325 l 658 325 q 660 335 660 331 q 661 346 661 340 l 657 346 l 658 356 l 658 357 l 593 357 q 567 367 579 357 q 556 388 557 376 l 635 388 q 633 394 633 390 l 633 415 l 688 415 l 688 443 l 506 443 l 506 457 l 579 457 l 579 471 l 528 471 l 528 492 l 542 492 l 542 506 l 551 506 l 551 513 l 540 513 l 540 540 l 544 540 l 544 549 q 550 568 544 561 l 544 568 q 550 575 546 571 l 558 575 q 567 582 564 581 l 542 582 q 558 586 549 586 l 940 586 q 957 582 951 586 l 983 582 q 993 575 988 581 l 985 575 q 990 568 989 571 l 996 568 q 1001 549 1001 561 l 1001 540 l 997 540 l 997 513 l 1008 513 l 1008 506 l 999 506 l 999 492 l 985 492 l 985 471 l 1036 471 l 1036 457 l 963 457 l 963 443 z "},"Ğ":{"ha":1046,"x_min":-56,"x_max":1144,"o":"m 963 443 l 1144 443 l 1144 415 l 1090 415 l 1090 388 l 1013 388 l 1013 368 q 1012 357 1013 363 q 1011 346 1011 351 l 1015 346 q 1015 335 1015 340 q 1014 325 1014 331 l 1001 325 q 1001 318 1001 322 q 1000 311 1001 314 l 872 311 q 871 304 871 308 q 869 297 871 300 l 871 297 l 867 276 l 967 276 q 964 266 965 271 q 961 256 963 261 l 976 256 q 972 242 975 249 q 967 228 969 235 l 985 228 l 979 214 l 958 214 q 952 200 956 207 q 944 186 949 193 l 1000 186 l 992 172 l 1003 172 q 998 165 1000 169 q 993 158 996 161 l 914 158 q 911 156 913 157 q 908 151 910 154 l 999 151 q 988 138 993 143 l 965 138 q 956 127 961 132 q 946 117 951 122 l 994 117 l 972 96 l 957 96 l 949 89 l 907 89 q 878 68 894 79 l 869 68 q 852 58 861 63 q 833 47 843 53 l 807 47 l 792 40 l 756 40 q 704 19 729 28 l 669 19 q 590 -1 632 7 l 564 -1 q 541 -5 553 -3 q 518 -8 529 -7 l 556 -8 q 509 -12 533 -11 q 460 -14 485 -14 q 409 -12 433 -14 q 361 -8 385 -11 l 325 -8 q 301 -5 313 -7 q 279 -1 290 -3 l 306 -1 q 226 19 264 7 l 261 19 q 211 40 236 28 l 249 40 q 241 44 244 43 q 235 47 238 46 l 263 47 q 244 58 253 53 q 228 68 236 63 l 238 68 l 210 89 l 251 89 l 243 96 l 258 96 l 238 117 l 190 117 q 181 127 185 122 q 172 138 176 132 l 194 138 q 190 144 193 140 q 185 151 188 149 l 94 151 l 90 158 l 169 158 l 161 172 l 151 172 l 143 186 l 88 186 l 75 214 l 96 214 q 93 221 94 217 q 90 228 92 225 l 72 228 q 67 242 69 235 q 63 256 65 249 l 47 256 q 44 266 46 261 q 42 276 43 271 l 31 276 q 28 287 29 282 q 25 297 26 292 l -53 297 q -54 304 -54 300 q -56 311 -54 308 l 72 311 q 72 318 72 314 q 71 325 72 322 l 56 325 q 53 335 54 331 q 53 346 53 340 l 108 346 q 108 356 108 351 q 107 367 108 361 l 160 367 l 160 388 l 3 388 l 3 415 l 119 415 q 118 429 118 422 q 118 443 118 436 l 136 443 l 136 457 l 21 457 l 21 471 l 33 471 l 33 492 l 71 492 l 71 506 l 51 506 l 51 513 l 44 513 l 44 540 l 46 540 l 46 568 l 50 568 l 50 575 l 54 575 l 54 582 l 28 582 l 28 589 l 57 589 l 57 596 l 50 596 q 51 606 51 601 q 51 617 51 611 l 63 617 l 63 624 l 40 624 q 41 638 40 631 q 42 651 42 644 l 51 651 q 53 658 53 654 q 54 665 53 663 l 61 665 l 65 686 l 18 686 l 22 707 l 64 707 q 68 722 67 714 q 72 735 69 729 l 89 735 l 92 742 l 82 742 q 85 752 83 747 q 89 763 88 757 l 88 763 q 92 773 90 768 q 97 783 94 778 l 93 783 l 106 804 l 117 804 l 121 811 l 108 811 l 124 832 l 207 832 q 213 839 211 836 l 135 839 l 147 853 l 140 853 l 161 874 q 178 888 169 881 q 196 901 186 896 l 197 901 q 219 916 208 908 q 243 929 231 924 q 258 937 250 933 q 272 943 265 940 l 275 943 q 338 964 304 956 l 336 964 q 424 981 378 975 q 521 986 471 986 q 620 981 574 986 q 710 964 667 975 q 775 943 744 956 l 772 943 q 789 937 781 940 q 806 929 797 933 q 832 916 819 924 q 857 901 844 908 l 856 901 q 876 888 867 896 q 894 874 885 881 l 893 874 q 906 863 900 868 q 917 853 911 858 l 924 853 l 936 839 l 1014 839 l 1021 832 l 936 832 q 945 822 942 826 q 953 811 949 817 l 965 811 l 969 804 l 958 804 q 965 794 961 799 q 969 783 968 789 l 974 783 q 979 773 976 778 q 983 763 982 768 l 986 763 q 990 752 989 757 q 993 742 992 747 l 1004 742 q 1005 739 1004 740 q 1006 735 1006 738 l 989 735 q 992 721 992 728 q 994 707 993 714 l 997 707 q 998 697 997 701 q 999 686 999 692 l 1021 686 q 1022 676 1022 683 q 1019 665 1022 671 l 996 665 q 985 651 993 656 l 994 651 q 976 646 988 646 l 669 646 q 642 651 651 646 l 632 651 q 621 661 624 657 l 617 665 l 642 665 q 635 675 639 669 q 624 686 631 681 l 601 686 q 569 707 588 700 l 567 707 q 519 715 549 715 q 469 707 490 715 l 428 707 q 397 686 410 701 l 444 686 q 431 665 438 679 l 422 665 q 419 659 421 663 q 417 651 418 656 l 407 651 q 404 638 406 646 q 401 624 403 631 l 425 624 q 424 617 424 621 l 413 617 l 413 596 l 418 596 l 418 589 l 389 589 l 389 582 l 415 582 l 415 575 l 411 575 l 411 568 l 407 568 l 407 540 l 406 540 l 406 513 l 413 513 l 413 506 l 432 506 l 432 492 l 394 492 l 394 471 l 382 471 l 382 457 l 497 457 l 497 443 l 479 443 q 480 429 479 436 q 481 415 481 422 l 364 415 l 364 388 l 521 388 l 521 367 l 469 367 q 470 356 469 361 q 471 346 471 351 l 415 346 q 418 335 417 340 q 421 325 419 331 l 436 325 q 439 317 438 321 q 442 311 440 314 l 314 311 q 322 297 315 304 l 400 297 q 421 276 408 285 l 433 276 q 504 257 458 257 q 549 262 528 257 q 583 276 569 267 l 485 276 q 507 297 496 283 l 506 297 q 513 311 511 306 l 642 311 l 646 325 l 658 325 q 660 335 660 331 q 661 346 661 340 l 657 346 l 658 356 l 658 357 l 593 357 q 567 367 579 357 q 556 388 557 376 l 635 388 q 633 394 633 390 l 633 415 l 688 415 l 688 443 l 506 443 l 506 457 l 579 457 l 579 471 l 528 471 l 528 492 l 542 492 l 542 506 l 551 506 l 551 513 l 540 513 l 540 540 l 544 540 l 544 549 q 550 568 544 561 l 544 568 q 550 575 546 571 l 558 575 q 567 582 564 581 l 542 582 q 558 586 549 586 l 940 586 q 957 582 951 586 l 983 582 q 993 575 988 581 l 985 575 q 990 568 989 571 l 996 568 q 1001 549 1001 561 l 1001 540 l 997 540 l 997 513 l 1008 513 l 1008 506 l 999 506 l 999 492 l 985 492 l 985 471 l 1036 471 l 1036 457 l 963 457 l 963 443 m 764 1200 l 779 1200 q 777 1190 778 1194 q 774 1179 776 1185 l 757 1179 l 749 1158 l 721 1158 q 717 1148 719 1153 q 711 1138 714 1143 l 724 1138 q 715 1124 719 1131 q 704 1110 711 1117 l 725 1110 q 719 1103 722 1107 q 711 1096 715 1099 l 674 1096 q 635 1068 660 1082 l 676 1068 q 670 1065 674 1067 q 663 1061 667 1064 l 672 1061 q 665 1058 669 1060 q 657 1054 661 1057 l 644 1054 q 621 1047 633 1050 q 594 1040 608 1043 q 563 1036 579 1038 q 528 1035 546 1035 q 493 1036 510 1035 q 461 1040 476 1038 q 434 1047 447 1043 q 410 1054 421 1050 l 421 1054 l 406 1061 l 396 1061 q 388 1065 392 1064 q 382 1068 385 1067 l 342 1068 q 303 1096 317 1082 l 342 1096 l 328 1110 l 308 1110 q 298 1124 303 1117 q 289 1138 293 1131 l 275 1138 q 270 1148 272 1143 q 265 1158 268 1153 l 292 1158 q 289 1169 290 1164 q 285 1179 288 1174 l 265 1179 l 261 1200 l 290 1200 q 288 1214 288 1208 l 286 1214 q 284 1228 285 1221 q 283 1242 283 1235 l 278 1242 l 278 1256 l 276 1256 q 301 1278 279 1278 l 439 1278 q 465 1256 463 1278 l 468 1256 l 468 1242 l 474 1242 q 478 1214 474 1226 l 479 1214 q 482 1206 481 1210 q 485 1200 483 1203 l 456 1200 q 478 1179 464 1185 l 497 1179 q 521 1175 508 1175 q 544 1179 535 1175 l 561 1179 q 583 1200 576 1185 l 568 1200 q 574 1214 571 1206 q 578 1242 578 1226 l 576 1242 l 576 1251 q 578 1256 576 1254 q 604 1278 581 1278 l 742 1278 q 768 1256 763 1278 l 767 1256 l 767 1242 l 768 1242 q 768 1228 768 1235 q 767 1214 768 1221 l 765 1214 l 764 1200 z "},"Ĝ":{"ha":1046,"x_min":-56,"x_max":1144,"o":"m 963 443 l 1144 443 l 1144 415 l 1090 415 l 1090 388 l 1013 388 l 1013 368 q 1012 357 1013 363 q 1011 346 1011 351 l 1015 346 q 1015 335 1015 340 q 1014 325 1014 331 l 1001 325 q 1001 318 1001 322 q 1000 311 1001 314 l 872 311 q 871 304 871 308 q 869 297 871 300 l 871 297 l 867 276 l 967 276 q 964 266 965 271 q 961 256 963 261 l 976 256 q 972 242 975 249 q 967 228 969 235 l 985 228 l 979 214 l 958 214 q 952 200 956 207 q 944 186 949 193 l 1000 186 l 992 172 l 1003 172 q 998 165 1000 169 q 993 158 996 161 l 914 158 q 911 156 913 157 q 908 151 910 154 l 999 151 q 988 138 993 143 l 965 138 q 956 127 961 132 q 946 117 951 122 l 994 117 l 972 96 l 957 96 l 949 89 l 907 89 q 878 68 894 79 l 869 68 q 852 58 861 63 q 833 47 843 53 l 807 47 l 792 40 l 756 40 q 704 19 729 28 l 669 19 q 590 -1 632 7 l 564 -1 q 541 -5 553 -3 q 518 -8 529 -7 l 556 -8 q 509 -12 533 -11 q 460 -14 485 -14 q 409 -12 433 -14 q 361 -8 385 -11 l 325 -8 q 301 -5 313 -7 q 279 -1 290 -3 l 306 -1 q 226 19 264 7 l 261 19 q 211 40 236 28 l 249 40 q 241 44 244 43 q 235 47 238 46 l 263 47 q 244 58 253 53 q 228 68 236 63 l 238 68 l 210 89 l 251 89 l 243 96 l 258 96 l 238 117 l 190 117 q 181 127 185 122 q 172 138 176 132 l 194 138 q 190 144 193 140 q 185 151 188 149 l 94 151 l 90 158 l 169 158 l 161 172 l 151 172 l 143 186 l 88 186 l 75 214 l 96 214 q 93 221 94 217 q 90 228 92 225 l 72 228 q 67 242 69 235 q 63 256 65 249 l 47 256 q 44 266 46 261 q 42 276 43 271 l 31 276 q 28 287 29 282 q 25 297 26 292 l -53 297 q -54 304 -54 300 q -56 311 -54 308 l 72 311 q 72 318 72 314 q 71 325 72 322 l 56 325 q 53 335 54 331 q 53 346 53 340 l 108 346 q 108 356 108 351 q 107 367 108 361 l 160 367 l 160 388 l 3 388 l 3 415 l 119 415 q 118 429 118 422 q 118 443 118 436 l 136 443 l 136 457 l 21 457 l 21 471 l 33 471 l 33 492 l 71 492 l 71 506 l 51 506 l 51 513 l 44 513 l 44 540 l 46 540 l 46 568 l 50 568 l 50 575 l 54 575 l 54 582 l 28 582 l 28 589 l 57 589 l 57 596 l 50 596 q 51 606 51 601 q 51 617 51 611 l 63 617 l 63 624 l 40 624 q 41 638 40 631 q 42 651 42 644 l 51 651 q 53 658 53 654 q 54 665 53 663 l 61 665 l 65 686 l 18 686 l 22 707 l 64 707 q 68 722 67 714 q 72 735 69 729 l 89 735 l 92 742 l 82 742 q 85 752 83 747 q 89 763 88 757 l 88 763 q 92 773 90 768 q 97 783 94 778 l 93 783 l 106 804 l 117 804 l 121 811 l 108 811 l 124 832 l 207 832 q 213 839 211 836 l 135 839 l 147 853 l 140 853 l 161 874 q 178 888 169 881 q 196 901 186 896 l 197 901 q 219 916 208 908 q 243 929 231 924 q 258 937 250 933 q 272 943 265 940 l 275 943 q 338 964 304 956 l 336 964 q 424 981 378 975 q 521 986 471 986 q 620 981 574 986 q 710 964 667 975 q 775 943 744 956 l 772 943 q 789 937 781 940 q 806 929 797 933 q 832 916 819 924 q 857 901 844 908 l 856 901 q 876 888 867 896 q 894 874 885 881 l 893 874 q 906 863 900 868 q 917 853 911 858 l 924 853 l 936 839 l 1014 839 l 1021 832 l 936 832 q 945 822 942 826 q 953 811 949 817 l 965 811 l 969 804 l 958 804 q 965 794 961 799 q 969 783 968 789 l 974 783 q 979 773 976 778 q 983 763 982 768 l 986 763 q 990 752 989 757 q 993 742 992 747 l 1004 742 q 1005 739 1004 740 q 1006 735 1006 738 l 989 735 q 992 721 992 728 q 994 707 993 714 l 997 707 q 998 697 997 701 q 999 686 999 692 l 1021 686 q 1022 676 1022 683 q 1019 665 1022 671 l 996 665 q 985 651 993 656 l 994 651 q 976 646 988 646 l 669 646 q 642 651 651 646 l 632 651 q 621 661 624 657 l 617 665 l 642 665 q 635 675 639 669 q 624 686 631 681 l 601 686 q 569 707 588 700 l 567 707 q 519 715 549 715 q 469 707 490 715 l 428 707 q 397 686 410 701 l 444 686 q 431 665 438 679 l 422 665 q 419 659 421 663 q 417 651 418 656 l 407 651 q 404 638 406 646 q 401 624 403 631 l 425 624 q 424 617 424 621 l 413 617 l 413 596 l 418 596 l 418 589 l 389 589 l 389 582 l 415 582 l 415 575 l 411 575 l 411 568 l 407 568 l 407 540 l 406 540 l 406 513 l 413 513 l 413 506 l 432 506 l 432 492 l 394 492 l 394 471 l 382 471 l 382 457 l 497 457 l 497 443 l 479 443 q 480 429 479 436 q 481 415 481 422 l 364 415 l 364 388 l 521 388 l 521 367 l 469 367 q 470 356 469 361 q 471 346 471 351 l 415 346 q 418 335 417 340 q 421 325 419 331 l 436 325 q 439 317 438 321 q 442 311 440 314 l 314 311 q 322 297 315 304 l 400 297 q 421 276 408 285 l 433 276 q 504 257 458 257 q 549 262 528 257 q 583 276 569 267 l 485 276 q 507 297 496 283 l 506 297 q 513 311 511 306 l 642 311 l 646 325 l 658 325 q 660 335 660 331 q 661 346 661 340 l 657 346 l 658 356 l 658 357 l 593 357 q 567 367 579 357 q 556 388 557 376 l 635 388 q 633 394 633 390 l 633 415 l 688 415 l 688 443 l 506 443 l 506 457 l 579 457 l 579 471 l 528 471 l 528 492 l 542 492 l 542 506 l 551 506 l 551 513 l 540 513 l 540 540 l 544 540 l 544 549 q 550 568 544 561 l 544 568 q 550 575 546 571 l 558 575 q 567 582 564 581 l 542 582 q 558 586 549 586 l 940 586 q 957 582 951 586 l 983 582 q 993 575 988 581 l 985 575 q 990 568 989 571 l 996 568 q 1001 549 1001 561 l 1001 540 l 997 540 l 997 513 l 1008 513 l 1008 506 l 999 506 l 999 492 l 985 492 l 985 471 l 1036 471 l 1036 457 l 963 457 l 963 443 m 815 1103 l 835 1082 q 842 1064 842 1075 l 842 1061 l 832 1061 q 831 1054 832 1057 l 842 1054 q 838 1047 839 1049 l 840 1047 q 824 1042 835 1042 l 725 1042 q 703 1042 714 1042 q 679 1047 692 1043 l 678 1047 l 667 1051 l 661 1054 l 650 1054 l 635 1061 l 643 1061 l 599 1082 l 553 1103 l 522 1103 l 431 1061 l 417 1061 l 401 1054 l 406 1054 l 400 1051 l 390 1047 l 328 1047 q 304 1042 315 1043 q 282 1042 293 1042 l 183 1042 q 167 1047 172 1042 l 229 1047 q 225 1054 228 1049 l 221 1054 q 220 1058 221 1057 q 219 1061 219 1060 l 233 1061 l 233 1064 q 240 1082 233 1075 l 260 1103 l 315 1103 l 340 1131 l 278 1131 l 303 1158 l 353 1158 l 360 1165 l 307 1165 l 326 1186 l 344 1186 l 357 1200 l 321 1200 l 340 1221 l 394 1221 l 401 1228 l 357 1228 l 378 1251 l 382 1256 l 403 1256 l 410 1263 l 457 1263 q 497 1278 474 1278 l 678 1278 q 718 1263 699 1278 l 671 1263 q 678 1256 675 1260 l 657 1256 l 661 1251 l 683 1228 l 728 1228 l 735 1221 l 679 1221 l 699 1200 l 735 1200 l 747 1186 l 731 1186 l 749 1165 l 801 1165 l 807 1158 l 757 1158 l 782 1131 l 846 1131 l 871 1103 l 815 1103 m 578 1103 l 608 1103 l 593 1110 l 578 1103 z "}}}
